<svg width="70" height="22" viewBox="0 0 70 22" fill="none" xmlns="http://www.w3.org/2000/svg">
<path d="M4.88097 7.02099H9.01769V11.2506H4.52728H4.39399V11.3839V21.8666H0.133286V8.56199C0.133286 6.23917 0.967306 4.23487 2.61507 2.59841C4.26287 0.961928 6.28145 0.133286 8.62116 0.133286H9.01769V4.36292H8.62116C7.4453 4.36292 6.46501 4.76642 5.63284 5.59288C5.25759 5.96554 4.96338 6.38215 4.75953 6.83276L4.67438 7.02099H4.88097Z" fill="#4F63D2" stroke="#4F63D2" stroke-width="0.266573"/>
<path d="M13.0202 3.74562L13.0201 3.74557C12.6073 3.33557 12.3989 2.83401 12.3989 2.24834C12.3989 1.66318 12.6073 1.16161 13.0206 0.751108C13.434 0.340558 13.939 0.133286 14.5295 0.133286C15.119 0.133286 15.6245 0.340558 16.0379 0.751108C16.4513 1.16212 16.6596 1.66371 16.6596 2.24834C16.6596 2.8335 16.4513 3.33507 16.0379 3.74557C15.6245 4.15611 15.1191 4.36339 14.529 4.36339C13.9385 4.36339 13.4331 4.15609 13.0202 3.74562Z" fill="#4F63D2" stroke="#4F63D2" stroke-width="0.266573"/>
<path d="M12.3989 21.8666V7.1201H16.6596V21.8666H12.3989Z" fill="#4F63D2" stroke="#4F63D2" stroke-width="0.266573"/>
<path d="M23.9944 14.0459V21.5801H19.5552V14.0459C19.5552 11.975 20.3017 10.1854 21.7778 8.71943C23.2539 7.25348 25.0567 6.5117 27.1424 6.5117C29.2279 6.5117 31.0303 7.25346 32.5069 8.71942C33.9825 10.1854 34.7295 11.9755 34.7295 14.0459V21.5801H30.2903V14.0459C30.2903 13.1856 29.9798 12.4391 29.3694 11.8329L29.3693 11.8328C28.759 11.2272 28.0073 10.9186 27.1424 10.9186C26.2769 10.9186 25.5257 11.2267 24.9153 11.8329L24.9153 11.8329C24.3054 12.4391 23.9944 13.186 23.9944 14.0459Z" fill="#4F63D2" stroke="#4F63D2" stroke-width="0.266573"/>
<path d="M47.3181 7.16142L47.5042 7.24179V7.03905V0.470933H51.8384V14.0453C51.8384 16.1114 51.1038 17.8721 49.6311 19.3348C48.1583 20.7974 46.385 21.5273 44.3037 21.5273C42.2224 21.5273 40.4491 20.7974 38.9764 19.3348C37.5036 17.8721 36.769 16.1114 36.769 14.0453C36.769 11.9791 37.5036 10.2184 38.9764 8.75576C40.4491 7.29312 42.2224 6.56321 44.3037 6.56321C45.391 6.56321 46.3953 6.76293 47.3181 7.16142ZM47.5047 14.0453V14.0453C47.5047 13.1674 47.1912 12.4147 46.568 11.7957C45.9448 11.1768 45.1878 10.8658 44.3042 10.8658C43.4206 10.8658 42.6636 11.1768 42.0404 11.7957C41.4172 12.4147 41.1037 13.1669 41.1037 14.0453C41.1037 14.9236 41.4172 15.6758 42.0404 16.2948C42.6636 16.9137 43.4206 17.2247 44.3042 17.2247C45.1873 17.2247 45.9448 16.9137 46.568 16.2948C47.1912 15.6758 47.5042 14.9236 47.5047 14.0453Z" fill="#4F63D2" stroke="#4F63D2" stroke-width="0.266573"/>
<path d="M64.8323 21.0525V20.8497L64.6462 20.9301C63.7234 21.3286 62.7191 21.5283 61.6318 21.5283C59.5505 21.5283 57.7772 20.7984 56.3045 19.3357C54.8318 17.8731 54.0972 16.1124 54.0972 14.0462C54.0972 11.9801 54.8318 10.2194 56.3045 8.75675C57.7772 7.29411 59.5505 6.56419 61.6318 6.56419C63.7131 6.56419 65.4864 7.29411 66.9592 8.75675C68.4319 10.2194 69.1665 11.9801 69.1665 14.0462V21.5283H64.8323V21.0525ZM64.8328 14.0463V14.0462C64.8328 13.1684 64.5193 12.4157 63.8961 11.7967C63.2729 11.1778 62.5159 10.8668 61.6323 10.8668C60.7487 10.8668 59.9917 11.1778 59.3685 11.7967C58.7453 12.4157 58.4318 13.1679 58.4318 14.0462C58.4318 14.9246 58.7453 15.6768 59.3685 16.2958C59.9917 16.9147 60.7487 17.2257 61.6323 17.2257C62.5154 17.2257 63.2729 16.9147 63.8961 16.2958C64.5194 15.6768 64.8323 14.9246 64.8328 14.0463Z" fill="#4F63D2" stroke="#4F63D2" stroke-width="0.266573"/>
</svg>
