<svg width="260" height="120" viewBox="0 0 260 120" fill="none" xmlns="http://www.w3.org/2000/svg">
<g filter="url(#filter0_d_4778_233889)">
<path d="M86.3184 19.0285C86.3184 17.6388 87.4449 16.5122 88.8346 16.5122H174.498C175.888 16.5122 177.015 17.6388 177.015 19.0285V68.9073C177.015 70.2971 175.888 71.4236 174.498 71.4236H88.8346C87.4449 71.4236 86.3184 70.2971 86.3184 68.9073V19.0285Z" fill="url(#paint0_linear_4778_233889)"/>
</g>
<g filter="url(#filter1_di_4778_233889)">
<path d="M86.3184 19.0285C86.3184 17.6388 87.4449 16.5122 88.8346 16.5122H174.498C175.888 16.5122 177.015 17.6388 177.015 19.0285V28.2349H86.3184V19.0285Z" fill="url(#paint1_linear_4778_233889)"/>
</g>
<g filter="url(#filter2_i_4778_233889)">
<path fill-rule="evenodd" clip-rule="evenodd" d="M121.556 37.5912C122.921 37.1961 124.349 37.9789 124.746 39.3397L126.983 47.0149L129.365 40.7673C129.694 39.9048 130.51 39.3696 131.383 39.3556C132.307 39.3342 133.182 39.901 133.505 40.8177L135.718 47.0818L138.131 39.5044C138.561 38.1538 140.008 37.4061 141.364 37.8347C142.718 38.2633 143.469 39.7057 143.038 41.0563L142.07 44.1011L145.495 44.1425C146.559 44.1559 147.412 45.0371 147.398 46.1096C147.385 47.1834 146.511 48.0433 145.446 48.0299L140.836 47.9737L138.654 54.8245C138.224 56.1751 136.777 56.9226 135.422 56.4947C134.45 56.1871 133.789 55.3594 133.653 54.4166L131.347 47.8922L128.823 54.5129C128.617 55.3848 127.959 56.1229 127.034 56.3917C125.669 56.7862 124.241 56.0039 123.844 54.6426L121.833 47.7397L117.221 47.6836C116.155 47.6702 115.302 46.7903 115.316 45.7165C115.329 44.6427 116.203 43.7828 117.268 43.7962L120.696 43.8376L119.802 40.7707C119.405 39.4099 120.191 37.9864 121.556 37.5912Z" fill="#18A89E"/>
</g>
<g clip-path="url(#clip0_4778_233889)">
<g filter="url(#filter3_f_4778_233889)">
<path fill-rule="evenodd" clip-rule="evenodd" d="M158.487 61.5076C150.917 74.6185 135.039 79.941 121.343 74.664C121.32 75.0395 121.211 75.4155 121.01 75.7635L116.964 82.7724C118.061 83.5016 118.416 84.9682 117.748 86.1249L107.6 103.701C106.906 104.905 105.367 105.317 104.163 104.622L95.2586 99.4813C94.055 98.7865 93.6427 97.2475 94.3375 96.044L104.485 78.4676C105.153 77.3106 106.602 76.8848 107.782 77.4711L111.828 70.4623C112.047 70.0829 112.35 69.7822 112.7 69.57C101.625 60.2871 98.4706 44.1201 105.946 31.1729C114.322 16.664 132.875 11.6929 147.384 20.0696C161.893 28.4463 166.864 46.9988 158.487 61.5076ZM119.777 67.8877C131.677 74.7585 146.894 70.6811 153.765 58.7805C160.636 46.88 156.558 31.6629 144.658 24.7921C132.757 17.9213 117.54 21.9987 110.669 33.8993C103.799 45.7998 107.876 61.0169 119.777 67.8877Z" fill="#E1E3FA"/>
</g>
<g filter="url(#filter4_dii_4778_233889)">
<path fill-rule="evenodd" clip-rule="evenodd" d="M119.607 72.0887C133.944 77.5908 150.553 72.0132 158.475 58.2927C167.249 43.0951 162.042 23.6621 146.845 14.8878C131.647 6.11347 112.214 11.3205 103.44 26.5181C95.6176 40.0667 98.9073 56.9815 110.481 66.7095C110.154 66.9195 109.87 67.2088 109.662 67.5691L104.442 76.6107L114.06 82.1635L119.28 73.1219C119.469 72.7944 119.576 72.4421 119.607 72.0887ZM153.529 55.4355C146.332 67.9009 130.393 72.1719 117.927 64.975C105.462 57.7781 101.191 41.8386 108.388 29.3732C115.585 16.9078 131.524 12.6368 143.99 19.8337C156.455 27.0306 160.726 42.9701 153.529 55.4355Z" fill="url(#paint2_linear_4778_233889)"/>
</g>
<g filter="url(#filter5_di_4778_233889)">
<rect x="103.229" y="73.7739" width="16.0415" height="26.5302" rx="2.51628" transform="rotate(30 103.229 73.7739)" fill="url(#paint3_linear_4778_233889)"/>
</g>
</g>
<g filter="url(#filter6_d_4778_233889)">
<path d="M162.676 23.7642C163.606 24.3507 165.291 23.7723 166.44 22.4724C167.59 21.1724 167.768 19.6432 166.839 19.0566C165.91 18.4701 164.224 19.0484 163.075 20.3484C161.926 21.6483 161.747 23.1776 162.676 23.7642Z" fill="url(#paint4_linear_4778_233889)"/>
</g>
<path d="M152.002 11.4365C151.449 12.7821 151.79 14.1048 152.763 14.3907C153.737 14.6767 154.974 13.8177 155.527 12.4721C156.081 11.1265 155.74 9.80384 154.767 9.51789C153.793 9.23194 152.555 10.0909 152.002 11.4365Z" fill="#A1E2CE"/>
<path d="M160.966 14.3801C161.318 15.2879 163.287 15.5647 165.362 14.9985C167.438 14.4323 168.835 13.2374 168.483 12.3297C168.13 11.4219 166.162 11.145 164.086 11.7113C162.011 12.2775 160.614 13.4724 160.966 14.3801Z" fill="#677CEB"/>
<defs>
<filter id="filter0_d_4778_233889" x="74.9951" y="6.44709" width="115.859" height="80.0744" filterUnits="userSpaceOnUse" color-interpolation-filters="sRGB">
<feFlood flood-opacity="0" result="BackgroundImageFix"/>
<feColorMatrix in="SourceAlpha" type="matrix" values="0 0 0 0 0 0 0 0 0 0 0 0 0 0 0 0 0 0 127 0" result="hardAlpha"/>
<feOffset dx="1.25814" dy="2.51628"/>
<feGaussianBlur stdDeviation="6.2907"/>
<feColorMatrix type="matrix" values="0 0 0 0 0.831373 0 0 0 0 0.862745 0 0 0 0 1 0 0 0 0.75 0"/>
<feBlend mode="normal" in2="BackgroundImageFix" result="effect1_dropShadow_4778_233889"/>
<feBlend mode="normal" in="SourceGraphic" in2="effect1_dropShadow_4778_233889" result="shape"/>
</filter>
<filter id="filter1_di_4778_233889" x="83.8021" y="13.9959" width="95.7288" height="16.7552" filterUnits="userSpaceOnUse" color-interpolation-filters="sRGB">
<feFlood flood-opacity="0" result="BackgroundImageFix"/>
<feColorMatrix in="SourceAlpha" type="matrix" values="0 0 0 0 0 0 0 0 0 0 0 0 0 0 0 0 0 0 127 0" result="hardAlpha"/>
<feOffset/>
<feGaussianBlur stdDeviation="1.25814"/>
<feComposite in2="hardAlpha" operator="out"/>
<feColorMatrix type="matrix" values="0 0 0 0 0.784722 0 0 0 0 0.802831 0 0 0 0 0.941667 0 0 0 0.8 0"/>
<feBlend mode="normal" in2="BackgroundImageFix" result="effect1_dropShadow_4778_233889"/>
<feBlend mode="normal" in="SourceGraphic" in2="effect1_dropShadow_4778_233889" result="shape"/>
<feColorMatrix in="SourceAlpha" type="matrix" values="0 0 0 0 0 0 0 0 0 0 0 0 0 0 0 0 0 0 127 0" result="hardAlpha"/>
<feOffset dy="1.25814"/>
<feGaussianBlur stdDeviation="1.25814"/>
<feComposite in2="hardAlpha" operator="arithmetic" k2="-1" k3="1"/>
<feColorMatrix type="matrix" values="0 0 0 0 0.607843 0 0 0 0 0.639216 0 0 0 0 0.894118 0 0 0 0.4 0"/>
<feBlend mode="normal" in2="shape" result="effect2_innerShadow_4778_233889"/>
</filter>
<filter id="filter2_i_4778_233889" x="115.315" y="37.4888" width="32.083" height="20.3846" filterUnits="userSpaceOnUse" color-interpolation-filters="sRGB">
<feFlood flood-opacity="0" result="BackgroundImageFix"/>
<feBlend mode="normal" in="SourceGraphic" in2="BackgroundImageFix" result="shape"/>
<feColorMatrix in="SourceAlpha" type="matrix" values="0 0 0 0 0 0 0 0 0 0 0 0 0 0 0 0 0 0 127 0" result="hardAlpha"/>
<feOffset dy="1.25814"/>
<feGaussianBlur stdDeviation="0.943605"/>
<feComposite in2="hardAlpha" operator="arithmetic" k2="-1" k3="1"/>
<feColorMatrix type="matrix" values="0 0 0 0 0.0295833 0 0 0 0 0.591667 0 0 0 0 0.55236 0 0 0 1 0"/>
<feBlend mode="normal" in2="shape" result="effect1_innerShadow_4778_233889"/>
</filter>
<filter id="filter3_f_4778_233889" x="86" y="8.00049" width="84.5557" height="104.959" filterUnits="userSpaceOnUse" color-interpolation-filters="sRGB">
<feFlood flood-opacity="0" result="BackgroundImageFix"/>
<feBlend mode="normal" in="SourceGraphic" in2="BackgroundImageFix" result="shape"/>
<feGaussianBlur stdDeviation="4" result="effect1_foregroundBlur_4778_233889"/>
</filter>
<filter id="filter4_dii_4778_233889" x="95.4033" y="8.10921" width="71.1084" height="79.0869" filterUnits="userSpaceOnUse" color-interpolation-filters="sRGB">
<feFlood flood-opacity="0" result="BackgroundImageFix"/>
<feColorMatrix in="SourceAlpha" type="matrix" values="0 0 0 0 0 0 0 0 0 0 0 0 0 0 0 0 0 0 127 0" result="hardAlpha"/>
<feOffset dy="1.25814"/>
<feGaussianBlur stdDeviation="1.88721"/>
<feComposite in2="hardAlpha" operator="out"/>
<feColorMatrix type="matrix" values="0 0 0 0 0.764706 0 0 0 0 0.780392 0 0 0 0 0.937255 0 0 0 0.5 0"/>
<feBlend mode="normal" in2="BackgroundImageFix" result="effect1_dropShadow_4778_233889"/>
<feBlend mode="normal" in="SourceGraphic" in2="effect1_dropShadow_4778_233889" result="shape"/>
<feColorMatrix in="SourceAlpha" type="matrix" values="0 0 0 0 0 0 0 0 0 0 0 0 0 0 0 0 0 0 127 0" result="hardAlpha"/>
<feOffset dx="-1.25814" dy="-2.51628"/>
<feGaussianBlur stdDeviation="2.51628"/>
<feComposite in2="hardAlpha" operator="arithmetic" k2="-1" k3="1"/>
<feColorMatrix type="matrix" values="0 0 0 0 0.694118 0 0 0 0 0.701961 0 0 0 0 0.788235 0 0 0 0.2 0"/>
<feBlend mode="normal" in2="shape" result="effect2_innerShadow_4778_233889"/>
<feColorMatrix in="SourceAlpha" type="matrix" values="0 0 0 0 0 0 0 0 0 0 0 0 0 0 0 0 0 0 127 0" result="hardAlpha"/>
<feOffset dy="2.51628"/>
<feGaussianBlur stdDeviation="1.25814"/>
<feComposite in2="hardAlpha" operator="arithmetic" k2="-1" k3="1"/>
<feColorMatrix type="matrix" values="0 0 0 0 1 0 0 0 0 1 0 0 0 0 1 0 0 0 0.5 0"/>
<feBlend mode="normal" in2="effect2_innerShadow_4778_233889" result="effect3_innerShadow_4778_233889"/>
</filter>
<filter id="filter5_di_4778_233889" x="87.1094" y="72.1781" width="32.8652" height="36.7046" filterUnits="userSpaceOnUse" color-interpolation-filters="sRGB">
<feFlood flood-opacity="0" result="BackgroundImageFix"/>
<feColorMatrix in="SourceAlpha" type="matrix" values="0 0 0 0 0 0 0 0 0 0 0 0 0 0 0 0 0 0 127 0" result="hardAlpha"/>
<feOffset dy="1.25814"/>
<feGaussianBlur stdDeviation="1.88721"/>
<feComposite in2="hardAlpha" operator="out"/>
<feColorMatrix type="matrix" values="0 0 0 0 0.764706 0 0 0 0 0.780392 0 0 0 0 0.937255 0 0 0 0.5 0"/>
<feBlend mode="normal" in2="BackgroundImageFix" result="effect1_dropShadow_4778_233889"/>
<feBlend mode="normal" in="SourceGraphic" in2="effect1_dropShadow_4778_233889" result="shape"/>
<feColorMatrix in="SourceAlpha" type="matrix" values="0 0 0 0 0 0 0 0 0 0 0 0 0 0 0 0 0 0 127 0" result="hardAlpha"/>
<feOffset dy="2.51628"/>
<feGaussianBlur stdDeviation="2.51628"/>
<feComposite in2="hardAlpha" operator="arithmetic" k2="-1" k3="1"/>
<feColorMatrix type="matrix" values="0 0 0 0 1 0 0 0 0 1 0 0 0 0 1 0 0 0 0.5 0"/>
<feBlend mode="normal" in2="shape" result="effect2_innerShadow_4778_233889"/>
</filter>
<filter id="filter6_d_4778_233889" x="146.983" y="18.8276" width="35.5479" height="54.233" filterUnits="userSpaceOnUse" color-interpolation-filters="sRGB">
<feFlood flood-opacity="0" result="BackgroundImageFix"/>
<feColorMatrix in="SourceAlpha" type="matrix" values="0 0 0 0 0 0 0 0 0 0 0 0 0 0 0 0 0 0 127 0" result="hardAlpha"/>
<feOffset dy="33.9698"/>
<feGaussianBlur stdDeviation="7.54884"/>
<feComposite in2="hardAlpha" operator="out"/>
<feColorMatrix type="matrix" values="0 0 0 0 0 0 0 0 0 0 0 0 0 0 0 0 0 0 0.05 0"/>
<feBlend mode="normal" in2="BackgroundImageFix" result="effect1_dropShadow_4778_233889"/>
<feBlend mode="normal" in="SourceGraphic" in2="effect1_dropShadow_4778_233889" result="shape"/>
</filter>
<linearGradient id="paint0_linear_4778_233889" x1="93.5758" y1="17.2115" x2="126.199" y2="126.574" gradientUnits="userSpaceOnUse">
<stop stop-color="white"/>
<stop offset="1" stop-color="#F5F6FA"/>
</linearGradient>
<linearGradient id="paint1_linear_4778_233889" x1="131.667" y1="14.6613" x2="131.667" y2="29.1603" gradientUnits="userSpaceOnUse">
<stop stop-color="white"/>
<stop offset="0.0001" stop-color="#E8EAFA"/>
<stop offset="1" stop-color="#DCDEF9"/>
</linearGradient>
<linearGradient id="paint2_linear_4778_233889" x1="99.8922" y1="11.0317" x2="161.899" y2="69.3365" gradientUnits="userSpaceOnUse">
<stop offset="0.10929" stop-color="white"/>
<stop offset="0.242203" stop-color="#FBFCFD"/>
<stop offset="0.654027" stop-color="#F3F4FA"/>
<stop offset="0.796975" stop-color="#E9EDFF"/>
<stop offset="0.864416" stop-color="#DCDEF9"/>
<stop offset="0.908536" stop-color="#DCDEF9"/>
</linearGradient>
<linearGradient id="paint3_linear_4778_233889" x1="108.707" y1="76.9501" x2="121.363" y2="82.2059" gradientUnits="userSpaceOnUse">
<stop stop-color="white"/>
<stop offset="1" stop-color="#E8EAFA"/>
</linearGradient>
<linearGradient id="paint4_linear_4778_233889" x1="165.433" y1="18.8428" x2="165.623" y2="23.914" gradientUnits="userSpaceOnUse">
<stop stop-color="#FF9173"/>
<stop offset="1" stop-color="#FFBDA5"/>
</linearGradient>
<clipPath id="clip0_4778_233889">
<rect width="92" height="101" fill="white" transform="translate(82 10.0005)"/>
</clipPath>
</defs>
</svg>
