<svg width="28" height="28" viewBox="0 0 28 28" fill="none" xmlns="http://www.w3.org/2000/svg">
<path fill-rule="evenodd" clip-rule="evenodd" d="M14 24C19.5228 24 24 19.5228 24 14C24 8.47715 19.5228 4 14 4C8.47715 4 4 8.47715 4 14C4 19.5228 8.47715 24 14 24ZM17.8029 11.5961C18.1321 11.1527 18.0395 10.5263 17.5961 10.1971C17.1527 9.86787 16.5263 9.96047 16.1971 10.4039L12.4306 15.4771L10.7044 13.7639C10.3124 13.3749 9.67928 13.3773 9.29023 13.7693C8.90118 14.1612 8.90357 14.7944 9.29557 15.1835L11.7509 17.6203C12.2307 18.0965 13.0211 18.0369 13.4241 17.4942L17.8029 11.5961Z" fill="#4F63D2"/>
</svg>
