<svg width="199" height="115" viewBox="0 0 199 115" fill="none" xmlns="http://www.w3.org/2000/svg">
<path d="M99.225 0C44.4245 0 0 44.4245 0 99.225H198.45C198.45 44.4245 154.025 0 99.225 0Z" fill="#F5F5F5"/>
<path d="M98.82 46.1699C69.2948 46.1699 45.36 70.1048 45.36 99.6299H152.28C152.28 70.1048 128.345 46.1699 98.82 46.1699Z" fill="white"/>
<path d="M19.6498 108.528C19.6498 106.203 18.5985 105.142 17.2531 105.142C15.8987 105.142 14.8563 106.203 14.8563 108.528C14.8563 110.845 15.8987 111.905 17.2531 111.905C18.5985 111.905 19.6498 110.845 19.6498 108.528ZM18.8301 108.528C18.8301 110.56 18.0817 111.246 17.2531 111.246C16.4244 111.246 15.6849 110.56 15.6849 108.528C15.6849 106.488 16.4244 105.81 17.2531 105.81C18.0817 105.81 18.8301 106.488 18.8301 108.528Z" fill="#999999"/>
<path d="M28.0193 104.447V106.452H26.4423V107.058H28.0193V109.125H28.7589V104.447H28.0193ZM26.8878 108.296C25.7295 107.895 24.9454 106.88 24.9454 105.846V105.552H26.7006V104.955H22.4328V105.552H24.2148V105.855C24.2148 106.987 23.3861 108.047 22.2011 108.475L22.5842 109.045C23.5198 108.697 24.2504 107.985 24.5979 107.058C24.9454 107.878 25.6314 108.546 26.5224 108.867L26.8878 108.296ZM23.5643 112.333H28.7589V109.517H23.5643V112.333ZM24.2771 110.096H28.0461V111.745H24.2771V110.096Z" fill="#999999"/>
<path d="M165.209 111.121V105.214H164.559L162.803 106.728L163.24 107.254L164.425 106.194C164.416 106.256 164.416 106.336 164.416 106.416V111.121H162.964V111.78H166.492V111.121H165.209Z" fill="#999999"/>
<path d="M172.094 108.528C172.094 106.203 171.043 105.142 169.697 105.142C168.343 105.142 167.3 106.203 167.3 108.528C167.3 110.845 168.343 111.905 169.697 111.905C171.043 111.905 172.094 110.845 172.094 108.528ZM171.274 108.528C171.274 110.56 170.526 111.246 169.697 111.246C168.869 111.246 168.129 110.56 168.129 108.528C168.129 106.488 168.869 105.81 169.697 105.81C170.526 105.81 171.274 106.488 171.274 108.528Z" fill="#999999"/>
<path d="M177.313 108.528C177.313 106.203 176.261 105.142 174.916 105.142C173.561 105.142 172.519 106.203 172.519 108.528C172.519 110.845 173.561 111.905 174.916 111.905C176.261 111.905 177.313 110.845 177.313 108.528ZM176.493 108.528C176.493 110.56 175.744 111.246 174.916 111.246C174.087 111.246 173.348 110.56 173.348 108.528C173.348 106.488 174.087 105.81 174.916 105.81C175.744 105.81 176.493 106.488 176.493 108.528Z" fill="#999999"/>
<path d="M182.531 108.528C182.531 106.203 181.48 105.142 180.134 105.142C178.78 105.142 177.738 106.203 177.738 108.528C177.738 110.845 178.78 111.905 180.134 111.905C181.48 111.905 182.531 110.845 182.531 108.528ZM181.711 108.528C181.711 110.56 180.963 111.246 180.134 111.246C179.306 111.246 178.566 110.56 178.566 108.528C178.566 106.488 179.306 105.81 180.134 105.81C180.963 105.81 181.711 106.488 181.711 108.528Z" fill="#999999"/>
<path d="M190.901 104.447V106.452H189.324V107.058H190.901V109.125H191.64V104.447H190.901ZM189.769 108.296C188.611 107.895 187.827 106.88 187.827 105.846V105.552H189.582V104.955H185.314V105.552H187.096V105.855C187.096 106.987 186.267 108.047 185.082 108.475L185.466 109.045C186.401 108.697 187.132 107.985 187.479 107.058C187.827 107.878 188.513 108.546 189.404 108.867L189.769 108.296ZM186.446 112.333H191.64V109.517H186.446V112.333ZM187.158 110.096H190.927V111.745H187.158V110.096Z" fill="#999999"/>
<path d="M64.8 76.9504C64.8 74.7136 66.6132 72.9004 68.85 72.9004H82.62C84.8567 72.9004 86.67 74.7136 86.67 76.9504V95.5804C86.67 97.8171 84.8567 99.6304 82.62 99.6304H68.85C66.6132 99.6304 64.8 97.8171 64.8 95.5804V76.9504Z" fill="url(#paint0_linear_1334_58465)"/>
<path d="M88.29 76.9504C88.29 74.7136 90.1032 72.9004 92.34 72.9004H106.11C108.347 72.9004 110.16 74.7136 110.16 76.9504V95.5804C110.16 97.8171 108.347 99.6304 106.11 99.6304H92.34C90.1032 99.6304 88.29 97.8171 88.29 95.5804V76.9504Z" fill="url(#paint1_linear_1334_58465)"/>
<path d="M111.78 76.9504C111.78 74.7136 113.593 72.9004 115.83 72.9004H129.6C131.837 72.9004 133.65 74.7136 133.65 76.9504V95.5804C133.65 97.8171 131.837 99.6304 129.6 99.6304H115.83C113.593 99.6304 111.78 97.8171 111.78 95.5804V76.9504Z" fill="url(#paint2_linear_1334_58465)"/>
<path d="M75.7593 88.1687C75.3948 85.4107 77.7762 86.2976 77.7762 83.6611C77.7762 82.2031 76.6705 81.3769 75.2368 81.3161C74.034 81.2554 72.5881 81.9479 72.4545 84.0985H73.9732C74.034 83.1265 74.5078 82.6648 75.1882 82.6648C75.8686 82.6648 76.1602 83.1508 76.1602 83.7826C76.1602 85.3621 73.9854 84.9976 74.3863 88.1687H75.7593ZM75.9537 89.165H74.1798V90.8903H75.9537V89.165Z" fill="white"/>
<path d="M99.2493 88.1687C98.8848 85.4107 101.266 86.2976 101.266 83.6611C101.266 82.2031 100.161 81.3769 98.7268 81.3161C97.524 81.2554 96.0781 81.9479 95.9445 84.0985H97.4632C97.524 83.1265 97.9978 82.6648 98.6782 82.6648C99.3586 82.6648 99.6502 83.1508 99.6502 83.7826C99.6502 85.3621 97.4754 84.9976 97.8763 88.1687H99.2493ZM99.4437 89.165H97.6698V90.8903H99.4437V89.165Z" fill="white"/>
<path d="M122.739 88.1687C122.375 85.4107 124.756 86.2976 124.756 83.6611C124.756 82.2031 123.65 81.3769 122.217 81.3161C121.014 81.2554 119.568 81.9479 119.434 84.0985H120.953C121.014 83.1265 121.488 82.6648 122.168 82.6648C122.849 82.6648 123.14 83.1508 123.14 83.7826C123.14 85.3621 120.965 84.9976 121.366 88.1687H122.739ZM122.934 89.165H121.16V90.8903H122.934V89.165Z" fill="white"/>
<defs>
<linearGradient id="paint0_linear_1334_58465" x1="75.735" y1="72.9004" x2="75.735" y2="101.769" gradientUnits="userSpaceOnUse">
<stop stop-color="#9B9B9B"/>
<stop offset="1" stop-color="#434343"/>
</linearGradient>
<linearGradient id="paint1_linear_1334_58465" x1="99.225" y1="72.9004" x2="99.225" y2="101.769" gradientUnits="userSpaceOnUse">
<stop stop-color="#9B9B9B"/>
<stop offset="1" stop-color="#434343"/>
</linearGradient>
<linearGradient id="paint2_linear_1334_58465" x1="122.715" y1="72.9004" x2="122.715" y2="101.769" gradientUnits="userSpaceOnUse">
<stop stop-color="#9B9B9B"/>
<stop offset="1" stop-color="#434343"/>
</linearGradient>
</defs>
</svg>
