<svg width="24" height="24" viewBox="0 0 24 24" fill="none" xmlns="http://www.w3.org/2000/svg">
<path fill-rule="evenodd" clip-rule="evenodd" d="M8.01908 7.04465L6.05155 3.6123C5.88966 3.33033 6.12849 3 6.4938 3H17.5061C17.8719 3 18.1102 3.33033 17.9483 3.6123L15.9808 7.04461C19.5229 8.59098 22 12.138 22 16.2665C22 17.633 21.7285 18.9359 21.2367 20.1236C21.0905 20.4764 20.7379 20.6923 20.356 20.6923H3.64399C3.26208 20.6923 2.90947 20.4764 2.76334 20.1236C2.27149 18.9359 2 17.633 2 16.2665C2 12.1381 4.47707 8.59104 8.01908 7.04465ZM9.07287 12.1662C9.68736 11.104 10.8356 10.3908 12.1489 10.3908C13.5904 10.3908 14.8329 11.2498 15.3893 12.4871C15.5665 12.8812 16.0297 13.057 16.4238 12.8798C16.8179 12.7025 16.9937 12.2394 16.8164 11.8453C16.0166 10.0669 14.2285 8.826 12.1489 8.826C10.5788 8.826 9.17486 9.53322 8.23691 10.6453V10.2102C8.23691 9.77813 7.88662 9.42784 7.45452 9.42784C7.02242 9.42784 6.67213 9.77813 6.67213 10.2102V12.9486C6.67213 13.3807 7.02242 13.731 7.45452 13.731H10.1929C10.625 13.731 10.9753 13.3807 10.9753 12.9486C10.9753 12.5165 10.625 12.1662 10.1929 12.1662H9.07287ZM16.7883 18.3344C16.3562 18.3344 16.0059 17.9841 16.0059 17.552V17.1169C15.068 18.229 13.6641 18.9362 12.094 18.9362C10.0143 18.9362 8.22621 17.6954 7.42642 15.9169C7.2492 15.5228 7.425 15.0597 7.81908 14.8825C8.21317 14.7053 8.6763 14.8811 8.85353 15.2751C9.40997 16.5125 10.6525 17.3715 12.094 17.3715C13.4073 17.3715 14.5555 16.6583 15.17 15.596H14.05C13.6179 15.596 13.2676 15.2457 13.2676 14.8136C13.2676 14.3815 13.6179 14.0313 14.05 14.0313H16.7883C17.2204 14.0313 17.5707 14.3815 17.5707 14.8136V17.552C17.5707 17.9841 17.2204 18.3344 16.7883 18.3344Z" fill="black"/>
</svg>
