<svg width="24" height="24" viewBox="0 0 24 24" fill="none" xmlns="http://www.w3.org/2000/svg">
<path fill-rule="evenodd" clip-rule="evenodd" d="M11.9999 20.5714C16.7338 20.5714 20.5713 16.7339 20.5713 12C20.5713 7.26615 16.7338 3.42859 11.9999 3.42859C7.26603 3.42859 3.42847 7.26615 3.42847 12C3.42847 16.7339 7.26603 20.5714 11.9999 20.5714ZM10.1356 8.72148C9.74505 8.33096 9.11188 8.33096 8.72136 8.72148C8.33084 9.11201 8.33084 9.74517 8.72136 10.1357L10.5857 12L8.72136 13.8643C8.33084 14.2549 8.33084 14.888 8.72136 15.2786C9.11188 15.6691 9.74505 15.6691 10.1356 15.2786L11.9999 13.4142L13.8642 15.2786C14.2547 15.6691 14.8879 15.6691 15.2784 15.2786C15.669 14.888 15.669 14.2549 15.2784 13.8643L13.4141 12L15.2784 10.1357C15.669 9.74517 15.669 9.11201 15.2784 8.72148C14.8879 8.33096 14.2547 8.33096 13.8642 8.72148L11.9999 10.5858L10.1356 8.72148Z" fill="#D9D9D9"/>
</svg>
