<svg width="17" height="17" viewBox="0 0 17 17" fill="none" xmlns="http://www.w3.org/2000/svg">
<path d="M4.99629 2.27513L8.24027 8.79229C8.34677 9.00608 8.65445 9.00608 8.76095 8.79229L12.0041 2.27513C12.0996 2.08342 11.9592 1.85937 11.7438 1.85937L5.25663 1.85938C5.04126 1.85938 4.90083 2.08342 4.99629 2.27513Z" fill="#009FB1"/>
<path d="M16.4688 11.9543C16.4688 13.1747 16.1895 14.3305 15.6909 15.3616C15.6696 15.4057 15.6246 15.4334 15.5757 15.4334L1.42429 15.4334C1.37538 15.4334 1.33041 15.4057 1.30911 15.3616C0.810524 14.3297 0.53125 13.1739 0.53125 11.9543C0.53125 7.59083 4.09869 4.05338 8.5 4.05338C12.9013 4.05338 16.4688 7.59083 16.4688 11.9543Z" fill="#009FB1"/>
<path fill-rule="evenodd" clip-rule="evenodd" d="M8.43538 8.16795C7.72118 8.16795 7.08327 8.56513 6.72274 9.17936H7.06022C7.33685 9.17936 7.56111 9.40578 7.56111 9.68508C7.56111 9.96437 7.33685 10.1908 7.06022 10.1908H5.65771C5.32575 10.1908 5.05664 9.91909 5.05664 9.58393V8.16794C5.05664 7.88865 5.2809 7.66223 5.55754 7.66223C5.83417 7.66223 6.05843 7.88865 6.05843 8.16794V8.36734C6.60803 7.63469 7.46412 7.15652 8.43538 7.15652C9.65284 7.15652 10.6893 7.90783 11.1681 8.96989C11.2827 9.2241 11.1714 9.52397 10.9196 9.63965C10.6679 9.75534 10.3709 9.64305 10.2563 9.38884C9.92635 8.65694 9.22782 8.16795 8.43538 8.16795ZM8.30823 12.2136C9.02242 12.2136 9.66034 11.8164 10.0209 11.2022H9.63331C9.35667 11.2022 9.13241 10.9758 9.13241 10.6965C9.13241 10.4172 9.35667 10.1908 9.63331 10.1908H11.0358C11.3678 10.1908 11.6369 10.4625 11.6369 10.7976V12.2136C11.6369 12.4929 11.4126 12.7193 11.136 12.7193C10.8594 12.7193 10.6351 12.4929 10.6351 12.2136V12.0792C10.0843 12.775 9.25047 13.225 8.30823 13.225C7.09076 13.225 6.05426 12.4737 5.57553 11.4117C5.46094 11.1575 5.57217 10.8576 5.82396 10.7419C6.07574 10.6262 6.37275 10.7385 6.48734 10.9927C6.81725 11.7246 7.51578 12.2136 8.30823 12.2136Z" fill="white"/>
</svg>
