<svg width="200" height="37" viewBox="0 0 200 37" fill="none" xmlns="http://www.w3.org/2000/svg">
<path d="M105.887 36.5019C105.465 37.166 104.535 37.166 104.113 36.5019L99.1806 28.7375C98.7087 27.9946 99.2165 27 100.068 27L109.932 27C110.783 27 111.291 27.9946 110.819 28.7375L105.887 36.5019Z" fill="#4D4D4D"/>
<rect width="200" height="29" rx="4" fill="#4D4D4D"/>
<path d="M20.7154 13.288V11.992H19.2514V8.98H17.6674V16.972H19.2514V13.288H20.7154ZM16.9594 14.812L16.8034 13.564C15.6154 13.816 14.5114 13.9 12.5434 13.9V11.116H15.9154V9.856H10.9714V15.172H11.8954C14.3554 15.172 15.6154 15.1 16.9594 14.812ZM19.6474 18.58H13.7074V16.132H12.1234V19.84H19.6474V18.58ZM28.4492 17.668V10.024H27.0332L24.4412 12.256L25.3892 13.336L26.8532 12.004L26.8052 12.784V17.668H25.0532V19H29.9972V17.668H28.4492ZM32.3696 13.876H39.8216V9.328H38.2496V10.456H33.9416V9.328H32.3696V13.876ZM33.9416 11.644H38.2496V12.64H33.9416V11.644ZM41.1056 15.892V14.644H31.0856V15.892H35.4416V17.632H37.0256V15.892H41.1056ZM40.0016 18.58H33.8336V16.804H32.2496V19.84H40.0016V18.58ZM51.1727 20.056V8.968H49.5887V20.056H51.1727ZM45.2327 9.748C43.5647 9.748 42.3287 11.26 42.3287 13.684C42.3287 16.12 43.5647 17.644 45.2327 17.644C46.9007 17.644 48.1367 16.12 48.1367 13.684C48.1367 11.26 46.9007 9.748 45.2327 9.748ZM45.2327 11.176C46.0487 11.176 46.6127 12.04 46.6127 13.684C46.6127 15.328 46.0487 16.204 45.2327 16.204C44.4167 16.204 43.8527 15.328 43.8527 13.684C43.8527 12.04 44.4167 11.176 45.2327 11.176ZM53.3918 15.268H58.5998V14.356H60.5918V17.032H62.1758V8.98H60.5918V10.72H58.5998V9.868H53.3918V15.268ZM54.9518 11.104H57.0518V14.02H54.9518V11.104ZM58.5998 13.096V11.98H60.5918V13.096H58.5998ZM62.4158 19.84V18.58H56.4638V16.276H54.8798V19.84H62.4158ZM75.9576 20.032V8.968H74.4576V20.032H75.9576ZM73.6656 9.22H72.1896V11.896H71.1216C71.1816 11.38 71.2176 10.852 71.2176 10.288H66.9216V11.548H69.6456C69.4536 13.72 68.4696 15.292 66.2976 16.636L67.1976 17.74C69.2616 16.528 70.3656 14.98 70.8576 13.156H72.1896V14.656H70.6536V15.928H72.1896V19.552H73.6656V9.22ZM86.0966 14.656H87.5486V13.348H86.0966V8.968H84.5126V20.032H86.0966V14.656ZM77.3006 14.008L78.0686 15.244C79.3646 14.86 80.2166 14.056 80.6966 13.048C81.1886 13.96 82.0046 14.68 83.2526 15.028L83.9966 13.804C82.3646 13.324 81.5846 12.256 81.4886 11.14H83.6726V9.856H77.6966V11.14H79.8566C79.7606 12.352 78.9806 13.528 77.3006 14.008ZM81.4766 16.588V14.752H79.8806V16.636C78.9206 16.648 78.0326 16.648 77.2526 16.648L77.4326 17.932C79.2926 17.932 81.7406 17.956 84.0686 17.512L83.9366 16.372C83.1566 16.468 82.3406 16.54 81.4766 16.588ZM89.5157 10.24H95.5157V10.78H89.5397V13.42H97.2677V12.352H91.0997V11.776H97.0757V9.172H89.5157V10.24ZM98.2997 15.088V13.948H88.2917V15.088H98.2997ZM97.4117 18.868H91.0037V18.268H97.1117V15.64H89.4197V16.708H95.5397V17.272H89.4317V19.936H97.4117V18.868ZM110.462 14.368H112.07V13.06H110.462V8.98H108.878V20.056H110.462V14.368ZM103.814 16.084V11.284H107.39V10H102.23V17.404H103.178C105.098 17.404 106.61 17.332 108.278 17.044L108.122 15.736C106.694 15.976 105.386 16.072 103.814 16.084ZM121.885 20.056V8.968H120.301V20.056H121.885ZM117.013 11.44V9.832H115.429V11.44C115.429 13.6 114.517 15.712 112.585 16.552L113.533 17.86C114.889 17.236 115.753 16.072 116.245 14.572C116.737 15.928 117.565 17.02 118.861 17.596L119.761 16.312C117.889 15.508 117.013 13.492 117.013 11.44ZM136.242 14.788V13.552H132.006V12.844H134.97V9.148H133.398V9.88H129.09V9.148H127.518V12.844H130.422V13.552H126.246V14.788H136.242ZM133.398 11.68H129.09V11.032H133.398V11.68ZM135.306 18.772H128.97V18.172H135.018V15.364H127.386V16.528H133.458V17.08H127.398V19.948H135.306V18.772ZM148.8 14.176L149.4 12.904C146.904 12.556 145.62 11.128 145.62 9.832V9.304H143.928V9.832C143.928 11.128 142.68 12.556 140.148 12.904L140.748 14.176C142.68 13.888 144.06 13 144.78 11.8C145.5 13 146.868 13.888 148.8 14.176ZM145.524 16.276H149.76V14.992H139.776V16.276H143.94V20.044H145.524V16.276ZM160.866 15.232H162.462V8.98H160.866V15.232ZM156.438 14.848C158.166 14.848 159.45 13.744 159.45 12.196C159.45 10.648 158.166 9.544 156.438 9.544C154.734 9.544 153.438 10.648 153.438 12.196C153.438 13.744 154.734 14.848 156.438 14.848ZM156.438 10.864C157.302 10.864 157.902 11.368 157.902 12.196C157.902 13.024 157.302 13.528 156.438 13.528C155.574 13.528 154.986 13.024 154.986 12.196C154.986 11.368 155.574 10.864 156.438 10.864ZM161.346 16.06V15.688H159.786V16.06C159.786 16.876 159.438 17.788 158.526 18.46C157.65 17.848 157.302 16.936 157.302 16.06V15.688H155.766V16.06C155.766 17.116 155.178 18.232 153.702 18.712L154.482 19.864C155.49 19.492 156.15 18.868 156.534 18.052C156.906 18.916 157.53 19.612 158.538 19.984C159.546 19.588 160.17 18.88 160.542 18.016C160.914 18.88 161.574 19.516 162.63 19.864L163.41 18.712C161.934 18.268 161.346 17.2 161.346 16.06ZM173.477 20.056V8.968H171.893V12.952H170.045C169.817 10.972 168.713 9.748 167.225 9.748C165.581 9.748 164.369 11.26 164.369 13.684C164.369 16.12 165.581 17.644 167.225 17.644C168.761 17.644 169.901 16.348 170.057 14.236H171.893V20.056H173.477ZM167.225 16.204C166.409 16.204 165.881 15.328 165.881 13.684C165.881 12.04 166.409 11.176 167.225 11.176C168.041 11.176 168.581 12.04 168.581 13.684C168.581 15.328 168.041 16.204 167.225 16.204ZM185.128 18.748V17.464H182.908V14.764C183.736 14.248 184.24 13.456 184.24 12.496C184.24 10.684 182.5 9.52 180.112 9.52C177.748 9.52 175.996 10.684 175.996 12.496C175.984 13.456 176.464 14.248 177.328 14.764V17.464H175.12V18.748H185.128ZM180.112 10.768C181.648 10.768 182.68 11.392 182.68 12.496C182.68 13.6 181.648 14.224 180.112 14.224C178.576 14.224 177.556 13.6 177.556 12.496C177.556 11.392 178.576 10.768 180.112 10.768ZM181.336 17.464H178.9V15.352C179.284 15.424 179.692 15.46 180.112 15.46C180.544 15.46 180.952 15.424 181.336 15.352V17.464ZM187.167 16.456H188.319L188.571 11.548L188.631 9.88H186.855L186.915 11.548L187.167 16.456ZM186.879 19.168H188.631V17.464H186.879V19.168Z" fill="white"/>
</svg>
