<svg width="16" height="16" viewBox="0 0 16 16" fill="none" xmlns="http://www.w3.org/2000/svg">
<path fill-rule="evenodd" clip-rule="evenodd" d="M11.1384 4.54056C11.5475 4.94969 11.5475 5.613 11.1384 6.02212L8.74734 8.41314C8.5948 8.56568 8.39038 8.65518 8.17487 8.6638C7.93565 8.67337 7.70267 8.58199 7.53329 8.41261L7.3998 8.27912C7.13945 8.01877 6.71734 8.01877 6.45699 8.27912C6.19664 8.53947 6.19694 8.96188 6.45729 9.22223L6.59095 9.35589C7.02338 9.78832 7.61699 10.0205 8.22817 9.99607C8.77864 9.97405 9.30063 9.74547 9.69015 9.35595L12.0812 6.96493C13.011 6.03511 13.011 4.52758 12.0812 3.59776C11.1513 2.66794 9.64381 2.66794 8.71399 3.59776L7.87121 4.44054C7.61086 4.70089 7.61086 5.123 7.87121 5.38335C8.13156 5.6437 8.55367 5.6437 8.81402 5.38335L9.6568 4.54056C10.0659 4.13144 10.7292 4.13144 11.1384 4.54056ZM4.54252 11.1362C4.1334 10.7271 4.1334 10.0638 4.54252 9.65466L6.93353 7.26365C7.08607 7.1111 7.29049 7.0216 7.506 7.01298C7.74523 7.00341 7.9782 7.09479 8.14758 7.26417L8.28107 7.39766C8.54142 7.65801 8.96353 7.65801 9.22388 7.39766C9.48423 7.13731 9.48394 6.71491 9.22359 6.45456L9.08992 6.32089C8.65749 5.88846 8.06389 5.65627 7.45271 5.68071C6.90224 5.70273 6.38024 5.93132 5.99072 6.32084L3.59971 8.71185C2.66989 9.64167 2.66989 11.1492 3.59971 12.079C4.52953 13.0088 6.03706 13.0088 6.96688 12.079L7.80967 11.2362C8.07002 10.9759 8.07002 10.5538 7.80967 10.2934C7.54932 10.0331 7.12721 10.0331 6.86686 10.2934L6.02407 11.1362C5.61495 11.5453 4.95164 11.5453 4.54252 11.1362Z" fill="#A3ABC0"/>
</svg>
