<svg width="28" height="28" viewBox="0 0 28 28" fill="none" xmlns="http://www.w3.org/2000/svg">
<path fill-rule="evenodd" clip-rule="evenodd" d="M14 24C19.5228 24 24 19.5228 24 14C24 8.47715 19.5228 4 14 4C8.47715 4 4 8.47715 4 14C4 19.5228 8.47715 24 14 24ZM17.8029 11.5962C18.1321 11.1527 18.0395 10.5264 17.5961 10.1972C17.1527 9.86794 16.5263 9.96053 16.1971 10.404L12.4306 15.4772L10.7044 13.764C10.3124 13.3749 9.67928 13.3773 9.29023 13.7693C8.90118 14.1613 8.90357 14.7945 9.29557 15.1835L11.7509 17.6204C12.2307 18.0966 13.0211 18.037 13.4241 17.4942L17.8029 11.5962Z" fill="#6F778B"/>
</svg>
