<svg width="286" height="42" viewBox="0 0 286 42" fill="none" xmlns="http://www.w3.org/2000/svg">
<path d="M143.887 41.5019C143.465 42.166 142.535 42.166 142.113 41.5019L137.181 33.7375C136.709 32.9946 137.217 32 138.068 32L147.932 32C148.783 32 149.291 32.9946 148.819 33.7375L143.887 41.5019Z" fill="#333333"/>
<rect x="81" width="125" height="34" rx="4" fill="#333333"/>
<path d="M102.17 15.288V13.992H100.706V10.98H99.1221V18.972H100.706V15.288H102.17ZM98.4141 16.812L98.2581 15.564C97.0701 15.816 95.9661 15.9 93.9981 15.9V13.116H97.3701V11.856H92.4261V17.172H93.3501C95.8101 17.172 97.0701 17.1 98.4141 16.812ZM101.102 20.58H95.1621V18.132H93.5781V21.84H101.102V20.58ZM132.627 22.056V10.968H131.043V22.056H132.627ZM126.687 11.748C125.019 11.748 123.783 13.26 123.783 15.684C123.783 18.12 125.019 19.644 126.687 19.644C128.355 19.644 129.591 18.12 129.591 15.684C129.591 13.26 128.355 11.748 126.687 11.748ZM126.687 13.176C127.503 13.176 128.067 14.04 128.067 15.684C128.067 17.328 127.503 18.204 126.687 18.204C125.871 18.204 125.307 17.328 125.307 15.684C125.307 14.04 125.871 13.176 126.687 13.176ZM134.846 17.268H140.054V16.356H142.046V19.032H143.63V10.98H142.046V12.72H140.054V11.868H134.846V17.268ZM136.406 13.104H138.506V16.02H136.406V13.104ZM140.054 15.096V13.98H142.046V15.096H140.054ZM143.87 21.84V20.58H137.918V18.276H136.334V21.84H143.87ZM148.328 14.76L148.796 15.936C150.872 15.792 152.18 15.228 152.9 14.352C153.584 15.228 154.868 15.792 156.992 15.936L157.46 14.76C155.144 14.628 154.052 13.944 153.824 13.212H156.932V11.976H153.68V11.004H152.096V11.976H148.856V13.212H151.964C151.712 13.944 150.668 14.628 148.328 14.76ZM153.68 18.312V17.532H157.892V16.296H147.908V17.532H152.096V18.312C150.164 18.456 149.048 19.092 149.048 20.16C149.048 21.372 150.368 22.032 152.876 22.032C155.288 22.032 156.716 21.372 156.716 20.16C156.716 19.092 155.612 18.456 153.68 18.312ZM155.108 20.16C155.108 20.628 154.364 20.868 152.876 20.868C151.388 20.868 150.644 20.628 150.644 20.16C150.644 19.644 151.376 19.452 152.876 19.452C154.376 19.452 155.108 19.644 155.108 20.16ZM160.099 15.876H167.551V11.328H165.979V12.456H161.671V11.328H160.099V15.876ZM161.671 13.644H165.979V14.64H161.671V13.644ZM168.835 17.892V16.644H158.815V17.892H163.171V19.632H164.755V17.892H168.835ZM167.731 20.58H161.563V18.804H159.979V21.84H167.731V20.58ZM179.226 22.02V10.968H177.726V15.48H176.886V11.184H175.41V21.564H176.886V16.752H177.726V22.02H179.226ZM175.014 12.648H173.178V11.28H171.618V12.648H169.734V13.908H175.014V12.648ZM172.398 14.388C170.994 14.388 169.974 15.48 169.974 17.028C169.974 18.564 170.994 19.656 172.398 19.656C173.802 19.656 174.822 18.564 174.822 17.028C174.822 15.48 173.802 14.388 172.398 14.388ZM172.398 18.336C171.786 18.336 171.366 17.856 171.366 17.028C171.366 16.2 171.786 15.708 172.398 15.708C173.01 15.708 173.43 16.2 173.43 17.028C173.43 17.856 173.01 18.336 172.398 18.336ZM190.673 20.748V19.464H188.453V16.764C189.281 16.248 189.785 15.456 189.785 14.496C189.785 12.684 188.045 11.52 185.657 11.52C183.293 11.52 181.541 12.684 181.541 14.496C181.529 15.456 182.009 16.248 182.873 16.764V19.464H180.665V20.748H190.673ZM185.657 12.768C187.193 12.768 188.225 13.392 188.225 14.496C188.225 15.6 187.193 16.224 185.657 16.224C184.121 16.224 183.101 15.6 183.101 14.496C183.101 13.392 184.121 12.768 185.657 12.768ZM186.881 19.464H184.445V17.352C184.829 17.424 185.237 17.46 185.657 17.46C186.089 17.46 186.497 17.424 186.881 17.352V19.464ZM192.713 18.456H193.865L194.117 13.548L194.177 11.88H192.401L192.461 13.548L192.713 18.456ZM192.425 21.168H194.177V19.464H192.425V21.168Z" fill="white"/>
<path d="M109.904 19.668V12.024H108.488L105.896 14.256L106.844 15.336L108.308 14.004L108.26 14.784V19.668H106.508V21H111.452V19.668H109.904ZM113.824 15.876H121.276V11.328H119.704V12.456H115.396V11.328H113.824V15.876ZM115.396 13.644H119.704V14.64H115.396V13.644ZM122.56 17.892V16.644H112.54V17.892H116.896V19.632H118.48V17.892H122.56ZM121.456 20.58H115.288V18.804H113.704V21.84H121.456V20.58Z" fill="#DCFF91"/>
</svg>
