<svg width="100" height="100" viewBox="0 0 100 100" fill="none" xmlns="http://www.w3.org/2000/svg">
<rect width="100" height="100" fill="#F5F7F9"/>
<path d="M23 43H27.9662C28.7365 43 29.4527 43.0608 30.1149 43.1824C30.777 43.3041 31.3514 43.5068 31.8378 43.7905C32.3243 44.0743 32.7027 44.4527 32.973 44.9257C33.2568 45.3986 33.3986 45.9865 33.3986 46.6892C33.3986 47.0405 33.3514 47.3851 33.2568 47.723C33.1622 48.0608 33.027 48.3784 32.8514 48.6757C32.6757 48.9595 32.4595 49.2162 32.2027 49.4459C31.9595 49.6622 31.6757 49.8243 31.3514 49.9324V50.0338C32.1622 50.223 32.8311 50.6081 33.3581 51.1892C33.8986 51.7703 34.1689 52.5676 34.1689 53.5811C34.1689 54.3378 34.0203 54.9932 33.723 55.5473C33.4257 56.1014 33.0135 56.5608 32.4865 56.9257C31.973 57.2905 31.3581 57.5608 30.6419 57.7365C29.9392 57.9122 29.1757 58 28.3514 58H23V43ZM27.7432 49.1014C28.7027 49.1014 29.3986 48.9257 29.8311 48.5743C30.2635 48.223 30.4797 47.7432 30.4797 47.1351C30.4797 46.473 30.2568 46 29.8108 45.7162C29.3649 45.4324 28.6892 45.2905 27.7838 45.2905H26V49.1014H27.7432ZM28.0878 55.6892C29.1149 55.6892 29.8986 55.5068 30.4392 55.1419C30.9797 54.7635 31.25 54.1824 31.25 53.3986C31.25 52.6689 30.9797 52.1419 30.4392 51.8176C29.9122 51.4932 29.1284 51.3311 28.0878 51.3311H26V55.6892H28.0878Z" fill="#3B5768"/>
<path d="M42.9981 51.8176L42.5522 50.1757C42.3224 49.3919 42.0995 48.5811 41.8832 47.7432C41.6805 46.9054 41.4643 46.0811 41.2346 45.2703H41.1535C40.9643 46.0946 40.7616 46.9257 40.5454 47.7635C40.3292 48.5878 40.1062 49.3919 39.8765 50.1757L39.4305 51.8176H42.9981ZM43.6468 54.1486H38.7819L37.7278 58H34.6873L39.4913 43H43.0184L47.8427 58H44.7008L43.6468 54.1486Z" fill="#3B5768"/>
<path d="M49.4143 43H52.4751L56.8333 50.9865L58.3333 54.2297H58.4346C58.3535 53.4459 58.2657 52.5878 58.1711 51.6554C58.09 50.723 58.0495 49.8311 58.0495 48.9797V43H60.8873V58H57.8468L53.5089 49.973L51.9887 46.75H51.8873C51.9549 47.5608 52.0292 48.4189 52.1103 49.3243C52.2049 50.2297 52.2522 51.1149 52.2522 51.9797V58H49.4143V43Z" fill="#3B5768"/>
<path d="M64.413 43H67.413V49.5068H67.4738L72.44 43H75.744L71.163 48.8986L76.5549 58H73.2508L69.3792 51.2703L67.413 53.7838V58H64.413V43Z" fill="#3B5768"/>
</svg>
