<svg width="22" height="34" viewBox="0 0 22 34" fill="none" xmlns="http://www.w3.org/2000/svg">
<rect width="22" height="34" rx="4" fill="#F5F7F9"/>
<path fill-rule="evenodd" clip-rule="evenodd" d="M11 27C16.5228 27 21 22.5228 21 17C21 11.4772 16.5228 7 11 7C5.47715 7 1 11.4772 1 17C1 22.5228 5.47715 27 11 27Z" fill="#F5F7F9"/>
<path d="M5.95388 19.2C6.48435 19.2 6.91091 19.0031 7.24451 18.6039L6.81794 18.1008C6.59919 18.3359 6.33123 18.5 5.98123 18.5C5.34138 18.5 4.92576 17.9695 4.92576 17.0891C4.92576 16.2195 5.38513 15.6945 5.99763 15.6945C6.30388 15.6945 6.53904 15.8367 6.74138 16.0336L7.16794 15.5195C6.90544 15.2406 6.50623 15 5.98123 15C4.95857 15 4.09998 15.782 4.09998 17.1164C4.09998 18.4672 4.92576 19.2 5.95388 19.2Z" fill="#3B5768"/>
<path d="M9.96918 19.1234H10.8168L9.51528 15.0766H8.56371L7.26762 19.1234H8.08793L8.37231 18.0844H9.68481L9.96918 19.1234ZM8.54731 17.4555L8.66762 17.0125C8.7934 16.5914 8.90825 16.132 9.01215 15.6891H9.03403C9.15981 16.1266 9.26371 16.5914 9.3895 17.0125L9.50981 17.4555H8.54731Z" fill="#3B5768"/>
<path d="M14.2874 19.1234L13.3414 17.4664C13.8062 17.2859 14.1124 16.9195 14.1124 16.3016C14.1124 15.3664 13.4453 15.0766 12.5921 15.0766H11.1812V19.1234H11.9906V17.5922H12.5539L13.3851 19.1234H14.2874ZM11.9906 15.7164H12.5156C13.0406 15.7164 13.3195 15.8641 13.3195 16.3016C13.3195 16.7391 13.0406 16.9523 12.5156 16.9523H11.9906V15.7164Z" fill="#3B5768"/>
<path d="M14.7995 19.1234H15.9534C17.1456 19.1234 17.9113 18.4398 17.9113 17.0836C17.9113 15.7109 17.1456 15.0766 15.9097 15.0766H14.7995V19.1234ZM15.6089 18.4727V15.7219H15.8605C16.6206 15.7219 17.0855 16.0938 17.0855 17.0836C17.0855 18.068 16.6206 18.4727 15.8605 18.4727H15.6089Z" fill="#3B5768"/>
</svg>
