<svg width="336" height="328" viewBox="0 0 336 328" fill="none" xmlns="http://www.w3.org/2000/svg">
<g filter="url(#filter0_d_5783_295417)">
<rect x="12.5" y="10.5" width="311" height="303" rx="9.5" fill="white" stroke="#E4E4E4"/>
<rect x="261" y="20" width="53" height="22" rx="8" fill="#E4E4E4"/>
<path d="M277.22 26.74H276.24V35.76H277.22V26.74ZM274.45 26.91V28.83H273.2C272.89 27.94 272.3 27.44 271.54 27.44C270.38 27.44 269.6 28.65 269.6 30.65C269.6 32.63 270.38 33.85 271.54 33.85C272.3 33.85 272.89 33.33 273.21 32.45H274.45V35.34H275.41V26.91H274.45ZM271.54 32.88C270.9 32.88 270.53 32.1 270.53 30.65C270.53 29.2 270.9 28.41 271.54 28.41C272.18 28.41 272.55 29.2 272.55 30.65C272.55 32.1 272.18 32.88 271.54 32.88ZM274.45 31.61H273.41C273.46 31.3 273.48 31 273.48 30.65C273.48 30.3 273.46 29.99 273.41 29.68H274.45V31.61ZM286.039 26.73H284.999V35.79H286.039V26.73ZM281.939 28.97V27.49H280.909V28.97C280.909 30.7 279.969 32.45 278.529 33.09L279.139 33.95C280.229 33.42 281.029 32.37 281.439 31.04C281.849 32.29 282.639 33.26 283.679 33.75L284.279 32.93C282.859 32.29 281.939 30.64 281.939 28.97ZM296.058 31.36V30.51H294.768V26.73H293.738V35.77H294.768V31.36H296.058ZM293.128 28.61V27.78H290.968V26.76H289.938V27.78H287.758V28.61H293.128ZM290.968 33.23V32.39C291.968 32.23 292.618 31.63 292.618 30.75C292.618 29.73 291.748 29.06 290.458 29.06C289.178 29.06 288.288 29.73 288.288 30.75C288.288 31.63 288.938 32.22 289.938 32.39V33.27C289.098 33.3 288.288 33.3 287.598 33.3L287.738 34.15C289.278 34.15 291.378 34.14 293.308 33.79L293.228 33.03C292.508 33.14 291.738 33.19 290.968 33.23ZM289.258 30.75C289.258 30.19 289.738 29.85 290.458 29.85C291.178 29.85 291.648 30.19 291.648 30.75C291.648 31.31 291.178 31.64 290.458 31.64C289.738 31.64 289.258 31.31 289.258 30.75ZM301.378 31.81V31.02H303.258V33.33H304.288V26.74H303.258V28.25H301.378V27.49H297.198V31.81H301.378ZM300.378 28.31V30.99H298.208V28.31H300.378ZM301.378 29.09H303.258V30.19H301.378V29.09ZM304.498 34.76H299.448V32.73H298.408V35.6H304.498V34.76Z" fill="#4D4D4D"/>
<path d="M41.87 83.492V96.036H43.018V83.492H41.87ZM37.222 85.718H40.176V84.766H33.162V85.718H36.074V87.314C36.074 89.484 34.548 91.836 32.742 92.704L33.414 93.628C34.814 92.928 36.088 91.304 36.648 89.484C37.25 91.206 38.482 92.648 39.938 93.32L40.582 92.396C38.734 91.612 37.222 89.442 37.222 87.314V85.718ZM55.2249 87.216V83.492H54.0769V92.564H55.2249V88.182H57.0869V87.216H55.2249ZM52.8169 88.784C50.7869 89.19 49.0369 89.316 47.2309 89.33V84.402H46.0969V90.296H47.0769C48.9949 90.296 50.8009 90.17 52.9429 89.736L52.8169 88.784ZM48.6029 91.682H47.4549V95.756H55.6729V94.818H48.6029V91.682ZM67.9638 86.124V83.478H66.8158V89.792H67.9638V87.062H69.8258V86.124H67.9638ZM65.4858 87.972C63.8058 88.308 62.3498 88.406 59.9138 88.406V85.13H64.3238V84.206H58.7798V89.33H59.7458C62.3358 89.33 63.8618 89.26 65.6258 88.882L65.4858 87.972ZM61.1458 93.53H67.9638V90.436H59.9838V91.346H66.8298V92.662H60.0258V95.868H68.4258V94.944H61.1458V93.53ZM80.2076 93.488V90.786H83.9596V84.374H82.8396V86.614H76.4276V84.374H75.2936V90.786H79.0456V93.488H73.9496V94.426H85.3316V93.488H80.2076ZM76.4276 87.552H82.8396V89.862H76.4276V87.552ZM98.4205 88.434H96.3485V83.478H95.2005V96.064H96.3485V89.386H98.4205V88.434ZM88.3685 85.634H93.0585V84.682H87.2205V92.928H88.2145C90.5665 92.928 92.2465 92.858 94.1505 92.48L94.0245 91.528C92.2185 91.864 90.6085 91.948 88.3685 91.948V85.634ZM105.736 84.528L102.712 87.132L103.818 88.392L105.526 86.838L105.47 87.748V93.446H103.426V95H109.194V93.446H107.388V84.528H105.736ZM112.83 93.208H110.786V95.196H112.83V93.208ZM120.97 84.528H115.678C115.524 85.424 115.244 87.076 114.81 89.764L115.986 90.114C116.49 89.932 116.994 89.834 117.512 89.792C118.8 89.75 119.458 90.436 119.458 91.556C119.458 92.788 118.772 93.586 117.484 93.586C116.588 93.586 115.86 93.11 115.202 92.564L114.222 93.992C114.936 94.664 116.084 95.252 117.372 95.252C119.626 95.252 121.334 93.726 121.334 91.472C121.334 89.624 120.13 88.196 117.89 88.196C117.512 88.196 117.12 88.224 116.686 88.294L117.036 86.25H120.97V84.528ZM122.323 87.16C122.323 88.784 123.359 89.638 124.829 89.638C126.285 89.638 127.391 88.756 127.391 87.118V86.936C127.391 85.326 126.285 84.5 124.829 84.5C123.359 84.5 122.323 85.41 122.323 87.034V87.16ZM123.737 95H125.459L132.179 84.57H130.527L123.737 95ZM125.823 87.146C125.823 88.154 125.543 88.532 124.829 88.532C124.115 88.532 123.807 88.154 123.807 87.146L123.821 86.908C123.821 85.956 124.185 85.578 124.871 85.578C125.501 85.578 125.837 85.956 125.837 86.964L125.823 87.146ZM128.819 92.326C128.819 93.95 129.841 94.79 131.311 94.79C132.753 94.79 133.859 93.908 133.859 92.284V92.102C133.859 90.492 132.753 89.68 131.311 89.68C129.841 89.68 128.819 90.562 128.819 92.2V92.326ZM132.305 92.312C132.305 93.32 132.025 93.684 131.311 93.684C130.597 93.684 130.289 93.32 130.289 92.312L130.303 92.074C130.303 91.122 130.667 90.758 131.353 90.758C131.983 90.758 132.319 91.122 132.319 92.13L132.305 92.312ZM135.349 98.01H137.393V95.63L137.337 94.342C137.939 94.888 138.597 95.196 139.283 95.196C141.005 95.196 142.615 93.642 142.615 90.954C142.615 88.546 141.467 86.964 139.535 86.964C138.695 86.964 137.883 87.412 137.225 87.972H137.169L137.029 87.16H135.349V98.01ZM138.821 93.502C138.387 93.502 137.897 93.348 137.393 92.914V89.47C137.939 88.924 138.401 88.658 138.947 88.658C140.025 88.658 140.501 89.47 140.501 90.982C140.501 92.718 139.773 93.502 138.821 93.502ZM153.09 88.924V87.972C155.554 87.874 156.926 87.146 156.926 85.802C156.926 84.388 155.33 83.618 152.516 83.618C149.758 83.618 148.106 84.388 148.106 85.802C148.106 87.104 149.464 87.874 151.942 87.972V88.924H146.846V89.848H158.186V88.924H153.09ZM149.282 85.802C149.282 84.962 150.43 84.486 152.516 84.486C154.602 84.486 155.75 84.962 155.75 85.802C155.75 86.642 154.602 87.118 152.516 87.118C150.43 87.118 149.282 86.642 149.282 85.802ZM149.366 93.74H156.744V90.898H148.204V91.766H155.61V92.886H148.246V95.896H157.122V95H149.366V93.74ZM169.329 86.572V83.492H168.181V90.828H169.329V87.524H171.191V86.572H169.329ZM164.625 86.656H160.131V90.184H161.125C163.701 90.184 165.269 90.114 167.089 89.778L166.977 88.826C165.213 89.162 163.729 89.246 161.265 89.246V87.538H165.759V84.122H160.103V85.06H164.625V86.656ZM168.349 91.318H167.229V91.864C167.229 92.844 166.655 94.118 165.451 94.874C164.275 94.188 163.701 92.998 163.701 91.864V91.318H162.595V91.864C162.595 93.082 161.685 94.44 160.075 95.042L160.663 95.882C161.839 95.448 162.693 94.552 163.141 93.53C163.519 94.594 164.247 95.504 165.479 95.994C166.655 95.49 167.397 94.552 167.775 93.488C168.209 94.552 169.063 95.434 170.295 95.882L170.869 95.042C169.259 94.482 168.349 93.18 168.349 91.864V91.318ZM181.522 83.478V88.266H178.792C178.61 85.914 177.378 84.444 175.684 84.444C173.85 84.444 172.548 86.152 172.548 88.826C172.548 91.5 173.85 93.208 175.684 93.208C177.434 93.208 178.68 91.668 178.792 89.204H181.522V96.064H182.67V83.478H181.522ZM175.684 92.186C174.48 92.186 173.64 90.87 173.64 88.826C173.64 86.796 174.48 85.48 175.684 85.48C176.874 85.48 177.714 86.796 177.714 88.826C177.714 90.87 176.874 92.186 175.684 92.186ZM193.645 93.474V90.072C194.709 89.526 195.297 88.63 195.297 87.496C195.297 85.55 193.407 84.276 190.733 84.276C188.073 84.276 186.169 85.55 186.169 87.496C186.169 88.63 186.785 89.54 187.849 90.086V93.474H185.049V94.426H196.459V93.474H193.645ZM190.733 85.172C192.749 85.172 194.205 86.096 194.205 87.496C194.205 88.896 192.749 89.82 190.733 89.82C188.717 89.82 187.275 88.896 187.275 87.496C187.275 86.096 188.717 85.172 190.733 85.172ZM188.997 90.52C189.543 90.646 190.117 90.716 190.733 90.716C191.307 90.716 191.895 90.646 192.497 90.52V93.474H188.997V90.52ZM197.647 95.196H198.921V93.88H197.647V95.196Z" fill="black"/>
<path d="M101.676 97.1H143.119V97.8H101.676V97.1Z" fill="black"/>
<path d="M44.288 60V56.64H42.176V64.768H44.288V61.728H46.24V60H44.288ZM33.312 57.472V59.152H37.92C37.664 61.008 35.984 62.544 32.608 63.312L33.376 64.992C37.872 63.904 40.256 61.456 40.256 57.472H33.312ZM44.48 67.056V65.408H34.624V67.056H38.384C38.176 68.208 36.768 69.424 34 69.728L34.736 71.328C37.12 71.008 38.72 70.096 39.552 68.864C40.384 70.144 41.968 71.056 44.352 71.36L45.104 69.76C42.352 69.424 40.96 68.192 40.704 67.056H44.48ZM58.5588 66.368C59.1508 63.248 59.1508 61.152 59.1508 59.312V57.904H48.4468V59.584H57.0388C57.0388 61.296 57.0068 63.36 56.4468 66.128L58.5588 66.368ZM53.9188 67.904V62.832H51.8068V67.904H47.1028V69.6H60.4308V67.904H53.9188ZM75.4625 56.624V71.376H77.4625V56.624H75.4625ZM72.4385 60.528H71.0145C71.0945 59.84 71.1425 59.136 71.1425 58.384H65.4145V60.064H69.0465C68.7905 62.96 67.4785 65.056 64.5825 66.848L65.7825 68.32C68.5345 66.704 70.0065 64.64 70.6625 62.208H72.4385V64.208H70.3905V65.904H72.4385V70.736H74.4065V56.96H72.4385V60.528ZM91.4293 56.656H89.3013V67.392H91.4293V56.656ZM88.2133 63.488C85.8293 62.72 84.7893 60.832 84.7893 58.896V57.456H82.6453V58.896C82.6453 60.816 81.5893 62.928 79.1413 63.744L80.2133 65.424C81.9413 64.832 83.0613 63.632 83.7493 62.144C84.3893 63.552 85.4773 64.608 87.1413 65.168L88.2133 63.488ZM83.7333 69.44V66.368H81.6213V71.12H91.7973V69.44H83.7333ZM107.533 56.624V62.304H106.205V56.912H104.237V70.688H106.205V64H107.533V71.376H109.533V56.624H107.533ZM99.389 60.048H102.765V58.336H97.309V68.064H98.333C100.205 68.064 101.789 68 103.581 67.664L103.421 65.952C102.013 66.208 100.797 66.272 99.389 66.32V60.048ZM112.412 62.528C115.292 62.384 117.02 61.712 117.932 60.624C118.892 61.712 120.62 62.384 123.452 62.528L124.044 60.976C121.084 60.848 119.66 60.144 119.228 59.312H123.324V57.792H118.988V56.624H116.876V57.792H112.572V59.312H116.636C116.236 60.144 114.796 60.848 111.836 60.976L112.412 62.528ZM124.588 64.448V62.896H111.324V64.448H116.892V65.328H112.812V66.848H120.908V67.552H112.828V71.264H123.372V69.744H114.924V68.976H122.988V65.328H119.004V64.448H124.588ZM135.867 56.624V71.408H137.979V56.624H135.867ZM130.427 57.616C128.123 57.616 126.379 59.136 126.379 61.248C126.379 63.36 128.123 64.88 130.427 64.88C132.731 64.88 134.491 63.36 134.491 61.248C134.491 59.136 132.731 57.616 130.427 57.616ZM130.427 59.424C131.579 59.424 132.427 60.096 132.427 61.248C132.427 62.4 131.579 63.072 130.427 63.072C129.275 63.072 128.427 62.4 128.427 61.248C128.427 60.096 129.275 59.424 130.427 59.424ZM126.027 68.416C128.571 68.416 132.027 68.384 135.195 67.744L135.067 66.224C131.963 66.688 128.347 66.704 125.755 66.704L126.027 68.416ZM185.792 62.256H183.728V56.624H181.616V71.344H183.728V64H185.792V62.256ZM172.864 58.144V59.856H177.68C177.296 63.136 175.488 65.44 172.048 67.216L173.232 68.832C178.144 66.352 179.808 62.576 179.808 58.144H172.864ZM197.576 62.624V61.76C200.456 61.584 201.896 60.752 201.896 59.28C201.896 57.664 200.056 56.768 196.552 56.768C193.08 56.768 191.224 57.664 191.224 59.28C191.224 60.736 192.632 61.568 195.464 61.76V62.624H189.896V64.272H203.208V62.624H197.576ZM193.416 59.28C193.416 58.624 194.424 58.32 196.552 58.32C198.744 58.32 199.704 58.624 199.704 59.28C199.704 59.968 198.744 60.256 196.552 60.256C194.424 60.256 193.416 59.968 193.416 59.28ZM193.528 68.848H201.592V65.056H191.416V66.624H199.512V67.392H191.432V71.264H201.976V69.68H193.528V68.848ZM215.894 59.952V56.64H213.782V65.152H215.894V61.696H217.846V59.952H215.894ZM209.446 60.176H204.822V64.672H206.086C209.142 64.672 210.982 64.592 212.95 64.208L212.774 62.528C210.982 62.864 209.398 62.976 206.918 62.976V61.744H211.526V57.312H204.806V58.992H209.446V60.176ZM214.854 65.68H212.774V66.016C212.774 67.104 212.294 68.448 211.094 69.296C209.926 68.48 209.462 67.232 209.462 66.016V65.68H207.414V66.016C207.414 67.472 206.614 68.976 204.694 69.664L205.734 71.184C207.078 70.688 207.926 69.824 208.438 68.72C208.934 69.872 209.75 70.832 211.11 71.328C212.454 70.8 213.286 69.824 213.782 68.672C214.278 69.824 215.126 70.688 216.534 71.184L217.574 69.664C215.638 69.024 214.854 67.6 214.854 66.016V65.68ZM228.949 56.624V61.936H226.485C226.181 59.296 224.709 57.664 222.725 57.664C220.533 57.664 218.917 59.68 218.917 62.912C218.917 66.16 220.533 68.192 222.725 68.192C224.773 68.192 226.293 66.464 226.501 63.648H228.949V71.408H231.061V56.624H228.949ZM222.725 66.272C221.637 66.272 220.933 65.104 220.933 62.912C220.933 60.72 221.637 59.568 222.725 59.568C223.813 59.568 224.533 60.72 224.533 62.912C224.533 65.104 223.813 66.272 222.725 66.272ZM243.476 67.952V64.352C244.58 63.664 245.252 62.608 245.252 61.328C245.252 58.912 242.932 57.36 239.748 57.36C236.596 57.36 234.26 58.912 234.26 61.328C234.244 62.608 234.884 63.664 236.036 64.352V67.952H233.092V69.664H246.436V67.952H243.476ZM239.748 59.024C241.796 59.024 243.172 59.856 243.172 61.328C243.172 62.8 241.796 63.632 239.748 63.632C237.7 63.632 236.34 62.8 236.34 61.328C236.34 59.856 237.7 59.024 239.748 59.024ZM238.132 65.136C238.644 65.232 239.188 65.28 239.748 65.28C240.324 65.28 240.868 65.232 241.38 65.136V67.952H238.132V65.136Z" fill="black"/>
<path d="M154.834 62.608C155.17 60.896 155.17 59.68 155.17 58.48V57.296H145.042V58.976H153.09C153.09 60 153.042 61.136 152.738 62.608H143.394V64.288H156.738V62.608H154.834ZM144.962 71.2H155.106V65.824H144.962V71.2ZM147.042 67.472H153.042V69.552H147.042V67.472ZM167.937 56.624V71.408H170.049V56.624H167.937ZM160.737 63.584H165.521V57.888H158.561V59.568H163.361V61.92H158.577V67.984H159.905C162.593 67.984 164.705 67.904 167.137 67.472L166.913 65.76C164.849 66.096 162.977 66.24 160.737 66.24V63.584Z" fill="#4F63D2"/>
<rect x="32" y="113" width="272" height="112" rx="10" fill="#F5F6FA"/>
<rect x="32" y="242" width="272" height="46" rx="23" fill="#F5F5F5"/>
<path d="M144.608 262.3H142.914V264.75H141.066V258.31H142.914V260.788H144.608V262.3ZM139.722 261.6C139.722 263.322 138.266 264.54 136.292 264.54C134.332 264.54 132.862 263.322 132.862 261.6C132.862 259.906 134.332 258.674 136.292 258.674C138.266 258.674 139.722 259.906 139.722 261.6ZM134.64 261.6C134.64 262.51 135.326 263.056 136.292 263.056C137.258 263.056 137.944 262.51 137.944 261.6C137.944 260.704 137.258 260.158 136.292 260.158C135.326 260.158 134.64 260.704 134.64 261.6ZM143.278 269.622V271.05H134.416V267.452H141.094V266.682H134.402V265.254H142.914V268.782H136.25V269.622H143.278ZM156.213 265.954H154.351V258.324H156.213V265.954ZM153.497 265.17C151.579 265.464 149.871 265.534 147.295 265.534H146.161V261.558H150.263V260.522H146.147V259.038H152.083V262.93H147.981V264.05C150.109 264.05 151.607 263.966 153.287 263.7L153.497 265.17ZM156.213 266.528V271.05H147.631V266.528H156.213ZM154.407 269.608V267.984H149.451V269.608H154.407ZM173.132 262.762H171.424V265.828H169.576V258.31H171.424V261.236H173.132V262.762ZM161.652 265.198V259.066H163.472V260.69H166.006V259.066H167.826V265.198H161.652ZM163.472 262.104V263.756H166.006V262.104H163.472ZM171.746 269.58V271.05H163.052V266.388H171.508V267.858H164.886V269.58H171.746ZM175.455 263.266V258.772H177.303V261.796H184.401V263.266H175.455ZM185.689 266.066H174.013V264.582H185.689V266.066ZM184.471 269.454V270.938H175.329V267.088H177.191V269.454H184.471ZM190.287 262.23C192.681 262.006 193.927 261.194 194.263 260.312H190.847V258.842H200.381V260.312H196.951C197.287 261.194 198.533 262.006 200.941 262.23L200.297 263.658C197.875 263.448 196.293 262.538 195.607 261.32C194.921 262.552 193.381 263.448 190.903 263.658L190.287 262.23ZM196.531 266.584C198.785 266.766 200.059 267.536 200.059 268.88C200.059 270.378 198.365 271.218 195.579 271.218C192.793 271.218 191.113 270.378 191.113 268.88C191.113 267.536 192.429 266.752 194.683 266.57V265.632H189.783V264.162H201.431V265.632H196.531V266.584ZM198.183 268.88C198.183 268.222 197.329 267.942 195.579 267.942C193.829 267.942 192.975 268.222 192.975 268.88C192.975 269.538 193.829 269.804 195.579 269.804C197.329 269.804 198.183 269.538 198.183 268.88Z" fill="#B3B3B3"/>
<path d="M106 169C106 165.686 108.686 163 112 163H134C137.314 163 140 165.686 140 169V178C140 181.314 137.314 184 134 184H112C108.686 184 106 181.314 106 178V169Z" fill="#E4E4E4"/>
<path d="M195 164C195 160.686 197.686 158 201 158H223C226.314 158 229 160.686 229 164V178C229 181.314 226.314 184 223 184H201C197.686 184 195 181.314 195 178V164Z" fill="#4F63D2"/>
<path d="M116.734 192.914V202.847H115.59V192.914H116.734ZM112.224 195.785C112.224 197.446 113.247 199.14 114.798 199.811L114.171 200.702C113.016 200.185 112.136 199.118 111.663 197.831C111.223 199.206 110.332 200.405 109.166 200.955L108.517 200.053C110.057 199.36 111.08 197.468 111.08 195.785V194.839H108.869V193.904H114.435V194.839H112.224V195.785ZM127.733 195.796V196.742H126.325V200.075H125.192V192.925H126.325V195.796H127.733ZM124.433 197.93C122.75 198.271 121.276 198.359 119.813 198.359H119.01V193.607H120.143V197.424C121.474 197.391 122.783 197.303 124.29 197.006L124.433 197.93ZM121.199 201.736H126.666V202.66H120.055V199.393H121.199V201.736ZM137.742 194.905V195.84H136.334V197.886H135.201V192.914H136.334V194.905H137.742ZM134.398 197.237C133.045 197.534 131.857 197.589 129.767 197.589H128.964V193.464H133.386V194.366H130.097V196.676C131.923 196.676 133.034 196.61 134.266 196.346L134.398 197.237ZM131.054 201.824H136.664V202.726H129.943V200.075H135.212V199.25H129.921V198.337H136.334V200.933H131.054V201.824Z" fill="black"/>
<path d="M203.59 191.903V201.869H204.734V191.903H203.59ZM199.443 192.64C197.98 192.64 196.891 194.004 196.891 196.138C196.891 198.294 197.98 199.647 199.443 199.647C200.928 199.647 202.006 198.294 202.006 196.138C202.006 194.004 200.928 192.64 199.443 192.64ZM199.443 193.663C200.323 193.663 200.917 194.587 200.917 196.138C200.917 197.733 200.323 198.635 199.443 198.635C198.563 198.635 197.98 197.733 197.98 196.138C197.98 194.587 198.563 193.663 199.443 193.663ZM211.597 195.566H213.665V199.273H214.798V191.914H213.665V194.642H211.597V192.574H210.486V194.213H208.143V192.574H207.021V197.645H211.597V195.566ZM210.486 196.721H208.143V195.104H210.486V196.721ZM209.474 200.736V198.547H208.33V201.66H215.029V200.736H209.474ZM224.334 193.905V191.914H223.201V196.886H224.334V194.84H225.742V193.905H224.334ZM222.266 195.346C221.034 195.61 219.923 195.676 218.097 195.676V193.366H221.386V192.464H216.964V196.589H217.767C219.857 196.589 221.045 196.534 222.398 196.237L222.266 195.346ZM219.054 199.933H224.334V197.337H217.921V198.25H223.212V199.075H217.943V201.726H224.664V200.824H219.054V199.933Z" fill="black"/>
<path d="M203.513 140.695H202.094C200.807 142.378 199.575 144.094 198.288 145.777V147.009H202.182V149H203.513V147.009H204.547V145.766H203.513V140.695ZM202.182 145.788H199.784L202.204 142.532C202.193 142.829 202.182 143.126 202.182 143.225V145.788ZM206.887 147.592H205.281V149.154H206.887V147.592ZM213.337 140.772H209.179C209.058 141.476 208.838 142.774 208.497 144.886L209.421 145.161C209.817 145.018 210.213 144.941 210.62 144.908C211.632 144.875 212.149 145.414 212.149 146.294C212.149 147.262 211.61 147.889 210.598 147.889C209.894 147.889 209.322 147.515 208.805 147.086L208.035 148.208C208.596 148.736 209.498 149.198 210.51 149.198C212.281 149.198 213.623 147.999 213.623 146.228C213.623 144.776 212.677 143.654 210.917 143.654C210.62 143.654 210.312 143.676 209.971 143.731L210.246 142.125H213.337V140.772ZM214.456 142.84C214.456 144.116 215.27 144.787 216.425 144.787C217.569 144.787 218.438 144.094 218.438 142.807V142.664C218.438 141.399 217.569 140.75 216.425 140.75C215.27 140.75 214.456 141.465 214.456 142.741V142.84ZM215.567 149H216.92L222.2 140.805H220.902L215.567 149ZM217.206 142.829C217.206 143.621 216.986 143.918 216.425 143.918C215.864 143.918 215.622 143.621 215.622 142.829L215.633 142.642C215.633 141.894 215.919 141.597 216.458 141.597C216.953 141.597 217.217 141.894 217.217 142.686L217.206 142.829ZM219.56 146.899C219.56 148.175 220.363 148.835 221.518 148.835C222.651 148.835 223.52 148.142 223.52 146.866V146.723C223.52 145.458 222.651 144.82 221.518 144.82C220.363 144.82 219.56 145.513 219.56 146.8V146.899ZM222.299 146.888C222.299 147.68 222.079 147.966 221.518 147.966C220.957 147.966 220.715 147.68 220.715 146.888L220.726 146.701C220.726 145.953 221.012 145.667 221.551 145.667C222.046 145.667 222.31 145.953 222.31 146.745L222.299 146.888Z" fill="#4F63D2"/>
<path d="M113.577 145.64C112.026 145.64 110.981 146.41 110.662 148.093C111.146 148.17 111.619 148.269 112.092 148.346C112.235 147.554 112.554 146.938 113.489 146.938C114.204 146.938 114.633 147.312 114.622 148.071C114.622 148.775 114.281 149.237 112.829 149.27V150.37C114.545 150.37 114.754 150.898 114.754 151.668C114.754 152.284 114.281 152.889 113.313 152.889C112.532 152.889 111.916 152.108 111.74 151.404L110.398 151.932C110.838 153.373 111.663 154.209 113.335 154.209C114.875 154.209 116.217 153.318 116.25 151.635C116.25 150.667 115.843 150.04 114.875 149.677C115.568 149.336 116.107 148.786 116.107 147.851C116.14 146.63 115.117 145.673 113.577 145.64ZM118.887 152.592H117.281V154.154H118.887V152.592ZM125.865 149.919C125.865 146.993 124.556 145.673 122.796 145.673C121.08 145.673 119.76 146.993 119.76 149.919C119.76 152.823 121.08 154.154 122.796 154.154C124.556 154.154 125.865 152.823 125.865 149.919ZM124.325 149.919C124.325 152.251 123.599 152.878 122.796 152.878C122.037 152.878 121.3 152.251 121.3 149.919C121.3 147.576 122.037 146.938 122.796 146.938C123.599 146.938 124.325 147.576 124.325 149.919ZM126.456 147.84C126.456 149.116 127.27 149.787 128.425 149.787C129.569 149.787 130.438 149.094 130.438 147.807V147.664C130.438 146.399 129.569 145.75 128.425 145.75C127.27 145.75 126.456 146.465 126.456 147.741V147.84ZM127.567 154H128.92L134.2 145.805H132.902L127.567 154ZM129.206 147.829C129.206 148.621 128.986 148.918 128.425 148.918C127.864 148.918 127.622 148.621 127.622 147.829L127.633 147.642C127.633 146.894 127.919 146.597 128.458 146.597C128.953 146.597 129.217 146.894 129.217 147.686L129.206 147.829ZM131.56 151.899C131.56 153.175 132.363 153.835 133.518 153.835C134.651 153.835 135.52 153.142 135.52 151.866V151.723C135.52 150.458 134.651 149.82 133.518 149.82C132.363 149.82 131.56 150.513 131.56 151.8V151.899ZM134.299 151.888C134.299 152.68 134.079 152.966 133.518 152.966C132.957 152.966 132.715 152.68 132.715 151.888L132.726 151.701C132.726 150.953 133.012 150.667 133.551 150.667C134.046 150.667 134.31 150.953 134.31 151.745L134.299 151.888Z" fill="#999999"/>
</g>
<defs>
<filter id="filter0_d_5783_295417" x="0" y="0" width="336" height="328" filterUnits="userSpaceOnUse" color-interpolation-filters="sRGB">
<feFlood flood-opacity="0" result="BackgroundImageFix"/>
<feColorMatrix in="SourceAlpha" type="matrix" values="0 0 0 0 0 0 0 0 0 0 0 0 0 0 0 0 0 0 127 0" result="hardAlpha"/>
<feOffset dy="2"/>
<feGaussianBlur stdDeviation="6"/>
<feComposite in2="hardAlpha" operator="out"/>
<feColorMatrix type="matrix" values="0 0 0 0 0 0 0 0 0 0 0 0 0 0 0 0 0 0 0.1 0"/>
<feBlend mode="normal" in2="BackgroundImageFix" result="effect1_dropShadow_5783_295417"/>
<feBlend mode="normal" in="SourceGraphic" in2="effect1_dropShadow_5783_295417" result="shape"/>
</filter>
</defs>
</svg>
