<svg width="26" height="20" viewBox="0 0 26 20" fill="none" xmlns="http://www.w3.org/2000/svg">
<rect width="26" height="20" rx="6" fill="#E9EDFF"/>
<path fill-rule="evenodd" clip-rule="evenodd" d="M7.75 13.5V9.20552C7.75 8.67433 7.99127 8.17189 8.40583 7.83976L11.9058 5.03574C12.5453 4.52341 13.4547 4.52341 14.0942 5.03573L17.5942 7.83976C18.0087 8.17189 18.25 8.67433 18.25 9.20552V13.5C18.25 14.4665 17.4665 15.25 16.5 15.25L14.575 15.25V13.675C14.575 12.8052 13.8698 12.1 13 12.1C12.1301 12.1 11.425 12.8052 11.425 13.675V15.25L9.5 15.25C8.5335 15.25 7.75 14.4665 7.75 13.5ZM15.1583 8.95002C14.8362 8.95002 14.575 9.21119 14.575 9.53336V10.4667C14.575 10.7889 14.8362 11.05 15.1583 11.05H16.0917C16.4138 11.05 16.675 10.7889 16.675 10.4667V9.53336C16.675 9.21119 16.4138 8.95002 16.0917 8.95002H15.1583Z" fill="#3B87F2"/>
</svg>
