<svg width="360" height="360" viewBox="0 0 360 360" fill="none" xmlns="http://www.w3.org/2000/svg">
<rect width="360" height="360" fill="#EEEFF3"/>
<g clip-path="url(#clip0_12_6391)">
<path d="M152.73 196.404H146.272V174.375H152.73V196.409V196.404ZM149.501 163.622C151.46 163.622 153.1 165.257 153.1 167.221C153.1 169.186 151.466 170.862 149.501 170.862C147.536 170.862 145.861 169.227 145.861 167.221C145.861 165.216 147.495 163.622 149.501 163.622Z" fill="white"/>
<path d="M141.124 163.622V170.08C137.037 170.08 134.91 172.694 134.91 174.37H141.124V180.665H134.458V196.363H128V175.801C128 168.526 133.64 163.622 141.124 163.622Z" fill="white"/>
<path d="M180.033 185.001V196.322H173.413V185.285C173.413 182.341 171.494 180.381 168.752 180.381C166.011 180.381 164.092 182.341 164.092 185.285V196.322H157.471V184.96C157.471 178.624 162.091 173.923 168.752 173.923C175.413 173.923 180.033 178.665 180.033 185.001" fill="white"/>
<path d="M194.914 190.194C197.61 190.194 199.778 187.986 199.778 185.128C199.778 182.554 197.61 180.345 194.914 180.345C192.218 180.345 190.05 182.554 190.05 185.128C190.05 187.991 192.177 190.194 194.914 190.194ZM194.914 173.882C197.001 173.882 199.041 174.659 199.899 175.273V163.5H206.52V185.082C206.52 191.702 201.412 196.734 194.909 196.734C188.405 196.734 183.257 191.91 183.257 185.082C183.257 178.254 188.735 173.882 194.909 173.882" fill="white"/>
<path d="M221.035 190.113C223.73 190.113 225.858 187.986 225.858 185.128C225.858 182.554 223.73 180.427 221.035 180.427C218.339 180.427 216.211 182.554 216.211 185.128C216.211 187.991 218.298 190.113 221.035 190.113ZM232.519 185.128V196.368H226.223V195.018C224.832 195.997 222.872 196.571 221.029 196.571C214.409 196.571 209.627 191.377 209.627 185.128C209.627 178.878 214.734 174.009 221.029 174.009C227.325 174.009 232.513 178.873 232.513 185.128" fill="white"/>
</g>
<defs>
<clipPath id="clip0_12_6391">
<rect width="104.585" height="33" fill="white" transform="translate(128 163.5)"/>
</clipPath>
</defs>
</svg>
