<svg width="24" height="24" viewBox="0 0 24 24" fill="none" xmlns="http://www.w3.org/2000/svg">
<g clip-path="url(#clip0_2168_48542)">
<rect x="24" y="2.40002" width="19.2" height="24" rx="1.52432" transform="rotate(90 24 2.40002)" fill="#ECEEF3"/>
<rect x="2.16016" y="7.67999" width="9.6" height="1.68" rx="0.84" fill="#BFC7D1"/>
<rect x="2.16016" y="11.16" width="6.84" height="1.68" rx="0.84" fill="#BFC7D1"/>
<rect x="2.16016" y="14.64" width="8.16" height="1.68" rx="0.84" fill="#BFC7D1"/>
<path d="M17.5807 12.0126C18.8765 12.0126 19.927 10.9621 19.927 9.6663C19.927 8.37048 18.8765 7.32001 17.5807 7.32001C16.2848 7.32001 15.2344 8.37048 15.2344 9.6663C15.2344 10.9621 16.2848 12.0126 17.5807 12.0126Z" fill="#3180F3"/>
<path d="M17.5792 12.7319C14.427 12.7319 13.1992 14.8823 13.1992 15.8803C13.1992 16.8784 15.8091 17.1458 17.5792 17.1458C19.3493 17.1458 21.9592 16.8784 21.9592 15.8803C21.9592 14.8823 20.7315 12.7281 17.5792 12.7281V12.7319Z" fill="#3180F3"/>
</g>
<defs>
<clipPath id="clip0_2168_48542">
<rect width="24" height="24" fill="white"/>
</clipPath>
</defs>
</svg>
