<svg width="89" height="28" viewBox="0 0 89 28" fill="none" xmlns="http://www.w3.org/2000/svg">
<rect width="89" height="28" rx="14" fill="#F5F5F5"/>
<path d="M17.9837 20.5389C18.806 20.5366 19.538 20.0175 19.8121 19.2422H16.1553C16.4294 20.0175 17.1614 20.5366 17.9837 20.5389Z" fill="#707FDA"/>
<path fill-rule="evenodd" clip-rule="evenodd" d="M12.9999 12.5723V17.2151H12.2856C11.8911 17.2151 11.5713 17.5349 11.5713 17.9294C11.5713 18.3239 11.8911 18.6437 12.2856 18.6437L13.7141 18.6437H22.2856L23.7141 18.6437C24.1086 18.6437 24.4284 18.3239 24.4284 17.9294C24.4284 17.5349 24.1086 17.2151 23.7141 17.2151H22.9999V12.5723C22.9999 9.81084 20.7613 7.57227 17.9999 7.57227C15.2384 7.57227 12.9999 9.81084 12.9999 12.5723Z" fill="#707FDA"/>
<path d="M38.448 10.262V8.315H36.996V13.375H38.448V11.45H39.779V10.262H38.448ZM35.94 10.9C35.94 9.569 34.796 8.601 33.245 8.601C31.705 8.601 30.55 9.569 30.55 10.9C30.55 12.253 31.705 13.21 33.245 13.21C34.796 13.21 35.94 12.253 35.94 10.9ZM31.947 10.9C31.947 10.196 32.486 9.767 33.245 9.767C34.004 9.767 34.543 10.196 34.543 10.9C34.543 11.615 34.004 12.044 33.245 12.044C32.486 12.044 31.947 11.615 31.947 10.9ZM33.212 16.543H38.448V13.771H31.76V14.893H37.018V15.498H31.771V18.325H38.734V17.203H33.212V16.543ZM47.4891 8.326V14.321H48.9521V8.326H47.4891ZM46.6531 12.55C45.3331 12.759 44.1561 12.825 42.4841 12.825V11.945H45.7071V8.887H41.0431V10.053H44.2771V10.867H41.0541V13.991H41.9451C43.9691 13.991 45.3111 13.936 46.8181 13.705L46.6531 12.55ZM42.2091 18.325H48.9521V14.772H42.2091V18.325ZM43.6391 15.916H47.5331V17.192H43.6391V15.916ZM58.5763 10.614V8.315H57.1243V14.222H58.5763V11.813H59.9183V10.614H58.5763ZM55.7493 8.909H54.3193V10.185H52.3283V8.909H50.8983V13.727H55.7493V8.909ZM54.3193 12.594H52.3283V11.296H54.3193V12.594ZM53.4393 15.817H58.6423V14.662H51.9983V18.325H58.8293V17.17H53.4393V15.817ZM68.8274 11.054H63.2504V8.678H61.7984V12.209H68.8274V11.054ZM60.6654 13.243V14.409H69.8394V13.243H60.6654ZM63.1624 15.212H61.6994V18.237H68.8824V17.071H63.1624V15.212ZM71.6096 12.517C73.5566 12.352 74.7666 11.648 75.3056 10.68C75.8446 11.637 77.0876 12.352 78.9906 12.517L79.4966 11.395C77.6046 11.219 76.6256 10.581 76.3616 9.888H79.0566V8.733H71.5656V9.888H74.2496C73.9856 10.581 73.0066 11.219 71.1256 11.395L71.6096 12.517ZM79.8816 14.068V12.913H70.7296V14.068H74.5796V14.805C72.8086 14.948 71.7746 15.564 71.7746 16.62C71.7746 17.797 73.0946 18.457 75.2836 18.457C77.4726 18.457 78.8036 17.797 78.8036 16.62C78.8036 15.564 77.8026 14.959 76.0316 14.816V14.068H79.8816ZM77.3296 16.62C77.3296 17.137 76.6586 17.346 75.2836 17.346C73.9086 17.346 73.2376 17.137 73.2376 16.62C73.2376 16.103 73.9086 15.883 75.2836 15.883C76.6586 15.883 77.3296 16.103 77.3296 16.62Z" fill="#B3B3B3"/>
</svg>
