<svg width="96" height="86" viewBox="0 0 96 86" fill="none" xmlns="http://www.w3.org/2000/svg">
<path d="M71.038 13.9965C70.2933 11.3529 67.5988 10.3798 64.148 10.9227L64.1656 10.8901C64.0512 10.9168 63.9428 10.9494 63.8284 10.9761C62.4123 11.2343 60.876 11.7416 59.2986 12.4863V12.4893C48.7966 16.9991 41.4258 27.5318 41.4258 39.8091V77.7862C41.4258 81.3911 44.3137 84.3136 47.876 84.3136H53.4466C57.0088 84.3136 59.8967 81.3911 59.8967 77.7862V55.4035C59.8967 52.2704 59.8967 48.1166 64.881 47.2265C71.038 45.743 71.038 40.4025 71.3312 37.1388C72.2107 27.3478 71.469 15.5215 71.038 13.9965Z" fill="#C6C7FA"/>
<path fill-rule="evenodd" clip-rule="evenodd" d="M48.8168 31.2793C49.1002 31.2793 49.3299 31.5118 49.3299 31.7985V33.4155C49.3299 33.7023 49.1002 33.9347 48.8168 33.9347C48.5334 33.9347 48.3037 33.7023 48.3037 33.4155V31.7985C48.3037 31.5118 48.5334 31.2793 48.8168 31.2793Z" fill="black" stroke="black" stroke-width="0.4" stroke-linecap="round"/>
<path fill-rule="evenodd" clip-rule="evenodd" d="M52.2738 31.2793C52.5572 31.2793 52.7869 31.5118 52.7869 31.7985V33.4155C52.7869 33.7023 52.5572 33.9347 52.2738 33.9347C51.9905 33.9347 51.7607 33.7023 51.7607 33.4155V31.7985C51.7607 31.5118 51.9905 31.2793 52.2738 31.2793Z" fill="black" stroke="black" stroke-width="0.4" stroke-linecap="round"/>
<path fill-rule="evenodd" clip-rule="evenodd" d="M53.0456 36.5041C53.1492 36.771 53.0194 37.0723 52.7556 37.1771C51.5336 37.6627 50.4135 37.6625 49.6009 37.5413C49.1947 37.4807 48.863 37.3897 48.6301 37.3124C48.5134 37.2738 48.4211 37.2385 48.356 37.2119C48.3234 37.1986 48.2976 37.1874 48.2789 37.1792C48.2695 37.175 48.262 37.1716 48.2562 37.1689L48.249 37.1656L48.2464 37.1643L48.2454 37.1639C48.2454 37.1639 48.2445 37.1634 48.4634 36.6938L48.2445 37.1634C47.9882 37.0411 47.8785 36.7317 47.9994 36.4723C48.12 36.2135 48.4247 36.1024 48.6807 36.2235M48.6807 36.2235C48.6822 36.2242 48.686 36.2259 48.6909 36.2281C48.7006 36.2324 48.7171 36.2395 48.7398 36.2488C48.7854 36.2675 48.8563 36.2947 48.9494 36.3256C49.1361 36.3875 49.4106 36.4633 49.7505 36.514C50.4303 36.6153 51.3625 36.6151 52.3805 36.2106C52.6443 36.1057 52.9421 36.2372 53.0456 36.5041" fill="black"/>
<path d="M52.7556 37.1771C53.0194 37.0723 53.1492 36.771 53.0456 36.5041C52.9421 36.2372 52.6443 36.1057 52.3805 36.2106C51.3625 36.6151 50.4303 36.6153 49.7505 36.514C49.4106 36.4633 49.1361 36.3875 48.9494 36.3256C48.8563 36.2947 48.7854 36.2675 48.7398 36.2488C48.7171 36.2395 48.7006 36.2324 48.6909 36.2281C48.686 36.2259 48.6822 36.2242 48.6807 36.2235C48.4247 36.1024 48.12 36.2135 47.9994 36.4723C47.8785 36.7317 47.9882 37.0411 48.2445 37.1634L48.4634 36.6938C48.2445 37.1634 48.2454 37.1639 48.2454 37.1639L48.2464 37.1643L48.249 37.1656L48.2562 37.1689C48.262 37.1716 48.2695 37.175 48.2789 37.1792C48.2976 37.1874 48.3234 37.1986 48.356 37.2119C48.4211 37.2385 48.5134 37.2738 48.6301 37.3124C48.863 37.3897 49.1947 37.4807 49.6009 37.5413C50.4135 37.6625 51.5336 37.6627 52.7556 37.1771Z" stroke="black" stroke-width="0.4" stroke-linecap="round" stroke-linejoin="round"/>
<rect x="19.609" y="42.5759" width="26.3531" height="26.6479" rx="13.1765" fill="white"/>
<path d="M28.3746 62.1956H30.981L32.1474 56.8622C32.3202 55.9879 32.4498 55.1864 32.6082 54.3703H32.6658C32.7954 55.1864 32.9538 55.9879 33.1266 56.8622L34.3218 62.1956H36.9714L38.9441 51.4122H36.9138L36.0786 56.6727C35.9202 57.7948 35.7618 58.946 35.6034 60.1118H35.5314C35.301 58.946 35.085 57.7802 34.8546 56.6727L33.6162 51.4122H31.8018L30.5634 56.6727C30.333 57.7948 30.1026 58.946 29.8866 60.1118H29.829C29.6706 58.946 29.4978 57.8385 29.3394 56.6727L28.4898 51.4122H26.3154L28.3746 62.1956Z" fill="#4F63D2"/>
<path fill-rule="evenodd" clip-rule="evenodd" d="M28.1373 62.4869L25.9668 51.1206H28.7349L29.6252 56.6329C29.7041 57.2141 29.7866 57.7811 29.8695 58.3496C29.8782 58.4097 29.887 58.4702 29.8958 58.5304C30.0228 57.8836 30.1523 57.2437 30.2818 56.6133L30.2835 56.605L31.5747 51.1206H33.844L35.1368 56.6125C35.2689 57.2472 35.3964 57.9027 35.5245 58.5648C35.6142 57.9128 35.704 57.2674 35.7938 56.6314L35.7945 56.6263L36.6687 51.1206H39.2907L37.2113 62.4869H34.0921L32.8444 56.9192L32.844 56.9163C32.7708 56.5464 32.7001 56.1883 32.6329 55.8359C32.5696 56.1872 32.5038 56.5465 32.4301 56.9192L32.429 56.925L31.2126 62.4869H28.1373ZM32.4848 55.0312C32.5243 54.814 32.5645 54.5974 32.6067 54.3799C32.6073 54.3766 32.6079 54.3734 32.6085 54.3702H32.6661C32.6668 54.3741 32.6674 54.3781 32.668 54.382C32.7026 54.5991 32.7392 54.8152 32.7775 55.032C32.8826 55.6258 33.0009 56.2245 33.1269 56.8618L34.3221 62.1954H36.9717L38.9445 51.412H36.9141L36.0789 56.6726C35.9508 57.58 35.8227 58.5064 35.6946 59.4442C35.665 59.6611 35.6354 59.8786 35.6058 60.0966C35.6051 60.1016 35.6044 60.1066 35.6037 60.1116H35.5317C35.531 60.1082 35.5304 60.1047 35.5297 60.1013C35.4869 59.8849 35.4447 59.6686 35.4027 59.4526C35.3641 59.2537 35.3258 59.0551 35.2875 58.8572C35.1442 58.1153 35.0025 57.382 34.8549 56.6726L33.6165 51.412H31.8021L30.5637 56.6726C30.3804 57.5654 30.1971 58.4766 30.021 59.3989C29.9763 59.6331 29.9321 59.8679 29.8885 60.1034L29.887 60.1116H29.8294C29.8288 60.1079 29.8283 60.1041 29.8278 60.1004C29.7954 59.8621 29.7624 59.6263 29.7291 59.3919C29.6814 59.0567 29.633 58.7243 29.5845 58.392C29.5018 57.8237 29.419 57.2554 29.3398 56.6726L28.4902 51.412H26.3158L28.375 62.1954H30.9813L32.1477 56.862C32.2402 56.3941 32.3203 55.9471 32.3991 55.5076C32.4277 55.348 32.4561 55.1894 32.4848 55.0312Z" fill="#4F63D2"/>
<line x1="24.3936" y1="55.463" x2="41.3116" y2="55.463" stroke="#4F63D2" stroke-width="3"/>
<rect x="19.609" y="42.5759" width="26.3531" height="26.6479" rx="13.1765" stroke="black" stroke-width="1.7"/>
<ellipse rx="3.55744" ry="3.59425" transform="matrix(-0.965148 0.261704 0.255962 0.966687 46.8059 55.2609)" fill="#9C9DE4"/>
<path fill-rule="evenodd" clip-rule="evenodd" d="M56.9241 46.7775C56.6512 46.6818 56.3534 46.8281 56.2588 47.1042L56.2587 47.1044C55.9124 48.1158 55.4126 49.5751 54.2643 50.9326C53.126 52.2782 51.322 53.5548 48.3154 54.1269C48.0316 54.1809 47.8448 54.4575 47.8982 54.7447C47.9515 55.0319 48.2248 55.2209 48.5087 55.1669C51.74 54.5521 53.7594 53.1568 55.0587 51.6208C56.3361 50.1107 56.8895 48.4946 57.2374 47.4784C57.2406 47.4691 57.2438 47.4599 57.2469 47.4507C57.3415 47.1746 57.1969 46.8732 56.9241 46.7775Z" fill="black" stroke="black" stroke-width="0.4" stroke-linecap="round" stroke-linejoin="round"/>
<path d="M5.5631 32.4329C5.48916 32.4329 5.42091 32.3869 5.36972 32.3007C5.1991 32.0016 4.61412 31.0814 4.30699 28.9419C3.01594 28.6371 2.64542 28.1368 2.45774 27.9643C2.3838 27.8953 2.34399 27.7802 2.36674 27.671C2.40086 27.4869 2.23711 27.0318 4.40973 26.4624C5.04104 22.3618 5.48347 22.5352 5.63135 22.4949C5.64841 22.4892 5.66547 22.4892 5.67685 22.4892C5.75078 22.4892 5.81903 22.5352 5.87022 22.6214C6.05222 22.9377 6.43796 24.0699 6.77352 26.4624C8.93476 27.0318 8.83908 27.4869 8.87321 27.6767C8.89027 27.786 8.85614 27.8953 8.78221 27.97C8.59452 28.1426 8.19319 28.6371 6.88507 28.9419C6.30494 32.5939 5.76216 32.3927 5.6086 32.4387C5.59154 32.4329 5.57447 32.4329 5.5631 32.4329Z" fill="#FE11AD" fill-opacity="0.13"/>
<path d="M77.6083 49.5733C77.5514 49.5733 77.4946 49.5445 77.4547 49.487C77.3239 49.2972 77.1419 48.5496 76.8974 47.1923C75.885 47.0025 75.3219 46.853 75.1741 46.7437C75.1172 46.6977 75.0888 46.6287 75.1001 46.5597C75.1229 46.4447 75.1513 46.3066 76.8576 45.95C77.3524 43.3563 77.5457 43.316 77.6595 43.2873C77.6709 43.2873 77.6822 43.2815 77.6993 43.2815C77.7562 43.2815 77.8131 43.3103 77.8529 43.3678C77.9951 43.5691 78.1998 44.4375 78.4614 45.95C80.1563 46.3066 80.1847 46.4447 80.2075 46.5597C80.2245 46.6287 80.1961 46.6977 80.1335 46.7437C79.9857 46.853 79.4169 47.0025 78.3932 47.1923C77.9382 49.4985 77.7676 49.5388 77.6481 49.5618C77.6311 49.5675 77.6197 49.5733 77.6083 49.5733Z" fill="#9BA3E4"/>
<path d="M34.6871 23.9701C34.6472 23.9701 34.6131 23.9528 34.5904 23.9183C34.5051 23.7975 34.2862 23.4373 34.1326 22.5631C33.4786 22.4366 33.214 22.216 33.1173 22.147C33.0775 22.1182 33.0604 22.0722 33.0718 22.0262C33.0889 21.9514 33.0292 21.7219 34.1326 21.4861C34.4511 19.8125 34.6529 19.927 34.7269 19.9097C34.7326 19.9097 34.7439 19.9097 34.7496 19.9097C34.7894 19.9097 34.8236 19.927 34.8463 19.9615C34.9373 20.0938 35.1463 20.5084 35.3169 21.4861C36.4089 21.7162 36.3535 21.9457 36.3649 22.0204C36.3762 22.0664 36.3592 22.1124 36.3194 22.1412C36.2227 22.2102 35.9824 22.3575 35.3169 22.484C35.0212 23.9736 34.7894 23.9471 34.7098 23.9643C34.7041 23.9643 34.6927 23.9701 34.6871 23.9701Z" fill="#18A89E"/>
<path d="M59.0645 1.43318L60.4801 0.00171758L64.007 3.56818L62.5914 4.99964L59.0645 1.43318Z" fill="#18A89E"/>
<path d="M79.5703 10.3581L78.3205 11.4985L75.5163 8.356L76.7661 7.2156L79.5703 10.3581Z" fill="#FE11AD" fill-opacity="0.13"/>
<path d="M81.8027 64.9234L83.2606 65.7746L81.1676 69.4403L79.7097 68.5891L81.8027 64.9234Z" fill="#FE11AD" fill-opacity="0.13"/>
<path d="M20.8184 8.6605L19.4028 10.092L15.8758 6.5255L17.2914 5.09404L20.8184 8.6605Z" fill="#9BA3E4"/>
<path d="M70.3851 25.4615L71.4708 27.1624L67.2799 29.8977L66.1943 28.1968L70.3851 25.4615Z" fill="#9BA3E4"/>
<path d="M89.7875 37.0189L88.5154 35.4556L92.3671 32.2508L93.6392 33.8141L89.7875 37.0189Z" fill="#18A89E"/>
<path d="M22.8687 30.1286L23.9203 31.307L21.0237 33.9499L19.9722 32.7715L22.8687 30.1286Z" fill="#E6492D"/>
<path d="M12.6934 56.8608L13.2738 58.3356L9.64886 59.7946L9.06837 58.3198L12.6934 56.8608Z" fill="#3B87F2"/>
<path d="M47.5445 11.0338L48.5961 12.2122L45.6995 14.8552L44.6479 13.6767L47.5445 11.0338Z" fill="#E6492D"/>
</svg>
