<svg width="16" height="16" viewBox="0 0 16 16" fill="none" xmlns="http://www.w3.org/2000/svg">
<path d="M7.93868 2.44424C7.54729 2.34848 7.15764 2.25515 6.76625 2.15939C6.72798 2.1497 6.68798 2.14 6.64971 2.13151C6.58708 1.95818 6.52446 1.78485 6.46532 1.61151C6.36269 1.32061 6.25658 1.0297 6.15395 0.738788C6.12959 0.673333 6.10524 0.605455 6.08263 0.54C6.06349 0.486667 5.93825 0.486667 5.91911 0.54C5.85301 0.72303 5.78865 0.904848 5.72429 1.08788C5.62166 1.37879 5.51555 1.6697 5.41292 1.96061C5.39204 2.01879 5.37291 2.07576 5.35029 2.13394C4.9763 2.22606 4.60057 2.31455 4.22657 2.40667C4.17265 2.42121 4.11524 2.43455 4.06132 2.44667C3.97956 2.46606 3.97956 2.53636 4.06132 2.55576C4.45271 2.65152 4.84236 2.74485 5.23375 2.84061C5.27202 2.8503 5.31202 2.86 5.35029 2.86848C5.41292 3.04182 5.47554 3.21515 5.53468 3.38849C5.63731 3.67939 5.74342 3.9703 5.84605 4.26121C5.87041 4.32667 5.89476 4.39455 5.91737 4.46C5.93651 4.51333 6.06175 4.51333 6.08089 4.46C6.14699 4.27697 6.21135 4.09515 6.27571 3.91212C6.37834 3.62121 6.48445 3.3303 6.58708 3.03939C6.60796 2.98121 6.62709 2.92424 6.64971 2.86606C7.0237 2.77394 7.39944 2.68545 7.77343 2.59333C7.82735 2.57879 7.88476 2.56545 7.93868 2.55333C8.02044 2.53394 8.02044 2.46364 7.93868 2.44424Z" fill="#EAFCF6"/>
<path d="M15.9573 1.81463C15.6833 1.72525 15.4105 1.63814 15.1366 1.54877C15.1098 1.53972 15.0818 1.53067 15.055 1.52275C15.0112 1.36097 14.9673 1.19919 14.9259 1.03741C14.8541 0.765899 14.7798 0.494384 14.708 0.222869C14.6909 0.161778 14.6739 0.0984243 14.658 0.0373333C14.6446 -0.0124444 14.557 -0.0124444 14.5436 0.0373333C14.4973 0.208162 14.4523 0.377858 14.4072 0.548687C14.3354 0.820202 14.2611 1.09172 14.1892 1.36323C14.1746 1.41754 14.1612 1.47071 14.1454 1.52501C13.8836 1.61099 13.6206 1.69358 13.3588 1.77956C13.321 1.79313 13.2809 1.80558 13.2431 1.81689C13.1859 1.83499 13.1859 1.90061 13.2431 1.91871C13.5171 2.00808 13.7898 2.09519 14.0638 2.18457C14.0906 2.19362 14.1186 2.20267 14.1454 2.21059C14.1892 2.37236 14.2331 2.53414 14.2745 2.69592C14.3463 2.96743 14.4206 3.23895 14.4924 3.51046C14.5095 3.57156 14.5265 3.63491 14.5424 3.696C14.5558 3.74578 14.6434 3.74578 14.6568 3.696C14.7031 3.52517 14.7481 3.35548 14.7932 3.18465C14.865 2.91313 14.9393 2.64162 15.0112 2.3701C15.0258 2.3158 15.0392 2.26263 15.055 2.20832C15.3168 2.12234 15.5798 2.03976 15.8416 1.95378C15.8793 1.9402 15.9195 1.92776 15.9573 1.91644C16.0145 1.89834 16.0145 1.83273 15.9573 1.81463Z" fill="#EAFCF6"/>
<path d="M12.954 10.9442C12.6605 10.8485 12.3682 10.7552 12.0747 10.6594C12.046 10.6497 12.016 10.64 11.9873 10.6315C11.9403 10.4582 11.8933 10.2848 11.849 10.1115C11.772 9.82061 11.6924 9.5297 11.6155 9.23879C11.5972 9.17333 11.5789 9.10545 11.562 9.04C11.5476 8.98667 11.4537 8.98667 11.4393 9.04C11.3898 9.22303 11.3415 9.40485 11.2932 9.58788C11.2162 9.87879 11.1367 10.1697 11.0597 10.4606C11.044 10.5188 11.0297 10.5758 11.0127 10.6339C10.7322 10.7261 10.4504 10.8145 10.1699 10.9067C10.1295 10.9212 10.0864 10.9345 10.046 10.9467C9.98467 10.9661 9.98467 11.0364 10.046 11.0558C10.3395 11.1515 10.6318 11.2448 10.9253 11.3406C10.954 11.3503 10.984 11.36 11.0127 11.3685C11.0597 11.5418 11.1067 11.7152 11.151 11.8885C11.228 12.1794 11.3076 12.4703 11.3845 12.7612C11.4028 12.8267 11.4211 12.8945 11.438 12.96C11.4524 13.0133 11.5463 13.0133 11.5607 12.96C11.6102 12.777 11.6585 12.5952 11.7068 12.4121C11.7838 12.1212 11.8633 11.8303 11.9403 11.5394C11.956 11.4812 11.9703 11.4242 11.9873 11.3661C12.2678 11.2739 12.5496 11.1855 12.8301 11.0933C12.8705 11.0788 12.9136 11.0655 12.954 11.0533C13.0153 11.0339 13.0153 10.9636 12.954 10.9442Z" fill="#EAFCF6"/>
<path d="M12.8833 2.64655C13.4968 3.2835 13.4933 4.32423 12.8755 4.95675L3.03569 15.0314C2.59045 15.4873 1.87502 15.479 1.4384 15.0257L0.802819 14.3658C0.360676 13.9067 0.36872 13.1691 0.808396 12.7189L10.6482 2.64423C11.266 2.01171 12.2754 2.01535 12.8889 2.65229L12.8833 2.64655Z" fill="white"/>
<path d="M0.939453 12.5728L3.17228 14.891L3.03314 15.0335C2.5879 15.4893 1.87246 15.481 1.43585 15.0277L0.79474 14.3621C0.352596 13.903 0.360639 13.1654 0.800315 12.7152L0.939453 12.5728Z" fill="#79EFDA"/>
<path d="M12.8801 2.6457C13.4936 3.28265 13.49 4.32338 12.8723 4.95589L11.3807 6.48305L9.14788 4.16479L10.6394 2.63764C11.2572 2.00512 12.2666 2.00875 12.8801 2.6457Z" fill="#79EFDA"/>
</svg>
