<svg width="140" height="133" viewBox="0 0 140 133" fill="none" xmlns="http://www.w3.org/2000/svg">
<g clip-path="url(#clip0_2572_71487)">
<g opacity="0.4" filter="url(#filter0_ii_2572_71487)">
<path fill-rule="evenodd" clip-rule="evenodd" d="M118.014 69.8645H111.421C110.14 66.0587 108.134 62.5396 105.564 59.3986L105.68 59.4847V42.087C105.68 41.1087 104.641 40.4879 103.79 40.9581L90.5406 48.28L90.677 48.3812C85.5013 46.1757 79.7221 44.9041 73.5938 44.9041C52.7348 44.9041 35.6535 59.2191 34.2085 77.3546L34.2089 79.6969C33.6733 79.8603 33.0528 80.0141 32.6221 80.1198C32.5677 78.9152 32.2624 76.3033 31.4763 75.4921C30.9051 74.7217 30.1382 74.118 29.255 73.7436C28.3719 73.3693 27.4047 73.2379 26.4537 73.3631C25.5363 73.4558 24.6657 73.8133 23.9479 74.3919C23.2302 74.9706 22.6964 75.7454 22.4115 76.6221C22.1129 77.5678 22.0917 78.5792 22.3504 79.5367C22.6091 80.4941 23.1369 81.3573 23.8712 82.0241C24.4084 82.5273 25.0271 82.9357 25.701 83.232C24.1726 83.8636 22.5621 84.2748 20.9178 84.4534C20.4654 84.5103 20.0541 84.7445 19.7744 85.1046C19.4948 85.4646 19.3696 85.921 19.4265 86.3733C19.4835 86.8256 19.7178 87.2368 20.078 87.5164C20.4382 87.796 20.8947 87.9212 21.3471 87.8643C26.3849 87.2311 28.8785 85.7448 30.4076 84.1254C30.8014 83.7084 30.7805 83.6454 30.7805 83.6454C30.7805 83.6454 31.7186 83.5275 32.4622 83.3258C33.021 83.1742 33.8596 82.8652 34.242 82.7209C34.9892 90.7865 38.8538 98.0604 44.7379 103.646L48.5194 122.771C48.75 123.937 49.763 124.777 50.9392 124.777H61.2546C62.6175 124.777 63.7224 123.66 63.7224 122.281V113.648C66.883 114.369 70.1786 114.793 73.5938 114.793C75.2711 114.793 76.9079 114.654 78.5293 114.474V122.281C78.5293 123.66 79.6342 124.777 80.9971 124.777H91.3125C92.4889 124.777 93.5017 123.937 93.7323 122.771L96.6317 108.107C101.974 104.676 106.363 100.151 109.227 94.8246H118.013C120.739 94.8246 122.949 92.5895 122.949 89.8324V74.8565C122.949 72.0995 120.739 69.8645 118.014 69.8645ZM28.9409 80.5099C28.9665 80.4566 28.9909 80.4033 29.0137 80.3484C29.2181 79.902 29.3001 79.4094 29.2514 78.9208C29.2027 78.4323 29.025 77.9655 28.7365 77.5681C28.5349 77.2875 28.2623 77.0654 27.9467 76.9246C27.631 76.7839 27.2836 76.7295 26.94 76.767L26.9383 76.7672C26.6594 76.7757 26.3897 76.8686 26.1648 77.0338C25.9399 77.1989 25.7705 77.4284 25.679 77.6919C25.5864 78.0194 25.5897 78.3666 25.6886 78.6922C25.7875 79.0179 25.9778 79.3084 26.2369 79.5291C26.9993 80.156 27.9539 80.5022 28.9409 80.5099Z" fill="url(#paint0_radial_2572_71487)"/>
</g>
<g filter="url(#filter1_i_2572_71487)">
<path d="M98.2715 72.3598C97.6304 72.3598 96.9894 72.11 96.5412 71.6109C96.2954 71.4114 96.0978 71.1118 96.0013 70.8124C95.8519 70.5128 95.8037 70.1634 95.8037 69.864C95.8037 69.5645 95.8519 69.215 96.0013 68.9155C96.0978 68.6159 96.2954 68.3165 96.5412 68.1166C97.187 67.4177 98.2715 67.1682 99.2066 67.5676C99.5054 67.6675 99.7994 67.8672 99.9971 68.1166C100.243 68.3165 100.44 68.6159 100.542 68.9155C100.691 69.2152 100.739 69.5645 100.739 69.864C100.739 70.1634 100.691 70.513 100.542 70.8124C100.44 71.112 100.243 71.4114 99.9971 71.6109C99.7994 71.8603 99.5054 72.0604 99.2066 72.1599C98.9126 72.3099 98.5655 72.3598 98.2715 72.3598Z" fill="url(#paint1_linear_2572_71487)"/>
</g>
<g filter="url(#filter2_i_2572_71487)">
<path d="M52.2318 70.5629C51.721 70.5629 51.2052 70.403 50.7617 70.0712C49.6676 69.2497 49.4364 67.6864 50.2509 66.5793C55.6203 59.2578 64.8405 54.8867 74.9189 54.8867C76.2299 54.8867 77.5312 54.9629 78.8133 55.114C80.1677 55.2733 81.1364 56.5125 80.9823 57.8819C80.8185 59.2524 79.5652 60.2286 78.2446 60.0725C68.7736 58.9594 59.2399 62.7005 54.2129 69.5537C53.7307 70.2137 52.9837 70.5629 52.2318 70.5629Z" fill="url(#paint2_linear_2572_71487)"/>
</g>
<path d="M120.47 43.0165C121.74 42.3298 122.334 40.9579 121.798 39.9523C121.261 38.9466 119.796 38.6881 118.526 39.3748C117.255 40.0615 116.661 41.4334 117.198 42.439C117.734 43.4447 119.199 43.7032 120.47 43.0165Z" fill="url(#paint3_linear_2572_71487)"/>
<path d="M74.5407 43.4648C74.5407 53.7716 66.1121 62.1268 55.7149 62.1268C45.3177 62.1268 36.8892 53.7716 36.8892 43.4648C36.8892 33.158 45.3177 24.8027 55.7149 24.8027C66.1121 24.8027 74.5407 33.158 74.5407 43.4648Z" fill="url(#paint4_linear_2572_71487)"/>
<path d="M71.8504 43.4638C71.8504 52.2982 64.6259 59.4599 55.714 59.4599C46.8021 59.4599 39.5776 52.2982 39.5776 43.4638C39.5776 34.6294 46.8021 27.4678 55.714 27.4678C64.6259 27.4678 71.8504 34.6294 71.8504 43.4638Z" fill="url(#paint5_linear_2572_71487)"/>
<path d="M51.6151 40.2202C51.3668 39.4101 50.5031 38.9529 49.686 39.1989C48.8689 39.445 48.4078 40.3013 48.6561 41.1114L51.1871 49.3695C51.4354 50.1796 52.2991 50.6368 53.1162 50.3907C53.9333 50.1447 54.3944 49.2884 54.1461 48.4783L51.6151 40.2202Z" fill="white"/>
<path d="M51.6145 48.5837C51.3641 49.262 51.7158 50.0132 52.4001 50.2615C53.0844 50.5097 53.8422 50.161 54.0926 49.4827L56.8778 41.9378C57.1283 41.2594 56.7765 40.5083 56.0922 40.26C55.4079 40.0118 54.6502 40.3605 54.3997 41.0388L51.6145 48.5837Z" fill="white"/>
<path d="M56.8876 41.0393C56.6372 40.3609 55.8794 40.0122 55.1951 40.2605C54.5108 40.5087 54.1591 41.2599 54.4095 41.9382L57.1947 49.4831C57.4452 50.1615 58.2029 50.5101 58.8872 50.2619C59.5715 50.0137 59.9233 49.2625 59.6728 48.5841L56.8876 41.0393Z" fill="white"/>
<path d="M57.1249 48.4789C56.8766 49.289 57.3377 50.1452 58.1548 50.3913C58.9719 50.6374 59.8356 50.1802 60.0839 49.3701L62.6149 41.112C62.8632 40.3018 62.4021 39.4456 61.585 39.1995C60.7679 38.9534 59.9042 39.4107 59.6559 40.2208L57.1249 48.4789Z" fill="white"/>
<path d="M45.999 44.099C45.999 43.4575 46.5252 42.9375 47.1743 42.9375H50.2198C50.8689 42.9375 51.3951 43.4575 51.3951 44.099C51.3951 44.7405 50.8689 45.2606 50.2198 45.2606H47.1743C46.5252 45.2606 45.999 44.7405 45.999 44.099Z" fill="white"/>
<path d="M59.8745 44.099C59.8745 43.4575 60.4007 42.9375 61.0498 42.9375H64.0953C64.7444 42.9375 65.2706 43.4575 65.2706 44.099C65.2706 44.7405 64.7444 45.2606 64.0953 45.2606H61.0498C60.4007 45.2606 59.8745 44.7405 59.8745 44.099Z" fill="white"/>
<path d="M85.6196 15.878C85.7599 15.3602 85.9037 14.8409 86.0468 14.3239C85.9066 14.8417 85.7628 15.361 85.6196 15.878Z" fill="#BFBFBF"/>
<path d="M84.3622 15.3871C84.4254 15.1539 84.4879 14.923 84.5511 14.6897L84.6914 14.1719C84.704 14.1253 84.7159 14.0584 84.7343 14.0133C84.6105 14.4705 84.4831 14.9292 84.3564 15.3855L84.3622 15.3871Z" fill="#BFBFBF"/>
<path d="M85.789 16.2551C85.8249 16.1222 85.7537 15.9923 85.6191 15.8776C85.759 15.3599 85.9025 14.8407 86.0454 14.3239C86.1806 14.4363 86.2512 14.5684 86.2152 14.7013C86.0892 15.1677 85.918 15.7895 85.789 16.2551Z" fill="#BFBFBF"/>
<path d="M86.2152 14.7011L85.7881 16.2552C85.7818 16.2785 85.7719 16.3034 85.7562 16.3267L86.1834 14.7725C86.1962 14.7485 86.2089 14.7244 86.2152 14.7011Z" fill="white"/>
<path d="M81.8169 13.736C81.693 14.1931 81.5657 14.6518 81.4389 15.1082C81.5627 14.651 81.6901 14.1923 81.8169 13.736Z" fill="#BFBFBF"/>
<path d="M81.3925 15.2892C81.2357 15.316 81.1399 15.3822 81.1166 15.4685L81.5418 13.916C81.565 13.8298 81.6579 13.7628 81.8177 13.7368C81.6781 14.254 81.535 14.7728 81.3925 15.2892C81.5321 14.772 81.6752 14.2532 81.8177 13.7368C82.1378 13.6824 82.5962 13.8088 82.8476 14.0208C82.7244 14.4774 82.5976 14.9356 82.4715 15.3915L82.4225 15.5732C82.174 15.362 81.7121 15.2371 81.3925 15.2892Z" fill="#BFBFBF"/>
<path d="M83.4477 14.528L83.0221 16.0812L82.4172 15.5713L82.8427 14.0182L83.4477 14.528Z" fill="#BFBFBF"/>
<path d="M83.0199 16.0774C83.1594 15.5603 83.3024 15.0417 83.4448 14.5255C83.8675 14.3217 84.3114 14.1314 84.7381 14.0163C84.6771 14.2423 84.6168 14.4658 84.5559 14.6918C84.4767 14.9852 84.3981 15.2763 84.3161 15.569C84.4556 15.052 84.5986 14.5334 84.741 14.0171C85.1343 13.9104 85.7503 14.0753 86.0527 14.3288C85.9132 14.8459 85.7702 15.3645 85.6278 15.8807C85.326 15.6248 84.7094 15.4623 84.3161 15.569C83.8893 15.684 83.4454 15.8744 83.0228 16.0782L83.0199 16.0774Z" fill="#BFBFBF"/>
<path d="M81.1166 15.4704L81.5429 13.9166C81.5196 14.0029 81.5684 14.1116 81.6933 14.2161L81.267 15.7699C81.1427 15.663 81.0933 15.5567 81.1166 15.4704Z" fill="white"/>
<path d="M86.1856 14.7768L85.7601 16.3299C85.6351 16.5734 85.0244 16.7783 84.5923 16.9923L85.0178 15.4391C85.4499 15.2252 86.0606 15.0203 86.1856 14.7768Z" fill="white"/>
<path d="M87.0918 17.7931C87.232 17.2752 87.3758 16.7559 87.519 16.2389C87.3788 16.7567 87.2349 17.276 87.0918 17.7931Z" fill="#BFBFBF"/>
<path d="M82.5819 14.9694L82.1566 16.5222L81.2655 15.7683L81.6909 14.2155L82.5819 14.9694Z" fill="white"/>
<path d="M87.4924 18.0079C87.4062 17.9341 87.2756 17.863 87.0917 17.7923C87.2315 17.2748 87.3748 16.7557 87.5175 16.2389C87.7014 16.3096 87.8314 16.383 87.9182 16.4545C87.7784 16.9721 87.6351 17.4911 87.4924 18.0079Z" fill="#BFBFBF"/>
<path d="M87.4907 18.0079C87.631 17.4901 87.7748 16.9708 87.9179 16.4537C87.7777 16.9716 87.6339 17.4909 87.4907 18.0079Z" fill="#BFBFBF"/>
<path d="M85.2558 17.552C85.3953 17.035 85.5384 16.5164 85.6808 16.0002C86.208 16.0205 87.0348 16.0508 87.5191 16.2419C87.3796 16.759 87.2366 17.2775 87.0942 17.7937C86.6092 17.605 85.7825 17.5746 85.2558 17.552Z" fill="#BFBFBF"/>
<path d="M87.6207 18.324C87.6485 18.2214 87.6178 18.1152 87.4906 18.0076C87.6305 17.4899 87.7741 16.9706 87.9169 16.4537C88.0442 16.5614 88.0748 16.6676 88.0471 16.7702C87.921 17.2366 87.7497 17.8584 87.6207 18.324Z" fill="#BFBFBF"/>
<path d="M82.5809 14.9693L82.1548 16.5229C82.0054 16.602 81.8607 16.6749 81.7308 16.7394L82.1569 15.1857C82.2868 15.1213 82.4314 15.0484 82.5809 14.9693Z" fill="#BFBFBF"/>
<path d="M85.0199 15.441L84.5943 16.9942C84.0965 17.2201 83.8814 17.3462 83.608 17.5037L84.0336 15.9506C84.307 15.793 84.522 15.6669 85.0199 15.441Z" fill="white"/>
<path d="M85.2575 17.5551C84.4712 17.5359 84.0786 17.5128 83.6081 17.5007C83.7313 17.0441 83.8581 16.586 83.9841 16.1302L84.0332 15.9485C84.5065 15.9614 84.8962 15.9838 85.6826 16.0029C85.5569 16.4688 85.3861 17.09 85.2575 17.5551Z" fill="#BFBFBF"/>
<path d="M75.1713 14.5597C74.9635 14.8308 74.8155 15.1233 74.7316 15.4335L75.1582 13.8796C75.2421 13.5694 75.3901 13.2769 75.5979 13.0058C75.5279 13.2647 75.4578 13.5235 75.3872 13.7847L75.2257 14.3817C75.2112 14.4354 75.1997 14.5124 75.1765 14.5637L75.1713 14.5597Z" fill="#4F63D1"/>
<path d="M78.7685 12.7828C77.017 13.0794 75.8049 13.707 75.1695 14.5385C75.3089 14.0224 75.4518 13.5048 75.594 12.9895C76.2294 12.1581 77.4415 11.5305 79.1929 11.2338C83.867 10.4412 90.6196 12.3018 94.2768 15.3901C96.1169 16.9436 96.8203 18.5111 96.4699 19.7857L96.0454 21.3347C96.3958 20.06 95.6895 18.4917 93.8523 16.939C90.1951 13.8508 83.4454 11.991 78.7685 12.7828Z" fill="#4F63D1"/>
<path d="M85.5657 16.8613L85.1408 18.4131C84.5254 18.396 83.8578 18.3995 82.9558 18.371L83.3807 16.8192C84.2827 16.8477 84.9503 16.8442 85.5657 16.8613Z" fill="white"/>
<path d="M85.1285 18.4143C85.2687 17.8965 85.4125 17.3772 85.5557 16.8602L85.5634 16.8548L85.1362 18.4089L85.1285 18.4143Z" fill="#BFBFBF"/>
<path d="M89.5636 19.5863C89.7032 19.069 89.8463 18.5501 89.9888 18.0336C90.3081 18.0866 90.6502 18.2285 90.8482 18.3958C90.7086 18.9131 90.5655 19.4319 90.423 19.9484C90.5626 19.4311 90.7057 18.9123 90.8482 18.3958C90.9751 18.5033 91.0434 18.6198 91.0126 18.734L90.5874 20.2866C90.6182 20.1725 90.5498 20.056 90.423 19.9484C90.2249 19.7811 89.8829 19.6392 89.5636 19.5863Z" fill="#BFBFBF"/>
<path d="M87.5708 19.5136C87.7103 18.9965 87.8534 18.4779 87.9958 17.9617C88.5591 17.9869 89.4292 17.9491 89.9885 18.0358C89.849 18.5528 89.7059 19.0714 89.5635 19.5877C89.0043 19.501 88.1342 19.5388 87.5708 19.5136Z" fill="#BFBFBF"/>
<path d="M81.7295 16.74C81.3293 16.9277 80.6244 17.2393 80.5227 17.6044L80.9482 16.0513C81.047 15.6854 81.7549 15.3746 82.155 15.1869C82.0291 15.653 82.0614 16.3657 81.7295 16.74Z" fill="#BFBFBF"/>
<path d="M80.5229 17.6052L80.9492 16.0514C80.9145 16.1797 80.9528 16.3155 81.1063 16.4529L80.68 18.0067C80.5271 17.8669 80.4882 17.7334 80.5229 17.6052Z" fill="white"/>
<path d="M88.0467 16.7723L87.6213 18.3253C87.5558 18.5677 87.1564 18.7881 86.881 18.93C86.3752 19.1863 86.1756 19.3015 85.8691 19.4549L86.2945 17.902C86.601 17.7486 86.8006 17.6333 87.3064 17.3771C87.5847 17.2359 87.9813 17.0147 88.0467 16.7723Z" fill="white"/>
<path d="M87.5729 19.5165C86.7331 19.4876 86.3811 19.4756 85.8665 19.4539C85.9897 18.9973 86.1164 18.5392 86.2425 18.0835L86.2915 17.9018C86.8054 17.9259 87.1545 17.9371 87.9979 17.9644C87.8722 18.4303 87.7014 19.0514 87.5729 19.5165Z" fill="#BFBFBF"/>
<path d="M85.1306 18.4149C84.746 18.5918 84.2586 18.803 83.6943 19.0681C83.834 18.5507 83.9771 18.0318 84.1197 17.5152C84.684 17.2501 85.1749 17.0374 85.556 16.862C85.417 17.3771 85.2757 17.889 85.1338 18.4033C85.1325 18.4079 85.1319 18.4102 85.1306 18.4149Z" fill="#BFBFBF"/>
<path d="M83.6935 19.0729C83.8338 18.5551 83.9769 18.0381 84.1201 17.5211C84.0506 17.7777 83.9798 18.0389 83.9097 18.2978L83.7233 18.9859C83.7164 19.0116 83.7144 19.0536 83.6993 19.0745L83.6935 19.0729Z" fill="#BFBFBF"/>
<path d="M83.3838 16.8214L82.959 18.3728C82.3563 18.3668 81.1427 18.3973 80.7091 18.0301C80.6988 18.0222 80.6891 18.012 80.6787 18.0042L81.1035 16.4527C81.1035 16.4527 81.1236 16.4708 81.1339 16.4786C81.5675 16.8459 82.7841 16.8161 83.3838 16.8214Z" fill="white"/>
<path d="M91.0117 18.7359L90.5867 20.2879C90.5792 20.3158 90.5658 20.3422 90.5467 20.3669C90.3985 20.5813 89.2163 20.5631 88.2678 20.5217L88.6927 18.9698C89.6406 19.0135 90.8235 19.0293 90.9717 18.815C90.9914 18.7879 91.0048 18.7615 91.0117 18.7359Z" fill="white"/>
<path d="M89.1411 19.3467L88.7153 20.9L88.2676 20.5237L88.6933 18.9704L89.1411 19.3467Z" fill="#BFBFBF"/>
<path d="M89.2898 19.6481L88.8635 21.2019C88.8868 21.1156 88.838 21.007 88.7138 20.9001L89.1401 19.3463C89.2644 19.4532 89.3138 19.5595 89.2898 19.6481Z" fill="#BFBFBF"/>
<path d="M83.6918 19.0723C83.3988 19.2095 82.9048 19.409 82.8387 19.6538L83.2644 18.1005C83.3312 17.8533 83.8246 17.6562 84.1176 17.519C84.0477 17.7777 83.9778 18.0365 83.9073 18.2976L83.7216 18.9853C83.7146 19.011 83.7127 19.053 83.6976 19.0739L83.6918 19.0723Z" fill="#BFBFBF"/>
<path d="M87.9865 19.5465L87.5611 21.0994L86.7967 20.453L87.2221 18.9L87.9865 19.5465Z" fill="white"/>
<path d="M87.2239 18.9026L86.799 20.4543C86.0883 20.421 85.4399 20.3998 84.6374 20.3486L85.0623 18.7969C85.8648 18.8481 86.5132 18.8693 87.2239 18.9026Z" fill="white"/>
<path d="M89.2895 19.6497L88.8644 21.2021C88.8411 21.2883 88.7482 21.3553 88.5885 21.3814C88.2683 21.4358 87.8105 21.307 87.5585 21.0974L87.9837 19.5449C88.2322 19.7561 88.6935 19.8833 89.0136 19.8289C89.1705 19.8021 89.2663 19.7359 89.2895 19.6497Z" fill="white"/>
<path d="M82.8442 19.654L83.2691 18.1022C83.2439 18.1954 83.2771 18.2921 83.4009 18.3988C83.7967 18.7332 84.4482 18.7552 85.0653 18.8003L84.6404 20.3521C84.0232 20.307 83.3718 20.285 82.976 19.9506C82.8515 19.8462 82.8161 19.7464 82.8442 19.654Z" fill="white"/>
<path d="M96.4607 19.8025L96.0362 21.3514C95.6901 22.6098 94.3186 23.5855 91.9962 23.9796C87.3222 24.7722 80.5696 22.9116 76.9153 19.8242C75.0752 18.2707 74.3718 16.7032 74.72 15.4255L75.1445 13.8766C74.7941 15.1512 75.5003 16.7195 77.3398 18.2753C80.9941 21.3627 87.7466 23.2233 92.4207 22.4307C94.7431 22.0366 96.114 21.0632 96.4607 19.8025Z" fill="#BFBFBF"/>
<path d="M94.273 15.3992C97.9301 18.4888 97.1071 21.6334 92.429 22.4229C87.7509 23.2124 80.9981 21.3489 77.341 18.2593C73.6811 15.1689 74.5069 12.0251 79.1822 11.2348C83.8574 10.4445 90.6131 12.3088 94.273 15.3992ZM87.9936 19.5406C88.2419 19.7514 88.7027 19.8786 89.0225 19.8245C89.3422 19.7704 89.397 19.5557 89.1487 19.3448L88.7019 18.9693C89.6491 19.0134 90.831 19.0298 90.979 18.8159C91.0783 18.6785 91.0095 18.5296 90.8546 18.3995C90.6568 18.2325 90.3151 18.0908 89.9962 18.0377C89.4374 17.9509 88.5679 17.9882 88.0049 17.9627C87.1658 17.9335 86.8141 17.9214 86.3 17.8994C86.6059 17.7465 86.8051 17.6316 87.3098 17.3763C87.7035 17.1752 88.3419 16.8169 87.9216 16.4587C87.8356 16.385 87.7053 16.3141 87.5219 16.2435C87.0372 16.0548 86.211 16.0241 85.6847 16.0013C84.899 15.9818 84.5067 15.9584 84.0367 15.9461C84.3095 15.7891 84.524 15.6635 85.0206 15.4384C85.4517 15.2252 86.061 15.0212 86.1857 14.7784C86.2778 14.6215 86.205 14.464 86.0479 14.3307C85.7463 14.0752 85.13 13.9126 84.737 14.0189C84.3106 14.1335 83.8671 14.3234 83.4449 14.5265L82.841 14.0177C82.5927 13.8068 82.1312 13.682 81.8121 13.7338C81.493 13.7856 81.4382 14.0003 81.6865 14.2111L82.5766 14.9637C82.4276 15.0425 82.2835 15.1151 82.1541 15.1793C81.6133 15.4297 80.5222 15.9078 81.107 16.4413C81.1167 16.4515 81.127 16.4594 81.1374 16.4672C81.5709 16.8341 82.7869 16.805 83.3864 16.8106C84.2878 16.8396 84.955 16.8364 85.57 16.8537C85.1862 17.03 84.6927 17.2435 84.1253 17.5115C83.7261 17.6986 82.9536 17.9999 83.4026 18.3786C83.8087 18.7204 84.4568 18.7419 85.0736 18.7872C85.8755 18.8387 86.5236 18.8602 87.2338 18.8938L87.9971 19.539" fill="#01A0B2"/>
<path d="M94.2734 15.3991C93.3575 14.6269 92.2497 13.9315 91.0281 13.3347C90.7227 13.1855 90.4096 13.0416 90.0911 12.9063C89.7732 12.7686 89.45 12.6395 89.1219 12.5165L88.1258 12.1691L87.109 11.8636C86.767 11.7692 86.4231 11.6818 86.0796 11.6045C85.7362 11.5272 85.3914 11.4545 85.0471 11.392C84.7027 11.3294 84.3594 11.2747 84.0165 11.23C83.6736 11.1853 83.3352 11.1469 82.9972 11.1185C82.6592 11.0902 82.3251 11.0704 81.9972 11.0624C81.0084 11.0342 80.0599 11.0872 79.1819 11.237C74.5067 12.0273 73.6837 15.1719 77.3407 18.2615C77.569 18.4544 77.8107 18.6435 78.0607 18.8249C78.313 19.0094 78.5736 19.1862 78.8477 19.3592C79.1189 19.5314 79.4006 19.6991 79.6906 19.8591C79.9801 20.0213 80.2778 20.1759 80.5832 20.3252C80.8886 20.4744 81.2017 20.6182 81.5202 20.7535C81.838 20.8912 82.1613 21.0204 82.4893 21.1434C82.8174 21.2664 83.1502 21.3832 83.4855 21.4907C83.8208 21.5982 84.1603 21.7019 84.5023 21.7963L85.5316 22.0553L86.5642 22.2678C87.2529 22.3929 87.9381 22.4846 88.6112 22.5405C88.9492 22.5688 89.2833 22.5886 89.6111 22.5967C89.9419 22.6055 90.2653 22.6073 90.5853 22.5983C91.2255 22.5801 91.8419 22.5229 92.4258 22.4243C97.1011 21.634 97.927 18.4903 94.2699 15.4006L94.2734 15.3991Z" fill="#01A0B2"/>
<path d="M94.1664 15.6788C97.8477 18.7476 97.0508 21.8994 92.3867 22.7177C87.7226 23.5361 80.9592 21.7121 77.2785 18.641C73.5971 15.5721 74.3918 12.4172 79.0552 11.6012C83.7194 10.7828 90.4857 12.6076 94.1664 15.6788ZM87.9287 19.8616C88.1805 20.071 88.6391 20.195 88.9588 20.1409C89.2786 20.0868 89.3311 19.869 89.0793 19.6596L88.6319 19.2864C89.578 19.3227 90.7583 19.3338 90.9063 19.1198C91.0056 18.9824 90.9368 18.8335 90.779 18.7026C90.5783 18.5348 90.236 18.3954 89.9194 18.3455C89.3598 18.261 88.492 18.3038 87.9284 18.2806C87.0881 18.256 86.7387 18.247 86.2269 18.2281C86.5298 18.0745 86.7296 17.9573 87.2321 17.6988C87.6235 17.4946 88.2596 17.1332 87.8329 16.7757C87.7463 16.7043 87.6165 16.6311 87.4326 16.5628C86.9472 16.3765 86.1197 16.3504 85.5922 16.3322C84.8082 16.3182 84.4153 16.2971 83.9447 16.2872C84.2145 16.1294 84.4296 16.0014 84.9211 15.7724C85.35 15.5561 85.957 15.3489 86.0787 15.1053C86.1679 14.9476 86.0952 14.7902 85.9381 14.6569C85.6358 14.4036 85.0189 14.2434 84.6281 14.3529C84.2041 14.4706 83.7628 14.6635 83.3429 14.8698L82.7354 14.3625C82.4836 14.1532 82.0251 14.0291 81.7047 14.0856C81.3843 14.142 81.3331 14.3552 81.5849 14.5645L82.4826 15.3118C82.3337 15.3905 82.1896 15.4632 82.0595 15.5297C81.521 15.7832 80.4344 16.2676 81.0227 16.7995C81.0324 16.8097 81.0428 16.8176 81.0531 16.8254C81.4902 17.1908 82.7023 17.1531 83.303 17.1541C84.2057 17.1784 84.8712 17.1697 85.484 17.184C85.1024 17.3634 84.6112 17.58 84.0461 17.8511C83.6492 18.0413 82.8789 18.3457 83.3315 18.7229C83.7381 19.0624 84.3875 19.0792 85.0049 19.1222C85.8052 19.1683 86.4539 19.1874 87.1654 19.2164L87.9329 19.8578" fill="url(#paint6_linear_2572_71487)"/>
<path d="M94.1661 15.6786C93.2461 14.9102 92.1335 14.2211 90.9071 13.6304C90.6011 13.4835 90.2873 13.342 89.9689 13.2066C89.6504 13.0713 89.3265 12.9445 88.9949 12.823L87.9946 12.4795L86.9759 12.1809C86.6339 12.0865 86.2917 12.0046 85.9453 11.9265C85.6019 11.8492 85.2559 11.7812 84.9109 11.721C84.5659 11.6607 84.222 11.6083 83.882 11.5644C83.539 11.5197 83.1994 11.4859 82.8637 11.4607C82.5279 11.4355 82.1932 11.4181 81.8625 11.4092C80.8752 11.3865 79.9249 11.4465 79.0521 11.6002C74.388 12.4186 73.594 15.5711 77.2753 18.64C77.5042 18.8305 77.7465 19.0173 77.9994 19.1995C78.2524 19.3816 78.5165 19.5569 78.7876 19.7292C79.0623 19.8999 79.3447 20.0652 79.6348 20.2252C79.9248 20.3851 80.2261 20.5382 80.5321 20.6851C80.8381 20.832 81.1518 20.9735 81.4703 21.1088C81.7888 21.2442 82.1127 21.371 82.4442 21.4925C82.7729 21.6131 83.1064 21.7276 83.4446 21.8359C83.7828 21.9443 84.1206 22.0425 84.4633 22.1345L85.4938 22.389L86.5283 22.5945C87.2182 22.7149 87.904 22.8043 88.5784 22.8555C88.9141 22.8807 89.2488 22.8982 89.5796 22.907C89.9075 22.9151 90.235 22.9131 90.5528 22.9009C91.1913 22.8773 91.8083 22.8178 92.39 22.716C97.0541 21.8977 97.851 18.7459 94.1697 15.6771L94.1661 15.6786Z" fill="url(#paint7_linear_2572_71487)"/>
<path d="M98.3534 20.3308L97.9289 21.8796C97.522 23.3633 95.9055 24.5088 93.1717 24.9743C87.669 25.9081 79.7173 23.7172 75.4144 20.0817C73.2477 18.251 72.417 16.4063 72.8289 14.9039L73.2534 13.3551C72.8414 14.8574 73.6716 16.7045 75.8389 18.5329C80.1447 22.1692 88.0935 24.3593 93.5961 23.4255C96.3322 22.9631 97.9465 21.8145 98.3534 20.3308Z" fill="#01A0B2"/>
<path d="M95.7771 15.1388C100.084 18.778 99.1095 22.4808 93.6025 23.4146C88.0983 24.3491 80.1445 22.1565 75.8404 18.5181C71.5364 14.8797 72.5057 11.1729 78.0092 10.2407C83.5128 9.30845 91.4672 11.4988 95.7742 15.138L95.7771 15.1388ZM77.3445 18.2629C80.9997 21.3525 87.7539 23.2145 92.4292 22.4213C97.1044 21.6281 97.9318 18.4821 94.2765 15.3924C90.6184 12.302 83.8671 10.4409 79.189 11.2332C74.5137 12.0264 73.6893 15.1733 77.3445 18.2629Z" fill="url(#paint8_linear_2572_71487)"/>
<path d="M86.0428 14.3294C86.1999 14.4626 86.2726 14.6201 86.1804 14.7772C86.0556 15.0202 85.4463 15.2246 85.0151 15.4382C84.5184 15.6637 84.3039 15.7895 84.031 15.9467C84.501 15.9588 84.8932 15.9819 85.6788 16.0011C86.2057 16.0213 87.0318 16.0516 87.5158 16.2425C87.6991 16.313 87.8287 16.3863 87.9153 16.4576C88.3389 16.8144 87.6998 17.1755 87.3032 17.3761C86.7983 17.6318 86.5992 17.7469 86.2932 17.9C86.8066 17.9241 87.1554 17.9352 87.9979 17.9625C88.5608 17.9877 89.4302 17.95 89.989 18.0365C90.3079 18.0894 90.6494 18.2311 90.8472 18.3981C91.0042 18.5314 91.073 18.6803 90.9713 18.8147C90.8233 19.0288 89.6421 19.0106 88.6944 18.9693L89.1409 19.3449C89.3891 19.5557 89.3342 19.7706 89.0145 19.8249C88.6947 19.8792 88.2375 19.7507 87.9858 19.5413L87.2229 18.8961C86.5128 18.8628 85.8647 18.8416 85.0629 18.7905C84.4462 18.7455 83.7952 18.7235 83.3997 18.3895C82.9412 18.0007 83.7161 17.7019 84.1124 17.5138C84.6799 17.2453 85.1728 17.0338 85.5573 16.8548C84.9424 16.8378 84.2752 16.8413 83.3739 16.8128C82.7716 16.8067 81.5586 16.8372 81.1252 16.4703C81.1149 16.4625 81.1052 16.4523 81.0949 16.4445C80.5104 15.9109 81.6045 15.4328 82.1425 15.1812C82.272 15.1169 82.4161 15.0441 82.5651 14.9652L81.6755 14.2126C81.4273 14.0017 81.4815 13.7893 81.8013 13.7349C82.121 13.6806 82.5789 13.8068 82.8299 14.0185L83.4335 14.5273C83.8564 14.3215 84.2994 14.1337 84.7258 14.0188C85.1188 13.9122 85.7343 14.0768 86.0364 14.3301L86.0428 14.3294Z" fill="white"/>
<path d="M67.8066 5.03923C67.6774 4.86073 67.5486 4.6807 67.4205 4.50147C67.5497 4.67997 67.6784 4.86 67.8066 5.03923Z" fill="#BFBFBF"/>
<path d="M67.3257 5.31782C67.2675 5.23742 67.2099 5.15782 67.1517 5.07742L67.0225 4.89892C67.0109 4.88284 66.9926 4.86178 66.983 4.84424C67.097 5.00184 67.2107 5.16096 67.3237 5.31928L67.3257 5.31782Z" fill="#BFBFBF"/>
<path d="M67.9702 5.0816C67.937 5.03579 67.8773 5.02522 67.8061 5.03895C67.6769 4.86054 67.5482 4.68061 67.42 4.50147C67.4906 4.48694 67.5509 4.49832 67.5841 4.54412C67.7005 4.70485 67.8548 4.92014 67.9702 5.0816Z" fill="#BFBFBF"/>
<path d="M67.5842 4.54445L67.9703 5.08219C67.9761 5.09023 67.9815 5.0998 67.9849 5.11084L67.5988 4.5731C67.5944 4.56279 67.59 4.55249 67.5842 4.54445Z" fill="white"/>
<path d="M66.1431 5.71045C66.2572 5.86805 66.3708 6.02717 66.4839 6.1855C66.3698 6.0279 66.2562 5.86878 66.1431 5.71045Z" fill="#BFBFBF"/>
<path d="M66.5299 6.24815C66.4981 6.30556 66.4945 6.35345 66.5161 6.38316L66.1301 5.8462C66.1086 5.8165 66.1111 5.76933 66.1439 5.7112C66.2731 5.88943 66.4018 6.06919 66.5299 6.24815C66.4008 6.06992 66.2721 5.89016 66.1439 5.7112C66.209 5.59413 66.3673 5.47916 66.4996 5.45289C66.6136 5.61025 66.7272 5.76914 66.8402 5.92722L66.8855 5.98984C66.7542 6.01539 66.5955 6.13188 66.5299 6.24815Z" fill="#BFBFBF"/>
<path d="M66.8159 5.39036L67.2019 5.92755L66.8837 5.99081L66.4976 5.45362L66.8159 5.39036Z" fill="#BFBFBF"/>
<path d="M67.2008 5.92721C67.0717 5.74904 66.9431 5.56933 66.815 5.39043C66.8588 5.20187 66.9123 5.0099 66.9854 4.84288C67.0418 4.92073 67.0976 4.99778 67.154 5.07563C67.2273 5.17676 67.2999 5.27708 67.3722 5.37894C67.2431 5.20076 67.1145 5.02106 66.9864 4.84215C67.0536 4.68803 67.2647 4.53223 67.4235 4.50025C67.5525 4.67843 67.6812 4.85813 67.8093 5.03703C67.65 5.06821 67.4394 5.22482 67.3722 5.37894C67.2991 5.54595 67.2456 5.73793 67.2018 5.92648L67.2008 5.92721Z" fill="#BFBFBF"/>
<path d="M66.5166 6.38272L66.1304 5.84522C66.152 5.87496 66.1992 5.88727 66.2646 5.87404L66.6508 6.41154C66.5847 6.42397 66.5381 6.41246 66.5166 6.38272Z" fill="white"/>
<path d="M67.601 4.57339L67.9871 5.11057C68.0326 5.21356 67.9409 5.46285 67.8979 5.65705L67.5119 5.11986C67.5548 4.92566 67.6466 4.67638 67.601 4.57339Z" fill="white"/>
<path d="M68.7973 5.05876C68.6681 4.88026 68.5394 4.70023 68.4112 4.521C68.5404 4.6995 68.6691 4.87953 68.7973 5.05876Z" fill="#BFBFBF"/>
<path d="M66.7341 5.78303L67.12 6.3201L66.6502 6.41257L66.2642 5.8755L66.7341 5.78303Z" fill="white"/>
<path d="M68.9691 4.98594C68.9234 4.99464 68.8671 5.01836 68.7973 5.05929C68.6681 4.88094 68.5394 4.70106 68.4112 4.52198C68.481 4.48106 68.5379 4.45814 68.583 4.44864C68.7122 4.62699 68.841 4.80687 68.9691 4.98594Z" fill="#BFBFBF"/>
<path d="M68.9687 4.98649C68.8395 4.808 68.7108 4.62796 68.5826 4.44874C68.7118 4.62723 68.8405 4.80726 68.9687 4.98649Z" fill="#BFBFBF"/>
<path d="M68.2472 5.58754C68.1181 5.40937 67.9895 5.22967 67.8614 5.05078C68.0036 4.88628 68.2261 4.62795 68.4117 4.52131C68.5408 4.69948 68.6694 4.87918 68.7975 5.05808C68.6125 5.16552 68.39 5.42384 68.2472 5.58754Z" fill="#BFBFBF"/>
<path d="M69.1031 5.02595C69.0775 4.99059 69.0358 4.9731 68.9687 4.98626C68.8395 4.80784 68.7108 4.62789 68.5826 4.44874C68.6496 4.43558 68.6914 4.45307 68.717 4.48843C68.8334 4.64917 68.9878 4.86449 69.1031 5.02595Z" fill="#BFBFBF"/>
<path d="M66.7336 5.78241L67.1198 6.31982C67.1066 6.38827 67.0926 6.45358 67.0798 6.51196L66.6937 5.97455C66.7065 5.91617 66.7204 5.85086 66.7336 5.78241Z" fill="#BFBFBF"/>
<path d="M67.513 5.11981L67.899 5.65702C67.843 5.87544 67.8279 5.97711 67.8079 6.1057L67.4218 5.56849C67.4419 5.4399 67.457 5.33823 67.513 5.11981Z" fill="white"/>
<path d="M68.2484 5.58737C68.04 5.83556 67.9315 5.95597 67.8066 6.10427C67.6926 5.94694 67.5791 5.78808 67.4661 5.63002L67.4207 5.56741C67.5467 5.41838 67.6541 5.2987 67.8626 5.05051C67.9789 5.21105 68.1331 5.4261 68.2484 5.58737Z" fill="#BFBFBF"/>
<path d="M64.6946 8.06097C64.7277 8.19764 64.783 8.32059 64.8604 8.42749L64.4742 7.88991C64.3968 7.783 64.3415 7.66005 64.3085 7.52339C64.3731 7.61261 64.4377 7.70183 64.5028 7.79185L64.6518 7.99762C64.6652 8.01611 64.6868 8.03964 64.6972 8.06032L64.6946 8.06097Z" fill="#4F63D1"/>
<path d="M65.0548 6.44737C64.6987 7.08775 64.587 7.63984 64.6889 8.05882C64.56 7.88087 64.4316 7.70138 64.3037 7.5227C64.2018 7.10372 64.3134 6.55164 64.6696 5.91125C65.6197 4.20204 67.952 2.50791 69.8795 2.12689C70.8491 1.93511 71.5307 2.11289 71.8474 2.55442L72.2327 3.09054C71.9159 2.64901 71.2334 2.47195 70.2647 2.663C68.3373 3.04402 66.006 4.73743 65.0548 6.44737Z" fill="#4F63D1"/>
<path d="M68.1065 5.30903L68.4923 5.84579C68.3284 6.03948 68.1577 6.25532 67.9165 6.53833L67.5307 6.00156C67.7719 5.71856 67.9427 5.50272 68.1065 5.30903Z" fill="white"/>
<path d="M68.49 5.85022C68.3608 5.67173 68.232 5.4917 68.1039 5.31247L68.1041 5.3086L68.4903 5.84635L68.49 5.85022Z" fill="#BFBFBF"/>
<path d="M70.0063 4.72571C69.8772 4.54746 69.7485 4.36768 69.6204 4.1887C69.7194 4.09959 69.8527 4.02606 69.9571 4.00543C70.0862 4.18368 70.2149 4.36346 70.343 4.54244C70.2139 4.36419 70.0852 4.18441 69.9571 4.00543C70.024 3.99233 70.0788 4.00036 70.1073 4.0397L70.4932 4.57671C70.4647 4.53737 70.41 4.52934 70.343 4.54244C70.2387 4.56307 70.1054 4.6366 70.0063 4.72571Z" fill="#BFBFBF"/>
<path d="M69.47 5.34798C69.3409 5.16981 69.2122 4.9901 69.0842 4.8112C69.2372 4.63635 69.4491 4.34652 69.6207 4.18883C69.7497 4.36701 69.8784 4.54671 70.0065 4.72562C69.8349 4.8833 69.623 5.17314 69.47 5.34798Z" fill="#BFBFBF"/>
<path d="M67.0797 6.51265C67.0367 6.68978 66.9547 6.99693 67.045 7.12375L66.659 6.58657C66.5677 6.46047 66.6506 6.1526 66.6937 5.97547C66.81 6.13611 67.0457 6.30938 67.0797 6.51265Z" fill="#BFBFBF"/>
<path d="M67.0454 7.12392L66.6592 6.58643C66.6912 6.63063 66.7444 6.65332 66.8277 6.63938L67.2139 7.17687C67.13 7.19 67.0774 7.16812 67.0454 7.12392Z" fill="white"/>
<path d="M68.7171 4.48791L69.1031 5.02503C69.1636 5.10856 69.1311 5.29391 69.1056 5.41911C69.0571 5.64792 69.0426 5.74184 69.0127 5.88001L68.6266 5.34289C68.6566 5.20471 68.6711 5.11079 68.7195 4.88199C68.7461 4.75606 68.7776 4.57143 68.7171 4.48791Z" fill="white"/>
<path d="M69.4711 5.34796C69.2457 5.61084 69.1513 5.72106 69.0119 5.88108C68.898 5.72375 68.7844 5.56489 68.6714 5.40684L68.6261 5.34423C68.766 5.18502 68.8594 5.07552 69.0852 4.81111C69.2015 4.97165 69.3558 5.1867 69.4711 5.34796Z" fill="#BFBFBF"/>
<path d="M68.4902 5.84996C68.4477 6.01933 68.3896 6.2306 68.329 6.48053C68.1999 6.30225 68.0711 6.12244 67.943 5.94343C68.0036 5.6935 68.0621 5.48069 68.1042 5.31286C68.2327 5.49034 68.3597 5.66774 68.4873 5.84595C68.4884 5.84755 68.489 5.84836 68.4902 5.84996Z" fill="#BFBFBF"/>
<path d="M68.3304 6.48178C68.2012 6.30328 68.0731 6.12406 67.9449 5.94483C68.0089 6.03327 68.0741 6.12333 68.1387 6.21257L68.3103 6.44976C68.3167 6.45861 68.3296 6.47009 68.3324 6.48032L68.3304 6.48178Z" fill="#BFBFBF"/>
<path d="M67.5317 6.00058L67.9174 6.53725C67.7603 6.72969 67.4577 7.12827 67.2289 7.17318C67.2238 7.17449 67.218 7.17499 67.2128 7.17629L66.8271 6.63962C66.8271 6.63962 66.838 6.63781 66.8432 6.63651C67.072 6.59159 67.3756 6.19228 67.5317 6.00058Z" fill="white"/>
<path d="M70.1075 4.04027L70.4933 4.57709C70.5003 4.58672 70.5053 4.59781 70.5083 4.61035C70.5385 4.71331 70.2284 5.08917 69.9711 5.38384L69.5853 4.84703C69.8432 4.55316 70.1527 4.17649 70.1224 4.07353C70.1189 4.06019 70.1139 4.0491 70.1075 4.04027Z" fill="white"/>
<path d="M69.8212 4.80012L70.2073 5.33739L69.9721 5.38445L69.586 4.84718L69.8212 4.80012Z" fill="#BFBFBF"/>
<path d="M69.9551 4.82895L70.3413 5.36645C70.3197 5.33672 70.2725 5.3244 70.2065 5.33683L69.8204 4.79932C69.8864 4.7869 69.933 4.79841 69.9551 4.82895Z" fill="#BFBFBF"/>
<path d="M68.33 6.48277C68.2984 6.61239 68.2349 6.82274 68.296 6.90709L67.9099 6.3698C67.8483 6.28465 67.9123 6.0751 67.9439 5.94549C68.0085 6.03466 68.073 6.12383 68.1382 6.2138L68.3099 6.45078C68.3163 6.45962 68.3292 6.47109 68.332 6.48131L68.33 6.48277Z" fill="#BFBFBF"/>
<path d="M69.587 5.22288L69.973 5.75999L69.5701 5.83937L69.1841 5.30225L69.587 5.22288Z" fill="white"/>
<path d="M69.1855 5.30171L69.5713 5.83846C69.3778 6.05863 69.2041 6.26192 68.9812 6.50705L68.5954 5.9703C68.8183 5.72517 68.992 5.52188 69.1855 5.30171Z" fill="white"/>
<path d="M69.9562 4.8297L70.3421 5.36666C70.3636 5.39636 70.3611 5.44353 70.3283 5.50166C70.2633 5.61873 70.1044 5.73289 69.9726 5.75997L69.5867 5.22301C69.7181 5.19747 69.8774 5.08178 69.9424 4.96471C69.9742 4.9073 69.9777 4.8594 69.9562 4.8297Z" fill="white"/>
<path d="M68.2975 6.90541L67.9117 6.36864C67.935 6.40074 67.9743 6.41501 68.0403 6.40265C68.2488 6.36141 68.4235 6.15739 68.5968 5.97034L68.9825 6.50711C68.8093 6.69416 68.6346 6.89819 68.4261 6.93942C68.3607 6.95258 68.3198 6.93824 68.2975 6.90541Z" fill="white"/>
<path d="M71.85 2.55959L72.2352 3.0957C72.5479 3.53161 72.5064 4.22481 72.0344 5.07414C71.0842 6.78334 68.7519 8.47747 66.8255 8.85777C65.8558 9.04955 65.1743 8.87177 64.856 8.43017L64.4708 7.89405C64.7875 8.33558 65.47 8.51263 66.4403 8.32166C68.3667 7.94136 70.699 6.24723 71.6491 4.53803C72.1211 3.6887 72.1632 2.9963 71.85 2.55959Z" fill="#BFBFBF"/>
<path d="M69.8803 2.12848C71.8075 1.7481 72.5997 2.82459 71.6481 4.53481C70.6965 6.24502 68.3643 7.93872 66.437 8.31909C64.5088 8.7002 63.7177 7.62298 64.6683 5.91349C65.6189 4.20401 67.9521 2.50958 69.8803 2.12848ZM69.5868 5.21932C69.718 5.19378 69.8772 5.0782 69.9421 4.96126C70.0071 4.84433 69.9527 4.7713 69.8215 4.79684L69.5867 4.8438C69.8444 4.55016 70.1538 4.1738 70.1236 4.07094C70.1053 4.00349 70.04 3.98725 69.9586 4.00353C69.8544 4.02415 69.7213 4.0976 69.6223 4.1866C69.4508 4.34418 69.239 4.6338 69.086 4.80851C68.8608 5.07117 68.7664 5.1813 68.6272 5.34117C68.6571 5.20322 68.6716 5.10945 68.72 4.88101C68.7571 4.70237 68.8069 4.40432 68.5844 4.44722C68.5388 4.4559 68.4826 4.47957 68.4129 4.52041C68.228 4.6278 68.0056 4.88594 67.8629 5.04953C67.6545 5.2975 67.5461 5.4178 67.4213 5.56597C67.4414 5.43762 67.4564 5.33613 67.5123 5.11812C67.5552 4.92426 67.6468 4.67542 67.6014 4.57262C67.575 4.50246 67.506 4.48526 67.4231 4.50147C67.2639 4.53265 67.0534 4.68916 66.9862 4.84316C66.9131 5.01004 66.8596 5.20184 66.8158 5.39023L66.498 5.4534C66.3668 5.47894 66.2083 5.59532 66.1427 5.71146C66.0771 5.82759 66.1316 5.90062 66.2628 5.87508L66.732 5.78268C66.7189 5.85097 66.7049 5.91612 66.6921 5.97436C66.6329 6.21312 66.5048 6.68787 66.8256 6.63723C66.8314 6.63673 66.8365 6.63542 66.8417 6.63412C67.0704 6.58919 67.3739 6.1901 67.5299 5.99849C67.7711 5.71569 67.9418 5.5 68.1055 5.30644C68.0631 5.47554 68.0042 5.68954 67.9438 5.94141C67.9008 6.11823 67.7983 6.44476 68.0347 6.39787C68.2483 6.35532 68.4219 6.15216 68.595 5.96524C68.8178 5.72027 68.9914 5.51712 69.1849 5.29709L69.5872 5.21779" fill="#01A0B2"/>
<path d="M69.8815 2.12817C69.3993 2.22383 68.8923 2.40115 68.3875 2.64052C68.2613 2.70036 68.1348 2.76406 68.0097 2.8317C67.8839 2.89853 67.7595 2.9693 67.6359 3.0432L67.2687 3.27436L66.9095 3.52295C66.7914 3.60872 66.675 3.6969 66.562 3.78756C66.449 3.87822 66.3371 3.97048 66.2285 4.06523C66.1199 4.15997 66.0141 4.25639 65.9116 4.35529C65.8091 4.45419 65.7098 4.55324 65.6138 4.65478C65.5178 4.75631 65.4255 4.85879 65.3386 4.9623C65.0752 5.27347 64.8481 5.59256 64.67 5.91397C63.7195 7.62345 64.5116 8.69994 66.4388 8.31956C66.5591 8.29583 66.6816 8.26679 66.8039 8.23308C66.9277 8.19945 67.0512 8.16116 67.1769 8.11755C67.3017 8.07467 67.4277 8.02721 67.5534 7.97509C67.6796 7.92376 67.8056 7.86778 67.9318 7.80794C68.058 7.7481 68.1845 7.6844 68.3096 7.61676C68.4353 7.54993 68.5597 7.47916 68.6834 7.40526C68.8071 7.33136 68.93 7.25433 69.0506 7.1741C69.1712 7.09386 69.2916 7.01129 69.4097 6.92552L69.7573 6.6609L70.0908 6.38323C70.3079 6.19375 70.5135 5.99675 70.7045 5.79441C70.8005 5.69288 70.8927 5.5904 70.9797 5.48689C71.0676 5.38266 71.1514 5.279 71.2308 5.17359C71.3897 4.96276 71.5301 4.74952 71.6488 4.53602C72.5994 2.82654 71.8083 1.74932 69.8811 2.1297L69.8815 2.12817Z" fill="#01A0B2"/>
<path d="M69.9423 2.23501C71.8692 1.84146 72.6703 2.91141 71.7315 4.62455C70.7928 6.33769 68.4704 8.04502 66.543 8.43778C64.6162 8.83133 63.8135 7.76131 64.7528 6.04897C65.6916 4.33582 68.0149 2.62777 69.9423 2.23501ZM69.6728 5.32312C69.8044 5.29605 69.962 5.1804 70.027 5.06346C70.092 4.94653 70.036 4.87342 69.9043 4.90049L69.6701 4.94825C69.9251 4.65294 70.2323 4.2757 70.2021 4.17284C70.1838 4.10539 70.1185 4.08914 70.0361 4.10615C69.9309 4.1275 69.7983 4.20175 69.701 4.29083C69.53 4.44921 69.3204 4.7397 69.168 4.91522C68.944 5.17948 68.8512 5.28968 68.7135 5.44963C68.7424 5.31241 68.7564 5.21784 68.8031 4.98933C68.8386 4.8106 68.8869 4.51248 68.663 4.55764C68.6179 4.56712 68.5612 4.58999 68.4921 4.63163C68.3077 4.73982 68.0865 4.99957 67.9449 5.16476C67.7387 5.4136 67.6309 5.53471 67.5067 5.68368C67.5257 5.55606 67.5402 5.45377 67.5936 5.2364C67.6348 5.04247 67.7249 4.79355 67.6784 4.69148C67.6511 4.62205 67.5821 4.60485 67.4991 4.62106C67.3405 4.65304 67.1306 4.81036 67.065 4.96443C66.9935 5.13138 66.9416 5.32326 66.8994 5.51172L66.5812 5.57642C66.4495 5.60349 66.292 5.71914 66.2276 5.83688C66.1632 5.95462 66.218 6.02612 66.3496 5.99905L66.8191 5.9028C66.806 5.97108 66.7921 6.03623 66.7798 6.09527C66.7222 6.33411 66.5973 6.80901 66.9185 6.75684C66.9242 6.75634 66.9294 6.75503 66.9346 6.75373C67.1636 6.70727 67.4635 6.30723 67.6183 6.11402C67.8583 5.82961 68.0268 5.61305 68.189 5.41941C68.1481 5.58859 68.0909 5.80267 68.032 6.05461C67.9906 6.2315 67.8896 6.5581 68.1265 6.50969C68.3395 6.46634 68.5119 6.26157 68.6845 6.07385C68.9051 5.82801 69.0781 5.62405 69.2704 5.40242L69.6726 5.32079" fill="url(#paint9_linear_2572_71487)"/>
<path d="M69.9421 2.23589C69.4601 2.33388 68.9538 2.51434 68.4498 2.75684C68.3241 2.81748 68.1982 2.88199 68.0731 2.94962C67.9479 3.01726 67.8241 3.08883 67.7 3.16426L67.333 3.39776L66.9756 3.64874C66.8575 3.73452 66.7433 3.82358 66.6292 3.91497C66.5162 4.00563 66.4055 4.09949 66.2975 4.19504C66.1895 4.29059 66.0843 4.38781 65.9828 4.48598C65.8803 4.58489 65.7821 4.68554 65.6877 4.78715C65.5933 4.88876 65.5016 4.99204 65.4137 5.09628C65.1524 5.40833 64.9271 5.72983 64.7516 6.05058C63.8128 7.76373 64.6149 8.83296 66.5418 8.4394C66.6615 8.41486 66.7834 8.38502 66.9067 8.35058C67.0299 8.31615 67.1538 8.27633 67.2786 8.23345C67.4037 8.18904 67.5292 8.14078 67.6548 8.08865C67.7805 8.03653 67.9069 7.97901 68.0325 7.91837C68.1582 7.85773 68.284 7.79322 68.4092 7.72559C68.5343 7.65795 68.6582 7.58638 68.7822 7.51095C68.9053 7.43625 69.0277 7.35842 69.1493 7.27745C69.2709 7.19649 69.3891 7.11304 69.5067 7.02647L69.853 6.76025L70.1848 6.48017C70.4007 6.28908 70.6057 6.09127 70.7956 5.88733C70.89 5.78573 70.9817 5.68244 71.0696 5.57821C71.1566 5.4747 71.2402 5.36871 71.318 5.26322C71.4748 5.05152 71.6145 4.83747 71.7317 4.6239C72.6705 2.91075 71.8693 1.8408 69.9425 2.23436L69.9421 2.23589Z" fill="url(#paint10_linear_2572_71487)"/>
<path d="M72.5059 2.08676L72.8912 2.62286C73.2601 3.13651 73.2097 3.95235 72.6546 4.95255C71.5362 6.96495 68.7898 8.95994 66.5214 9.40767C65.3791 9.63309 64.5763 9.42482 64.2027 8.90475L63.8174 8.36866C64.1911 8.88872 64.9945 9.0978 66.1361 8.87158C68.4056 8.42312 71.151 6.42885 72.2694 4.41645C72.8261 3.41633 72.8749 2.60041 72.5059 2.08676Z" fill="#01A0B2"/>
<path d="M70.1856 1.57853C72.4558 1.13021 73.3869 2.39868 72.2673 4.41241C71.1488 6.4254 68.4015 8.42077 66.1322 8.86837C63.863 9.31596 62.9293 8.04814 64.0485 6.03595C65.1676 4.02375 67.9143 2.02758 70.1846 1.57926L70.1856 1.57853ZM66.4379 8.31834C68.365 7.93815 70.698 6.24372 71.6483 4.53405C72.5986 2.82437 71.8074 1.74684 69.8803 2.12703C67.9522 2.50795 65.6202 4.20165 64.6689 5.91205C63.7186 7.62173 64.5109 8.69853 66.4379 8.31834Z" fill="url(#paint11_linear_2572_71487)"/>
<path d="M67.421 4.50306C67.5039 4.48686 67.5729 4.50407 67.5993 4.57424C67.6448 4.67707 67.5532 4.92594 67.5103 5.11983C67.4545 5.33788 67.4394 5.43938 67.4194 5.56776C67.5442 5.41957 67.6525 5.29926 67.8609 5.05128C68.003 4.88688 68.2253 4.62871 68.4108 4.52213C68.4805 4.4813 68.5372 4.45843 68.5823 4.44895C68.8052 4.40455 68.756 4.70345 68.7179 4.88285C68.6696 5.11132 68.655 5.20511 68.6251 5.34308C68.765 5.18399 68.8583 5.07459 69.0839 4.81038C69.2369 4.63565 69.4486 4.34601 69.6201 4.18843C69.719 4.09942 69.8522 4.02597 69.9564 4.00536C70.0393 3.98916 70.1046 4.00542 70.1213 4.07281C70.1516 4.17569 69.8417 4.55128 69.5845 4.84574L69.8194 4.7988C69.9506 4.77327 70.005 4.84633 69.94 4.96327C69.8751 5.08022 69.7163 5.19427 69.5847 5.22133L69.1824 5.30059C68.989 5.52063 68.8154 5.72381 68.5927 5.96879C68.4196 6.15572 68.245 6.35962 68.0366 6.40084C67.7944 6.44821 67.8985 6.12171 67.9405 5.9456C68.0009 5.69369 68.0602 5.48045 68.1021 5.31052C67.9384 5.5041 67.7678 5.7198 67.5266 6.00263C67.3697 6.19497 67.0671 6.59337 66.8385 6.63828C66.8333 6.63958 66.8276 6.64009 66.8224 6.64139C66.5017 6.692 66.6307 6.21645 66.6889 5.97838C66.7017 5.92013 66.7156 5.85497 66.7287 5.78667L66.2595 5.87902C66.1283 5.90455 66.0744 5.8323 66.1394 5.71535C66.2044 5.5984 66.3625 5.48355 66.4947 5.4573L66.8125 5.39416C66.8556 5.20493 66.9097 5.0139 66.9828 4.84701C67.0499 4.69299 67.261 4.53728 67.4196 4.50531L67.421 4.50306Z" fill="white"/>
<g filter="url(#filter3_d_2572_71487)">
<path d="M15.6834 48.5974C14.5142 47.3067 11.8352 47.8325 9.69981 49.7718C7.56438 51.711 6.78111 54.3294 7.95033 55.62C9.11955 56.9107 11.7985 56.385 13.9339 54.4457C16.0694 52.5065 16.8526 49.8881 15.6834 48.5974Z" fill="url(#paint12_linear_2572_71487)"/>
</g>
<path d="M27.1822 65.4512C29.6913 65.1031 31.5542 63.5785 31.3432 62.0461C31.1322 60.5137 28.9271 59.5537 26.4181 59.9018C23.909 60.25 22.0461 61.7745 22.2571 63.3069C22.4681 64.8393 24.6731 65.7994 27.1822 65.4512Z" fill="#A1E2CE"/>
<path d="M120.527 9.35782C121.725 7.83068 121.728 5.82714 120.534 4.88278C119.339 3.93842 117.399 4.41085 116.201 5.93799C115.003 7.46513 115.001 9.46868 116.195 10.413C117.39 11.3574 119.329 10.885 120.527 9.35782Z" fill="white"/>
<path d="M32.0074 23.6676C33.2051 22.4627 32.3011 19.6078 29.9883 17.291C27.6755 14.9741 24.8297 14.0726 23.632 15.2775C22.4343 16.4823 23.3383 19.3372 25.6511 21.654C27.9639 23.9709 30.8097 24.8724 32.0074 23.6676Z" fill="#677CEB"/>
<path d="M111.92 29.5657C114.072 28.0328 115.466 26.2944 115.034 25.683C114.602 25.0715 112.507 25.8185 110.355 27.3514C108.203 28.8843 106.809 30.6226 107.241 31.2341C107.673 31.8456 109.768 31.0986 111.92 29.5657Z" fill="#A1E2CE"/>
</g>
<defs>
<filter id="filter0_ii_2572_71487" x="19.4131" y="38.7979" width="103.536" height="89.9795" filterUnits="userSpaceOnUse" color-interpolation-filters="sRGB">
<feFlood flood-opacity="0" result="BackgroundImageFix"/>
<feBlend mode="normal" in="SourceGraphic" in2="BackgroundImageFix" result="shape"/>
<feColorMatrix in="SourceAlpha" type="matrix" values="0 0 0 0 0 0 0 0 0 0 0 0 0 0 0 0 0 0 127 0" result="hardAlpha"/>
<feOffset dy="4"/>
<feGaussianBlur stdDeviation="7.5"/>
<feComposite in2="hardAlpha" operator="arithmetic" k2="-1" k3="1"/>
<feColorMatrix type="matrix" values="0 0 0 0 0.805729 0 0 0 0 0.814388 0 0 0 0 0.875 0 0 0 1 0"/>
<feBlend mode="normal" in2="shape" result="effect1_innerShadow_2572_71487"/>
<feColorMatrix in="SourceAlpha" type="matrix" values="0 0 0 0 0 0 0 0 0 0 0 0 0 0 0 0 0 0 127 0" result="hardAlpha"/>
<feOffset dy="-2"/>
<feGaussianBlur stdDeviation="4.5"/>
<feComposite in2="hardAlpha" operator="arithmetic" k2="-1" k3="1"/>
<feColorMatrix type="matrix" values="0 0 0 0 0.41625 0 0 0 0 0.456333 0 0 0 0 0.616667 0 0 0 1 0"/>
<feBlend mode="normal" in2="effect1_innerShadow_2572_71487" result="effect2_innerShadow_2572_71487"/>
</filter>
<filter id="filter1_i_2572_71487" x="95.8037" y="67.377" width="4.93555" height="13.9824" filterUnits="userSpaceOnUse" color-interpolation-filters="sRGB">
<feFlood flood-opacity="0" result="BackgroundImageFix"/>
<feBlend mode="normal" in="SourceGraphic" in2="BackgroundImageFix" result="shape"/>
<feColorMatrix in="SourceAlpha" type="matrix" values="0 0 0 0 0 0 0 0 0 0 0 0 0 0 0 0 0 0 127 0" result="hardAlpha"/>
<feOffset dy="9"/>
<feGaussianBlur stdDeviation="7"/>
<feComposite in2="hardAlpha" operator="arithmetic" k2="-1" k3="1"/>
<feColorMatrix type="matrix" values="0 0 0 0 0.759687 0 0 0 0 0.766219 0 0 0 0 0.825 0 0 0 1 0"/>
<feBlend mode="normal" in2="shape" result="effect1_innerShadow_2572_71487"/>
</filter>
<filter id="filter2_i_2572_71487" x="49.7637" y="54.8867" width="31.2349" height="24.6758" filterUnits="userSpaceOnUse" color-interpolation-filters="sRGB">
<feFlood flood-opacity="0" result="BackgroundImageFix"/>
<feBlend mode="normal" in="SourceGraphic" in2="BackgroundImageFix" result="shape"/>
<feColorMatrix in="SourceAlpha" type="matrix" values="0 0 0 0 0 0 0 0 0 0 0 0 0 0 0 0 0 0 127 0" result="hardAlpha"/>
<feOffset dy="9"/>
<feGaussianBlur stdDeviation="7"/>
<feComposite in2="hardAlpha" operator="arithmetic" k2="-1" k3="1"/>
<feColorMatrix type="matrix" values="0 0 0 0 0.759687 0 0 0 0 0.766219 0 0 0 0 0.825 0 0 0 1 0"/>
<feBlend mode="normal" in2="shape" result="effect1_innerShadow_2572_71487"/>
</filter>
<filter id="filter3_d_2572_71487" x="-16.5923" y="47.8906" width="56.8184" height="86.4365" filterUnits="userSpaceOnUse" color-interpolation-filters="sRGB">
<feFlood flood-opacity="0" result="BackgroundImageFix"/>
<feColorMatrix in="SourceAlpha" type="matrix" values="0 0 0 0 0 0 0 0 0 0 0 0 0 0 0 0 0 0 127 0" result="hardAlpha"/>
<feOffset dy="54"/>
<feGaussianBlur stdDeviation="12"/>
<feComposite in2="hardAlpha" operator="out"/>
<feColorMatrix type="matrix" values="0 0 0 0 0 0 0 0 0 0 0 0 0 0 0 0 0 0 0.05 0"/>
<feBlend mode="normal" in2="BackgroundImageFix" result="effect1_dropShadow_2572_71487"/>
<feBlend mode="normal" in="SourceGraphic" in2="effect1_dropShadow_2572_71487" result="shape"/>
</filter>
<radialGradient id="paint0_radial_2572_71487" cx="0" cy="0" r="1" gradientUnits="userSpaceOnUse" gradientTransform="translate(73.5028 72.8003) rotate(85.9024) scale(52.1107 55.8211)">
<stop offset="0.171875" stop-color="white"/>
<stop offset="0.546875" stop-color="#DCE2F9"/>
<stop offset="1" stop-color="#595F83"/>
</radialGradient>
<linearGradient id="paint1_linear_2572_71487" x1="100.739" y1="69.8684" x2="95.8037" y2="69.8684" gradientUnits="userSpaceOnUse">
<stop stop-color="#EBEDF3"/>
<stop offset="1" stop-color="#C8CCE3"/>
</linearGradient>
<linearGradient id="paint2_linear_2572_71487" x1="80.9983" y1="62.7249" x2="49.7636" y2="62.7249" gradientUnits="userSpaceOnUse">
<stop stop-color="#EBEDF3"/>
<stop offset="1" stop-color="#BDC1D9"/>
</linearGradient>
<linearGradient id="paint3_linear_2572_71487" x1="117.305" y1="40.4654" x2="120.57" y2="43.2371" gradientUnits="userSpaceOnUse">
<stop stop-color="#FF9173"/>
<stop offset="1" stop-color="#FFBDA5"/>
</linearGradient>
<linearGradient id="paint4_linear_2572_71487" x1="36.8057" y1="44.4535" x2="74.6195" y2="44.3163" gradientUnits="userSpaceOnUse">
<stop stop-color="#009FB1"/>
<stop offset="1" stop-color="#26BFAB"/>
</linearGradient>
<linearGradient id="paint5_linear_2572_71487" x1="71.9351" y1="43.5058" x2="39.5776" y2="43.5058" gradientUnits="userSpaceOnUse">
<stop stop-color="#18A89E"/>
<stop offset="1" stop-color="#26BFAB"/>
</linearGradient>
<linearGradient id="paint6_linear_2572_71487" x1="96.4424" y1="20.1321" x2="75.0161" y2="14.3546" gradientUnits="userSpaceOnUse">
<stop stop-color="#18A89E"/>
<stop offset="1" stop-color="#26BFAB"/>
</linearGradient>
<linearGradient id="paint7_linear_2572_71487" x1="96.4453" y1="20.1318" x2="75.0132" y2="14.3528" gradientUnits="userSpaceOnUse">
<stop stop-color="#18A89E"/>
<stop offset="1" stop-color="#26BFAB"/>
</linearGradient>
<linearGradient id="paint8_linear_2572_71487" x1="73.1074" y1="13.66" x2="98.4262" y2="20.2839" gradientUnits="userSpaceOnUse">
<stop stop-color="#009FB1"/>
<stop offset="1" stop-color="#26BFAB"/>
</linearGradient>
<linearGradient id="paint9_linear_2572_71487" x1="71.9496" y1="2.65127" x2="64.555" y2="8.00838" gradientUnits="userSpaceOnUse">
<stop stop-color="#18A89E"/>
<stop offset="1" stop-color="#26BFAB"/>
</linearGradient>
<linearGradient id="paint10_linear_2572_71487" x1="71.9501" y1="2.65111" x2="64.5535" y2="8.00965" gradientUnits="userSpaceOnUse">
<stop stop-color="#18A89E"/>
<stop offset="1" stop-color="#26BFAB"/>
</linearGradient>
<linearGradient id="paint11_linear_2572_71487" x1="63.8781" y1="8.4957" x2="72.5519" y2="2.10947" gradientUnits="userSpaceOnUse">
<stop stop-color="#009FB1"/>
<stop offset="1" stop-color="#26BFAB"/>
</linearGradient>
<linearGradient id="paint12_linear_2572_71487" x1="9.94803" y1="56.397" x2="11.28" y2="47.4727" gradientUnits="userSpaceOnUse">
<stop stop-color="#FF9173"/>
<stop offset="1" stop-color="#FFBDA5"/>
</linearGradient>
<clipPath id="clip0_2572_71487">
<rect width="140" height="133" fill="white"/>
</clipPath>
</defs>
</svg>
