<svg width="32" height="32" viewBox="0 0 32 32" fill="none" xmlns="http://www.w3.org/2000/svg">
    <path fill="#fff" d="M0 0h32v32H0z"/>
    <path fill-rule="evenodd" clip-rule="evenodd" d="M6 6.5a.15.15 0 0 1 .15-.15h3.506a.15.15 0 0 1 .06.012l3.045 1.333c.234.102.487.155.742.155H25.15a.15.15 0 0 1 .15.15v2.15H8.796a1.85 1.85 0 0 0-1.802 1.434L6 15.886V6.5zm.258 16.65H25.205a.15.15 0 0 0 .146-.116l2.539-11a.15.15 0 0 0-.146-.184H8.796a.15.15 0 0 0-.146.116l-2.538 11a.15.15 0 0 0 .146.184zM27 10.15V8a1.85 1.85 0 0 0-1.85-1.85H13.503a.15.15 0 0 1-.06-.013l-3.046-1.332a1.85 1.85 0 0 0-.741-.155H6.15A1.85 1.85 0 0 0 4.3 6.5V23a1.85 1.85 0 0 0 1.85 1.85H25.205a1.85 1.85 0 0 0 1.803-1.434l2.538-11a1.85 1.85 0 0 0-1.802-2.266H27z" fill="#000"/>
    <path d="M29.358 22a6.357 6.357 0 1 1-12.714 0 6.357 6.357 0 0 1 12.714 0z" fill="#4F63D2"/>
    <path fill-rule="evenodd" clip-rule="evenodd" d="M30.858 22a7.857 7.857 0 1 1-15.713 0 7.857 7.857 0 0 1 15.713 0zM23 28.357a6.357 6.357 0 1 0 0-12.714 6.357 6.357 0 0 0 0 12.713z" fill="#fff"/>
    <path d="M24.887 22.855c0-.006.002-.012.006-.015l1.558-1.596a.173.173 0 0 0-.095-.292l-2.183-.356a.005.005 0 0 1-.004-.003l-1.014-1.999a.17.17 0 0 0-.303 0l-1.017 1.998v.001a.005.005 0 0 1-.004.004l-2.187.357a.173.173 0 0 0-.095.293l1.489 1.517a.174.174 0 0 1 .048.148l-.328 2.134a.172.172 0 0 0 .245.182l1.999-.998a.004.004 0 0 1 .005-.001l1.971 1.005a.17.17 0 0 0 .246-.181l-.337-2.198z" fill="#fff"/>
</svg>
