<svg width="32" height="32" viewBox="0 0 32 32" fill="none" xmlns="http://www.w3.org/2000/svg">
<rect width="32" height="32" rx="5.86975" fill="#76DE8D"/>
<rect x="4.84839" y="22.0532" width="8.21376" height="1.92571" rx="0.585162" fill="white"/>
<rect x="9.91699" y="18.9092" width="8.21376" height="1.92571" rx="0.585162" transform="rotate(90 9.91699 18.9092)" fill="white"/>
<rect x="6.75464" y="5.3335" width="8.2336" height="1.93732" rx="0.585162" transform="rotate(45 6.75464 5.3335)" fill="white"/>
<rect x="12.5754" y="6.70312" width="8.2336" height="1.93732" rx="0.585162" transform="rotate(135 12.5754 6.70312)" fill="white"/>
<rect x="18.9092" y="8.0083" width="8.29258" height="1.87252" rx="0.585162" fill="white"/>
<circle cx="22.9912" cy="22.5065" r="7.09058" transform="rotate(0.705826 22.9912 22.5065)" fill="white"/>
<circle cx="22.9911" cy="22.5063" r="6.07764" transform="rotate(0.705826 22.9911 22.5063)" fill="white"/>
<path d="M21.0049 20.7161C20.8877 20.3124 20.4655 20.0802 20.0619 20.1974C19.6582 20.3146 19.4261 20.7369 19.5433 21.1406L20.7384 25.2555C20.8556 25.6592 21.2778 25.8914 21.6814 25.7742C22.0851 25.657 22.3172 25.2347 22.2 24.8311L21.0049 20.7161Z" fill="#1DC541"/>
<path d="M20.9534 24.8682C20.826 25.2035 20.9945 25.5785 21.3298 25.7059C21.665 25.8333 22.04 25.6648 22.1674 25.3295L23.5842 21.6009C23.7116 21.2656 23.5431 20.8906 23.2079 20.7632C22.8726 20.6358 22.4976 20.8043 22.3702 21.1396L20.9534 24.8682Z" fill="#1DC541"/>
<path d="M23.5945 21.1544C23.4754 20.8161 23.1046 20.6384 22.7663 20.7575C22.428 20.8766 22.2503 21.2474 22.3694 21.5857L23.694 25.3481C23.8131 25.6863 24.1838 25.864 24.5221 25.7449C24.8604 25.6259 25.0381 25.2551 24.919 24.9168L23.5945 21.1544Z" fill="#1DC541"/>
<path d="M23.6657 24.8493C23.5386 25.25 23.7603 25.6779 24.1609 25.805C24.5615 25.9321 24.9893 25.7104 25.1164 25.3097L26.4125 21.2254C26.5396 20.8248 26.318 20.3969 25.9174 20.2698C25.5168 20.1427 25.089 20.3644 24.9618 20.7651L23.6657 24.8493Z" fill="#1DC541"/>
<rect x="18.2244" y="22.031" width="2.6557" height="1.15333" rx="0.576667" transform="rotate(0.705826 18.2244 22.031)" fill="#1DC541"/>
<rect x="25.053" y="22.1152" width="2.6557" height="1.15333" rx="0.576667" transform="rotate(0.705826 25.053 22.1152)" fill="#1DC541"/>
</svg>
