<svg width="24" height="24" viewBox="0 0 24 24" fill="none" xmlns="http://www.w3.org/2000/svg">
<rect width="24" height="24" fill="white"/>
<path fill-rule="evenodd" clip-rule="evenodd" d="M3.955 8.94637C3.11215 9.70494 2.63086 10.7856 2.63086 11.9195V17.3813C2.63086 19.5904 4.42172 21.3813 6.63086 21.3813H17.3695C19.5786 21.3813 21.3695 19.5904 21.3695 17.3813V11.9195C21.3695 10.7856 20.8882 9.70494 20.0454 8.94637L14.676 4.11398C13.1548 2.74488 10.8455 2.74488 9.32432 4.11398L3.955 8.94637ZM9.00018 16.0001C8.44789 16.0001 8.00018 16.4478 8.00018 17.0001C8.00018 17.5523 8.44789 18.0001 9.00018 18.0001H15.0002C15.5525 18.0001 16.0002 17.5523 16.0002 17.0001C16.0002 16.4478 15.5525 16.0001 15.0002 16.0001H9.00018Z" fill="#4F63D2"/>
</svg>
