<svg width="24" height="24" viewBox="0 0 24 24" fill="none" xmlns="http://www.w3.org/2000/svg">
<rect x="18.5898" y="6.651" width="4.212" height="3.024" rx="0.744827" fill="#494949"/>
<rect x="1.20117" y="6.651" width="4.212" height="3.024" rx="0.744827" fill="#494949"/>
<path d="M1.20117 17.5752H6.91152V20.058C6.91152 20.6064 6.46689 21.0511 5.91841 21.0511H2.19428C1.6458 21.0511 1.20117 20.6064 1.20117 20.058V17.5752Z" fill="#323232"/>
<path d="M17.0781 17.5752H22.7885V20.058C22.7885 20.6064 22.3438 21.0511 21.7954 21.0511H18.0712C17.5228 21.0511 17.0781 20.6064 17.0781 20.058V17.5752Z" fill="#323232"/>
<path d="M1.20117 11.4043C1.20117 10.7187 1.75696 10.1629 2.44255 10.1629H21.5598C22.2454 10.1629 22.8012 10.7187 22.8012 11.4043V18.5869H1.20117V11.4043Z" fill="#545C6F"/>
<path d="M6.27416 3.69786C6.53611 3.22231 7.03603 2.92694 7.57895 2.92694H16.5308C17.0738 2.92694 17.5737 3.22231 17.8356 3.69786L21.3969 10.1629H2.71289L6.27416 3.69786Z" fill="#96C2FF"/>
<ellipse cx="4.80106" cy="14.4718" rx="1.36552" ry="1.36552" fill="white"/>
<ellipse cx="18.2073" cy="14.4718" rx="1.36552" ry="1.36552" fill="white"/>
</svg>
