<svg width="50" height="50" viewBox="0 0 50 50" fill="none" xmlns="http://www.w3.org/2000/svg">
<path fill-rule="evenodd" clip-rule="evenodd" d="M25.0016 45.4001C36.2682 45.4001 45.4016 36.2667 45.4016 25.0001C45.4016 13.7335 36.2682 4.6001 25.0016 4.6001C13.735 4.6001 4.60156 13.7335 4.60156 25.0001C4.60156 36.2667 13.735 45.4001 25.0016 45.4001Z" fill="#F5F7F9"/>
<path d="M16.1765 28.9275H14.1992L17.212 20.2002H19.5898L22.5984 28.9275H20.6211L18.435 22.1945H18.3668L16.1765 28.9275ZM16.0529 25.4971H20.7234V26.9374H16.0529V25.4971Z" fill="#3B5768"/>
<path d="M23.6488 28.9275V20.2002H25.494V27.4062H29.2354V28.9275H23.6488Z" fill="#3B5768"/>
<path d="M30.4574 28.9275V20.2002H32.3026V27.4062H36.044V28.9275H30.4574Z" fill="#3B5768"/>
<rect x="1" y="1" width="48" height="48" rx="24" stroke="#4F63D2" stroke-width="2"/>
</svg>
