<svg width="100" height="101" viewBox="0 0 100 101" fill="none" xmlns="http://www.w3.org/2000/svg">
<path d="M22 46.5C22 31.036 34.536 18.5 50 18.5C65.464 18.5 78 31.036 78 46.5L78 70.5L22 70.5L22 46.5Z" fill="#FFE39C"/>
<rect x="16" y="69.5" width="68" height="8" rx="4" fill="#FFDA7C"/>
<path d="M60 77.5C60 78.8132 59.7413 80.1136 59.2388 81.3268C58.7362 82.5401 57.9997 83.6425 57.0711 84.5711C56.1425 85.4997 55.0401 86.2362 53.8268 86.7388C52.6136 87.2413 51.3132 87.5 50 87.5C48.6868 87.5 47.3864 87.2413 46.1732 86.7388C44.9599 86.2362 43.8575 85.4996 42.9289 84.5711C42.0003 83.6425 41.2638 82.5401 40.7612 81.3268C40.2587 80.1136 40 78.8132 40 77.5L50 77.5L60 77.5Z" fill="#FFCC49"/>
<circle cx="74" cy="30.5" r="10" fill="#EC5A5A"/>
</svg>
