<svg width="80" height="30" viewBox="0 0 80 30" fill="none" xmlns="http://www.w3.org/2000/svg">
<rect x="0.5" y="1" width="79" height="28" rx="14" fill="white"/>
<path d="M18.4837 21.5389C19.306 21.5366 20.038 21.0175 20.3121 20.2422H16.6553C16.9294 21.0175 17.6614 21.5366 18.4837 21.5389Z" fill="#4F63D2"/>
<path fill-rule="evenodd" clip-rule="evenodd" d="M11.9521 18.929C11.9521 18.4688 12.3252 18.0957 12.7855 18.0957H21.3569C21.8171 18.0957 22.1902 18.4688 22.1902 18.929C22.1902 19.3893 21.8171 19.7624 21.3569 19.7624H12.7855C12.3252 19.7624 11.9521 19.3893 11.9521 18.929Z" fill="#4F63D2"/>
<path fill-rule="evenodd" clip-rule="evenodd" d="M18.4999 10.1198C17.3606 10.1198 16.5248 10.6003 15.954 11.2602C15.8354 11.3973 15.7278 11.5427 15.6316 11.694C15.2353 12.3169 15.0475 13.011 15.0475 13.5722V18.5722C15.0475 19.0324 14.6744 19.4055 14.2142 19.4055C13.754 19.4055 13.3809 19.0324 13.3809 18.5722V13.5722C13.3809 12.6753 13.6693 11.6733 14.2254 10.7993C14.3637 10.5819 14.5197 10.3708 14.6935 10.1698C15.5507 9.17889 16.8324 8.45312 18.4999 8.45312C20.1674 8.45312 21.4491 9.17889 22.3063 10.1698C22.4802 10.3708 22.6361 10.5819 22.7744 10.7993C23.0215 11.1876 22.907 11.7027 22.5187 11.9498C22.1304 12.1968 21.6153 12.0823 21.3683 11.694C21.272 11.5427 21.1644 11.3973 21.0459 11.2602C20.475 10.6003 19.6392 10.1198 18.4999 10.1198Z" fill="#4F63D2"/>
<path fill-rule="evenodd" clip-rule="evenodd" d="M20.5239 15.7142C20.5239 15.254 20.897 14.8809 21.3573 14.8809H25.643C26.1032 14.8809 26.4763 15.254 26.4763 15.7142C26.4763 16.1744 26.1032 16.5475 25.643 16.5475H21.3573C20.897 16.5475 20.5239 16.1744 20.5239 15.7142Z" fill="#4F63D2"/>
<path fill-rule="evenodd" clip-rule="evenodd" d="M23.4998 18.6914C23.0396 18.6914 22.6665 18.3183 22.6665 17.8581V13.5724C22.6665 13.1121 23.0396 12.739 23.4998 12.739C23.9601 12.739 24.3332 13.1121 24.3332 13.5724V17.8581C24.3332 18.3183 23.9601 18.6914 23.4998 18.6914Z" fill="#4F63D2"/>
<path d="M40.279 13.45V12.262H38.948V10.315H37.496V15.375H38.948V13.45H40.279ZM36.44 12.9C36.44 11.569 35.296 10.601 33.745 10.601C32.205 10.601 31.05 11.569 31.05 12.9C31.05 14.253 32.205 15.21 33.745 15.21C35.296 15.21 36.44 14.253 36.44 12.9ZM32.447 12.9C32.447 12.196 32.986 11.767 33.745 11.767C34.504 11.767 35.043 12.196 35.043 12.9C35.043 13.615 34.504 14.044 33.745 14.044C32.986 14.044 32.447 13.615 32.447 12.9ZM39.234 19.203H33.712V18.543H38.948V15.771H32.26V16.893H37.518V17.498H32.271V20.325H39.234V19.203ZM49.4521 16.321V10.326H47.9891V16.321H49.4521ZM47.3181 15.705L47.1531 14.55C45.8331 14.759 44.6561 14.825 42.9841 14.825V13.945H46.2071V10.887H41.5431V12.053H44.7771V12.867H41.5541V15.991H42.4451C44.4691 15.991 45.8111 15.936 47.3181 15.705ZM49.4521 16.772H42.7091V20.325H49.4521V16.772ZM48.0331 19.192H44.1391V17.916H48.0331V19.192ZM60.4183 13.813V12.614H59.0763V10.315H57.6243V16.222H59.0763V13.813H60.4183ZM51.3983 15.727H56.2493V10.909H54.8193V12.185H52.8283V10.909H51.3983V15.727ZM52.8283 13.296H54.8193V14.594H52.8283V13.296ZM59.3293 19.17H53.9393V17.817H59.1423V16.662H52.4983V20.325H59.3293V19.17ZM69.6024 20.435V10.304H68.1394V20.435H69.6024ZM66.5884 11.36H61.7264V12.515H65.1034C64.8944 14.759 63.7724 16.354 61.1874 17.586L61.9464 18.73C65.5434 17.003 66.5884 14.451 66.5884 11.36Z" fill="#4F63D2"/>
<rect x="0.5" y="1" width="79" height="28" rx="14" stroke="#4F63D2"/>
</svg>
