<svg width="32" height="31" viewBox="0 0 32 31" fill="none" xmlns="http://www.w3.org/2000/svg">
<rect x="6.3418" y="23.199" width="19.3171" height="1.68858" rx="0.844288" fill="#EEEFF3"/>
<rect x="4.95996" y="25.6538" width="22.08" height="1.84618" rx="0.923088" fill="#EEEFF3"/>
<path d="M15.3141 3.72373C15.7062 3.42543 16.2938 3.42542 16.6859 3.72372L27.6457 12.0609C28.3641 12.6073 27.9168 13.6315 26.9598 13.6315H5.04021C4.08315 13.6315 3.6359 12.6073 4.3543 12.0609L15.3141 3.72373Z" fill="#EEEFF3"/>
<rect x="4" y="11.9448" width="24" height="3.37715" rx="1" fill="#EEEFF3"/>
<rect x="6.33887" y="13.0679" width="3.51219" height="9.5686" rx="1" fill="#EEEFF3"/>
<rect x="11.6064" y="13.0679" width="3.51219" height="9.5686" rx="1" fill="#EEEFF3"/>
<rect x="16.875" y="13.0679" width="3.51219" height="9.5686" rx="1" fill="#EEEFF3"/>
<rect x="22.1436" y="13.0679" width="3.51219" height="9.5686" rx="1" fill="#EEEFF3"/>
</svg>
