<svg width="24" height="24" viewBox="0 0 24 24" fill="none" xmlns="http://www.w3.org/2000/svg">
<path fill-rule="evenodd" clip-rule="evenodd" d="M12.0004 5.28564C8.29222 5.28564 5.28613 8.29173 5.28613 11.9999C5.28613 15.7081 8.29222 18.7142 12.0004 18.7142C15.7086 18.7142 18.7147 15.7081 18.7147 11.9999C18.7147 8.29173 15.7086 5.28564 12.0004 5.28564ZM3.28613 11.9999C3.28613 7.18716 7.18765 3.28564 12.0004 3.28564C16.8132 3.28564 20.7147 7.18716 20.7147 11.9999C20.7147 16.8127 16.8132 20.7142 12.0004 20.7142C7.18765 20.7142 3.28613 16.8127 3.28613 11.9999Z" fill="#A3ABC0"/>
<path fill-rule="evenodd" clip-rule="evenodd" d="M12 7.57153C12.5523 7.57153 13 8.01925 13 8.57153V12.8572C13 13.4095 12.5523 13.8572 12 13.8572C11.4477 13.8572 11 13.4095 11 12.8572V8.57153C11 8.01925 11.4477 7.57153 12 7.57153Z" fill="#A3ABC0"/>
<ellipse cx="12" cy="16" rx="1" ry="0.999999" fill="#A3ABC0"/>
</svg>
