<svg width="40" height="40" viewBox="0 0 40 40" fill="none" xmlns="http://www.w3.org/2000/svg">
<path d="M10.7475 5.0788L19.3754 22.3548C19.6586 22.9226 20.4781 22.9226 20.7613 22.3548L29.3892 5.0788C29.6429 4.57165 29.2694 3.97754 28.6962 3.97754H11.4405C10.8681 3.97754 10.4938 4.57165 10.7475 5.0788Z" fill="#3F8CFE"/>
<path d="M38.3333 28.0845C38.3333 30.7906 37.7265 33.3577 36.639 35.6611C36.5339 35.8837 36.308 36.0224 36.0618 36.0224H3.93821C3.69204 36.0224 3.46609 35.8837 3.36099 35.6611C2.27351 33.3577 1.66669 30.7906 1.66669 28.0845C1.66669 18.1296 9.87475 10.0596 20 10.0596C30.1253 10.0596 38.3333 18.1296 38.3333 28.0845Z" fill="#6AA4F6"/>
<g filter="url(#filter0_di_3241_126091)">
<mask id="path-3-outside-1_3241_126091" maskUnits="userSpaceOnUse" x="12" y="14.001" width="15" height="19" fill="black">
<rect fill="white" x="12" y="14.001" width="15" height="19"/>
<path fill-rule="evenodd" clip-rule="evenodd" d="M21.0482 15.3404C20.5956 14.8878 19.8618 14.8878 19.4092 15.3404L16.9394 17.8101C16.4869 18.2627 16.4869 18.9965 16.9394 19.4491L19.4092 21.9188C19.8618 22.3714 20.5956 22.3714 21.0482 21.9188C21.5008 21.4662 21.5008 20.7324 21.0482 20.2798L20.4394 19.6711C22.5691 19.9554 24.1937 21.7564 24.1937 23.9123C24.1937 24.2395 24.1567 24.5568 24.0869 24.8608C23.9438 25.4847 24.3336 26.1064 24.9574 26.2495C25.5813 26.3926 26.203 26.0029 26.3462 25.3791C26.4546 24.9063 26.5116 24.4152 26.5116 23.9123C26.5116 20.5306 23.9497 17.7608 20.6644 17.3632L21.0482 16.9794C21.5008 16.5268 21.5008 15.793 21.0482 15.3404ZM14.5985 21.242C15.2198 21.396 15.5986 22.0245 15.4446 22.6458C15.362 22.9791 15.3179 23.3286 15.3179 23.69C15.3179 25.9502 17.0556 27.8127 19.2809 28.0129L18.7822 27.5142C18.3296 27.0616 18.3296 26.3278 18.7822 25.8752C19.2348 25.4226 19.9686 25.4226 20.4212 25.8752L22.8563 28.3103C23.3089 28.7629 23.3089 29.4967 22.8563 29.9492L20.4212 32.3843C19.9686 32.8369 19.2348 32.8369 18.7822 32.3843C18.3296 31.9317 18.3296 31.1979 18.7822 30.7453L19.1961 30.3314C15.7362 30.0849 13 27.2092 13 23.69C13 23.1391 13.0673 22.6024 13.1948 22.0881C13.3488 21.4669 13.9773 21.0881 14.5985 21.242Z"/>
</mask>
<path fill-rule="evenodd" clip-rule="evenodd" d="M21.0482 15.3404C20.5956 14.8878 19.8618 14.8878 19.4092 15.3404L16.9394 17.8101C16.4869 18.2627 16.4869 18.9965 16.9394 19.4491L19.4092 21.9188C19.8618 22.3714 20.5956 22.3714 21.0482 21.9188C21.5008 21.4662 21.5008 20.7324 21.0482 20.2798L20.4394 19.6711C22.5691 19.9554 24.1937 21.7564 24.1937 23.9123C24.1937 24.2395 24.1567 24.5568 24.0869 24.8608C23.9438 25.4847 24.3336 26.1064 24.9574 26.2495C25.5813 26.3926 26.203 26.0029 26.3462 25.3791C26.4546 24.9063 26.5116 24.4152 26.5116 23.9123C26.5116 20.5306 23.9497 17.7608 20.6644 17.3632L21.0482 16.9794C21.5008 16.5268 21.5008 15.793 21.0482 15.3404ZM14.5985 21.242C15.2198 21.396 15.5986 22.0245 15.4446 22.6458C15.362 22.9791 15.3179 23.3286 15.3179 23.69C15.3179 25.9502 17.0556 27.8127 19.2809 28.0129L18.7822 27.5142C18.3296 27.0616 18.3296 26.3278 18.7822 25.8752C19.2348 25.4226 19.9686 25.4226 20.4212 25.8752L22.8563 28.3103C23.3089 28.7629 23.3089 29.4967 22.8563 29.9492L20.4212 32.3843C19.9686 32.8369 19.2348 32.8369 18.7822 32.3843C18.3296 31.9317 18.3296 31.1979 18.7822 30.7453L19.1961 30.3314C15.7362 30.0849 13 27.2092 13 23.69C13 23.1391 13.0673 22.6024 13.1948 22.0881C13.3488 21.4669 13.9773 21.0881 14.5985 21.242Z" fill="white"/>
<path d="M19.4092 15.3404L19.5844 15.5156L19.4092 15.3404ZM21.0482 15.3404L20.873 15.5156V15.5156L21.0482 15.3404ZM16.9394 17.8101L17.1147 17.9854V17.9854L16.9394 17.8101ZM16.9394 19.4491L17.1147 19.2739L16.9394 19.4491ZM19.4092 21.9188L19.234 22.094L19.4092 21.9188ZM21.0482 21.9188L20.873 21.7436V21.7436L21.0482 21.9188ZM21.0482 20.2798L20.873 20.4551L21.0482 20.2798ZM20.4394 19.6711L20.4722 19.4255L19.7465 19.3286L20.2642 19.8463L20.4394 19.6711ZM24.0869 24.8608L24.3285 24.9162L24.0869 24.8608ZM24.9574 26.2495L25.0128 26.008H25.0128L24.9574 26.2495ZM26.3462 25.3791L26.5877 25.4345L26.3462 25.3791ZM20.6644 17.3632L20.4892 17.188L20.1291 17.548L20.6346 17.6092L20.6644 17.3632ZM21.0482 16.9794L20.873 16.8042V16.8042L21.0482 16.9794ZM15.4446 22.6458L15.6851 22.7054L15.4446 22.6458ZM14.5985 21.242L14.5389 21.4826L14.5985 21.242ZM19.2809 28.0129L19.2587 28.2597L19.9394 28.3209L19.4561 27.8377L19.2809 28.0129ZM18.7822 27.5142L18.9574 27.339L18.7822 27.5142ZM18.7822 25.8752L18.9574 26.0505L18.7822 25.8752ZM20.4212 25.8752L20.246 26.0505L20.4212 25.8752ZM22.8563 28.3103L22.6811 28.4855L22.8563 28.3103ZM22.8563 29.9492L22.6811 29.774H22.6811L22.8563 29.9492ZM20.4212 32.3843L20.246 32.2091L20.4212 32.3843ZM18.7822 30.7453L18.607 30.5701L18.7822 30.7453ZM19.1961 30.3314L19.3714 30.5066L19.7552 30.1228L19.2137 30.0842L19.1961 30.3314ZM13.1948 22.0881L12.9543 22.0285H12.9543L13.1948 22.0881ZM19.5844 15.5156C19.9402 15.1598 20.5171 15.1598 20.873 15.5156L21.2234 15.1652C20.674 14.6158 19.7833 14.6158 19.234 15.1652L19.5844 15.5156ZM17.1147 17.9854L19.5844 15.5156L19.234 15.1652L16.7642 17.6349L17.1147 17.9854ZM17.1147 19.2739C16.7588 18.9181 16.7588 18.3412 17.1147 17.9854L16.7642 17.6349C16.2149 18.1843 16.2149 19.075 16.7642 19.6243L17.1147 19.2739ZM19.5844 21.7436L17.1147 19.2739L16.7642 19.6243L19.234 22.094L19.5844 21.7436ZM20.873 21.7436C20.5171 22.0994 19.9402 22.0994 19.5844 21.7436L19.234 22.094C19.7833 22.6434 20.674 22.6434 21.2234 22.094L20.873 21.7436ZM20.873 20.4551C21.2288 20.8109 21.2288 21.3878 20.873 21.7436L21.2234 22.094C21.7728 21.5447 21.7728 20.654 21.2234 20.1046L20.873 20.4551ZM20.2642 19.8463L20.873 20.4551L21.2234 20.1046L20.6146 19.4959L20.2642 19.8463ZM24.4415 23.9123C24.4415 21.6286 22.7213 19.7257 20.4722 19.4255L20.4066 19.9167C22.4169 20.185 23.9459 21.8842 23.9459 23.9123H24.4415ZM24.3285 24.9162C24.4024 24.5941 24.4415 24.2583 24.4415 23.9123H23.9459C23.9459 24.2207 23.911 24.5194 23.8454 24.8054L24.3285 24.9162ZM25.0128 26.008C24.5224 25.8955 24.216 25.4067 24.3285 24.9162L23.8454 24.8054C23.6717 25.5627 24.1448 26.3174 24.902 26.4911L25.0128 26.008ZM26.1046 25.3237C25.9921 25.8141 25.5033 26.1205 25.0128 26.008L24.902 26.4911C25.6593 26.6648 26.414 26.1917 26.5877 25.4345L26.1046 25.3237ZM26.2638 23.9123C26.2638 24.3964 26.2089 24.8689 26.1046 25.3237L26.5877 25.4345C26.7003 24.9436 26.7594 24.434 26.7594 23.9123H26.2638ZM20.6346 17.6092C23.7994 17.9922 26.2638 20.6598 26.2638 23.9123H26.7594C26.7594 20.4013 24.1 17.5294 20.6942 17.1172L20.6346 17.6092ZM20.873 16.8042L20.4892 17.188L20.8396 17.5384L21.2234 17.1546L20.873 16.8042ZM20.873 15.5156C21.2288 15.8715 21.2288 16.4483 20.873 16.8042L21.2234 17.1546C21.7728 16.6052 21.7728 15.7146 21.2234 15.1652L20.873 15.5156ZM15.6851 22.7054C15.8721 21.9513 15.4123 21.1884 14.6582 21.0015L14.5389 21.4826C15.0274 21.6036 15.3252 22.0977 15.2041 22.5861L15.6851 22.7054ZM15.5657 23.69C15.5657 23.3488 15.6073 23.0193 15.6851 22.7054L15.2041 22.5861C15.1167 22.9388 15.0701 23.3083 15.0701 23.69H15.5657ZM19.3031 27.7661C17.2037 27.5772 15.5657 25.8201 15.5657 23.69H15.0701C15.0701 26.0802 16.9075 28.0482 19.2587 28.2597L19.3031 27.7661ZM18.607 27.6894L19.1057 28.1881L19.4561 27.8377L18.9574 27.339L18.607 27.6894ZM18.607 25.7C18.0576 26.2494 18.0576 27.1401 18.607 27.6894L18.9574 27.339C18.6016 26.9832 18.6016 26.4063 18.9574 26.0505L18.607 25.7ZM20.5964 25.7C20.0471 25.1506 19.1564 25.1506 18.607 25.7L18.9574 26.0505C19.3133 25.6946 19.8902 25.6946 20.246 26.0505L20.5964 25.7ZM23.0315 28.1351L20.5964 25.7L20.246 26.0505L22.6811 28.4855L23.0315 28.1351ZM23.0315 30.1245C23.5809 29.5751 23.5809 28.6844 23.0315 28.1351L22.6811 28.4855C23.0369 28.8413 23.0369 29.4182 22.6811 29.774L23.0315 30.1245ZM20.5964 32.5595L23.0315 30.1245L22.6811 29.774L20.246 32.2091L20.5964 32.5595ZM18.607 32.5595C19.1564 33.1089 20.0471 33.1089 20.5964 32.5595L20.246 32.2091C19.8902 32.5649 19.3133 32.5649 18.9574 32.2091L18.607 32.5595ZM18.607 30.5701C18.0576 31.1195 18.0576 32.0102 18.607 32.5595L18.9574 32.2091C18.6016 31.8533 18.6016 31.2764 18.9574 30.9205L18.607 30.5701ZM19.0209 30.1562L18.607 30.5701L18.9574 30.9205L19.3714 30.5066L19.0209 30.1562ZM12.7522 23.69C12.7522 27.341 15.5907 30.3229 19.1785 30.5786L19.2137 30.0842C15.8818 29.8468 13.2478 27.0774 13.2478 23.69H12.7522ZM12.9543 22.0285C12.822 22.5621 12.7522 23.1189 12.7522 23.69H13.2478C13.2478 23.1594 13.3127 22.6426 13.4353 22.1477L12.9543 22.0285ZM14.6582 21.0015C13.9041 20.8146 13.1412 21.2744 12.9543 22.0285L13.4353 22.1477C13.5564 21.6593 14.0505 21.3615 14.5389 21.4826L14.6582 21.0015Z" fill="white" mask="url(#path-3-outside-1_3241_126091)"/>
</g>
<defs>
<filter id="filter0_di_3241_126091" x="12.7522" y="14.5443" width="14.4766" height="19.1761" filterUnits="userSpaceOnUse" color-interpolation-filters="sRGB">
<feFlood flood-opacity="0" result="BackgroundImageFix"/>
<feColorMatrix in="SourceAlpha" type="matrix" values="0 0 0 0 0 0 0 0 0 0 0 0 0 0 0 0 0 0 127 0" result="hardAlpha"/>
<feOffset dx="0.234714" dy="0.514136"/>
<feGaussianBlur stdDeviation="0.117294"/>
<feComposite in2="hardAlpha" operator="out"/>
<feColorMatrix type="matrix" values="0 0 0 0 0 0 0 0 0 0 0 0 0 0 0 0 0 0 0.57 0"/>
<feBlend mode="overlay" in2="BackgroundImageFix" result="effect1_dropShadow_3241_126091"/>
<feBlend mode="normal" in="SourceGraphic" in2="effect1_dropShadow_3241_126091" result="shape"/>
<feColorMatrix in="SourceAlpha" type="matrix" values="0 0 0 0 0 0 0 0 0 0 0 0 0 0 0 0 0 0 127 0" result="hardAlpha"/>
<feOffset dx="0.177002" dy="-0.208608"/>
<feGaussianBlur stdDeviation="0.531006"/>
<feComposite in2="hardAlpha" operator="arithmetic" k2="-1" k3="1"/>
<feColorMatrix type="matrix" values="0 0 0 0 0.101961 0 0 0 0 0.435294 0 0 0 0 0.898039 0 0 0 0.8 0"/>
<feBlend mode="normal" in2="shape" result="effect2_innerShadow_3241_126091"/>
</filter>
</defs>
</svg>
