<svg width="28" height="28" viewBox="0 0 28 28" fill="none" xmlns="http://www.w3.org/2000/svg">
<path fill-rule="evenodd" clip-rule="evenodd" d="M14.0732 7.00033L22.7526 15.6876C23.0656 15.2646 23.3593 14.8276 23.633 14.3781C23.7793 14.1377 23.7766 13.8549 23.6378 13.6291C23.0247 12.6322 21.8517 10.9512 20.1917 9.52916C18.5499 8.12279 16.4957 7.02211 14.0732 7.00033ZM14.0012 5C13.2171 4.99825 12.4355 5.08762 11.6721 5.26632C11.3188 5.34902 11.038 5.61665 10.9384 5.9656C10.8388 6.31456 10.9361 6.69007 11.1926 6.94678L22.1326 17.8968C22.3306 18.095 22.6027 18.2011 22.8827 18.1891C23.1627 18.1771 23.4247 18.0482 23.6052 17.8338C24.2449 17.0735 24.8253 16.2659 25.3414 15.418C25.8697 14.5501 25.8822 13.4608 25.3414 12.5814C24.6706 11.4906 23.3707 9.61894 21.4928 8.01026C19.6134 6.4003 17.0899 5.00035 14.0012 5ZM7.45309 7.26522C7.85123 6.9612 8.41288 6.99868 8.7671 7.35289L12.5832 11.169C12.5855 11.1713 12.5878 11.1736 12.5901 11.1759L16.824 15.4098C16.8264 15.4122 16.8287 15.4145 16.8311 15.4169L20.6471 19.2329C20.8511 19.4369 20.9571 19.7191 20.9377 20.007C20.9184 20.2949 20.7757 20.5604 20.5462 20.7353C18.6671 22.1677 16.3789 22.9612 14.0163 22.9999L14 23C10.9116 23 8.38828 21.6007 6.5088 19.9911C4.63107 18.383 3.33104 16.5118 2.65972 15.4204C2.11794 14.5396 2.13122 13.4481 2.66216 12.5795C3.91512 10.5298 5.53874 8.72705 7.45309 7.26522ZM14.5579 15.9721L12.0279 13.4421C11.9637 13.6345 11.9291 13.836 11.9255 14.0396C11.9207 14.3081 11.9701 14.5748 12.0707 14.8239C12.1713 15.0729 12.321 15.2991 12.5109 15.489C12.7009 15.679 12.9271 15.8287 13.1761 15.9293C13.4252 16.0299 13.6919 16.0793 13.9604 16.0745C14.164 16.0709 14.3655 16.0363 14.5579 15.9721ZM10.536 11.9503C10.4365 12.109 10.348 12.2749 10.2714 12.4469C10.0528 12.9375 9.93526 13.4672 9.92578 14.0043C9.91631 14.5414 10.0151 15.0748 10.2163 15.5729C10.4175 16.071 10.7169 16.5234 11.0967 16.9033C11.4766 17.2831 11.929 17.5825 12.4271 17.7837C12.9252 17.9849 13.4586 18.0837 13.9957 18.0742C14.5328 18.0647 15.0625 17.9472 15.5531 17.7286C15.7251 17.6519 15.891 17.5635 16.0497 17.464L18.3714 19.7856C17.0437 20.5524 15.5373 20.9733 13.9918 21C11.5417 20.9975 9.46595 19.8904 7.80974 18.472C6.14994 17.0506 4.97677 15.37 4.36326 14.3726C4.22411 14.1464 4.22169 13.863 4.36861 13.6226C5.34127 12.0314 6.56292 10.6061 7.98709 9.40131L10.536 11.9503Z" fill="#D9D9D9"/>
<path fill-rule="evenodd" clip-rule="evenodd" d="M4.29289 4.29289C4.68341 3.90237 5.31658 3.90237 5.7071 4.29289L23.7071 22.2929C24.0976 22.6834 24.0976 23.3166 23.7071 23.7071C23.3166 24.0976 22.6834 24.0976 22.2929 23.7071L4.29289 5.70711C3.90236 5.31658 3.90236 4.68342 4.29289 4.29289Z" fill="#D9D9D9"/>
</svg>
