<svg width="28" height="28" viewBox="0 0 28 28" fill="none" xmlns="http://www.w3.org/2000/svg">
<path d="M13.9777 23.1543C15.1289 23.1511 16.1537 22.4242 16.5375 21.3389H11.418C11.8017 22.4242 12.8265 23.1511 13.9777 23.1543Z" fill="#A3ABC0"/>
<path fill-rule="evenodd" clip-rule="evenodd" d="M7 12V18.5H6C5.44772 18.5 5 18.9477 5 19.5C5 20.0523 5.44772 20.5 6 20.5H8H20H22C22.5523 20.5 23 20.0523 23 19.5C23 18.9477 22.5523 18.5 22 18.5H21V12C21 8.13401 17.866 5 14 5C10.134 5 7 8.13401 7 12Z" fill="#A3ABC0"/>
</svg>
