<svg width="260" height="120" viewBox="0 0 260 120" fill="none" xmlns="http://www.w3.org/2000/svg">
<path d="M87.1839 105.436C87.5371 108.356 90.015 110.552 92.9559 110.552H187.35C190.838 110.552 193.541 107.503 193.122 104.04L183.627 25.5497C183.274 22.63 180.796 20.4338 177.855 20.4338H83.4612C79.9733 20.4338 77.2703 23.4835 77.6891 26.9461L87.1839 105.436Z" fill="#F1AC25"/>
<path d="M76.2826 25.5499C76.6358 22.6302 79.1136 20.4341 82.0546 20.4341H177.902C181.39 20.4341 184.093 23.4837 183.674 26.9464L174.18 105.437C173.826 108.356 171.349 110.553 168.408 110.553H72.5598C69.0719 110.553 66.3689 107.503 66.7878 104.04L76.2826 25.5499Z" fill="#FFD88C"/>
<rect x="110.512" y="15.5171" width="7.44792" height="10.7581" rx="1.45352" fill="#515151"/>
<rect x="134.925" y="15.5171" width="7.44792" height="10.7581" rx="1.45352" fill="#515151"/>
<rect x="162.647" y="15.5171" width="7.44792" height="10.7581" rx="1.45352" fill="#515151"/>
<path d="M82.7687 43.7605C82.8504 42.6564 83.77 41.8022 84.8771 41.8022H94.9277C96.1568 41.8022 97.1268 42.8467 97.0361 44.0724L96.2918 54.1345C96.2102 55.2386 95.2905 56.0928 94.1834 56.0928H84.1328C82.9037 56.0928 81.9337 55.0483 82.0244 53.8226L82.7687 43.7605Z" fill="white"/>
<path d="M80.6544 66.051C80.7361 64.9469 81.6558 64.0928 82.7629 64.0928H92.8134C94.0425 64.0928 95.0126 65.1372 94.9219 66.363L94.1776 76.4251C94.0959 77.5292 93.1763 78.3833 92.0691 78.3833H82.0186C80.7895 78.3833 79.8194 77.3389 79.9101 76.1131L80.6544 66.051Z" fill="white"/>
<path d="M78.5402 88.2502C78.6219 87.1461 79.5415 86.292 80.6486 86.292H90.6992C91.9283 86.292 92.8983 87.3364 92.8076 88.5622L92.0633 98.6243C91.9816 99.7284 91.062 100.583 89.9549 100.583H79.9043C78.6752 100.583 77.7052 99.5381 77.7959 98.3123L78.5402 88.2502Z" fill="white"/>
<path d="M107.082 43.7605C107.164 42.6564 108.083 41.8022 109.191 41.8022H119.241C120.47 41.8022 121.44 42.8467 121.35 44.0724L120.605 54.1345C120.524 55.2386 119.604 56.0928 118.497 56.0928H108.446C107.217 56.0928 106.247 55.0483 106.338 53.8226L107.082 43.7605Z" fill="#FF7A00"/>
<path d="M104.968 66.051C105.05 64.9469 105.969 64.0928 107.076 64.0928H117.127C118.356 64.0928 119.326 65.1372 119.235 66.363L118.491 76.4251C118.409 77.5292 117.49 78.3833 116.383 78.3833H106.332C105.103 78.3833 104.133 77.3389 104.224 76.1131L104.968 66.051Z" fill="white"/>
<path d="M102.854 88.2502C102.935 87.1461 103.855 86.292 104.962 86.292H115.013C116.242 86.292 117.212 87.3364 117.121 88.5622L116.377 98.6243C116.295 99.7284 115.375 100.583 114.268 100.583H104.218C102.989 100.583 102.019 99.5381 102.109 98.3123L102.854 88.2502Z" fill="white"/>
<path d="M131.396 43.7605C131.477 42.6564 132.397 41.8022 133.504 41.8022H143.555C144.784 41.8022 145.754 42.8467 145.663 44.0724L144.919 54.1345C144.837 55.2386 143.917 56.0928 142.81 56.0928H132.76C131.531 56.0928 130.561 55.0483 130.651 53.8226L131.396 43.7605Z" fill="white"/>
<path d="M129.281 66.051C129.363 64.9469 130.283 64.0928 131.39 64.0928H141.44C142.669 64.0928 143.64 65.1372 143.549 66.363L142.805 76.4251C142.723 77.5292 141.803 78.3833 140.696 78.3833H130.646C129.416 78.3833 128.446 77.3389 128.537 76.1131L129.281 66.051Z" fill="white"/>
<path d="M127.167 88.2502C127.249 87.1461 128.168 86.292 129.276 86.292H139.326C140.555 86.292 141.525 87.3364 141.435 88.5622L140.69 98.6243C140.609 99.7284 139.689 100.583 138.582 100.583H128.531C127.302 100.583 126.332 99.5381 126.423 98.3123L127.167 88.2502Z" fill="#4F63D2"/>
<path d="M155.709 43.7605C155.791 42.6564 156.71 41.8022 157.818 41.8022H167.868C169.097 41.8022 170.067 42.8467 169.977 44.0724L169.232 54.1345C169.151 55.2386 168.231 56.0928 167.124 56.0928H157.073C155.844 56.0928 154.874 55.0483 154.965 53.8226L155.709 43.7605Z" fill="white"/>
<path d="M153.595 66.051C153.677 64.9469 154.596 64.0928 155.703 64.0928H165.754C166.983 64.0928 167.953 65.1372 167.862 66.363L167.118 76.4251C167.036 77.5292 166.117 78.3833 165.01 78.3833H154.959C153.73 78.3833 152.76 77.3389 152.851 76.1131L153.595 66.051Z" fill="white"/>
<path d="M151.481 88.2502C151.562 87.1461 152.482 86.292 153.589 86.292H163.64C164.869 86.292 165.839 87.3364 165.748 88.5622L165.004 98.6243C164.922 99.7284 164.002 100.583 162.895 100.583H152.845C151.616 100.583 150.646 99.5381 150.736 98.3123L151.481 88.2502Z" fill="white"/>
<g filter="url(#filter0_di_5101_229468)">
<circle cx="92.5035" cy="30.5275" r="21.2671" transform="rotate(0.705826 92.5035 30.5275)" fill="white"/>
<path d="M86.8417 25.4248C86.5075 24.2741 85.304 23.6122 84.1535 23.9463C83.003 24.2804 82.3412 25.4841 82.6754 26.6348L86.0819 38.3645C86.4161 39.5152 87.6197 40.1772 88.7702 39.8431C89.9207 39.509 90.5824 38.3053 90.2482 37.1546L86.8417 25.4248Z" fill="#FF6B00"/>
<path d="M86.6949 37.2604C86.3318 38.216 86.8121 39.2851 87.7677 39.6482C88.7234 40.0113 89.7924 39.531 90.1555 38.5754L94.1942 27.9468C94.5573 26.9912 94.077 25.9221 93.1214 25.559C92.1657 25.1959 91.0967 25.6762 90.7336 26.6318L86.6949 37.2604Z" fill="#FF6B00"/>
<path d="M94.2238 26.6744C93.8843 25.7101 92.8274 25.2036 91.8632 25.5431C90.8989 25.8825 90.3924 26.9394 90.7318 27.9037L94.5074 38.6286C94.8469 39.5928 95.9038 40.0993 96.8681 39.7599C97.8323 39.4204 98.3389 38.3635 97.9994 37.3992L94.2238 26.6744Z" fill="#FF6B00"/>
<path d="M94.4263 37.2062C94.0638 38.3483 94.6957 39.5679 95.8377 39.9303C96.9796 40.2927 98.1991 39.6606 98.5615 38.5184L102.256 26.8762C102.618 25.7341 101.986 24.5144 100.845 24.1521C99.7027 23.7897 98.4831 24.4218 98.1207 25.5639L94.4263 37.2062Z" fill="#FF6B00"/>
<rect x="78.916" y="29.1729" width="7.57083" height="3.2879" rx="1.64395" transform="rotate(0.705826 78.916 29.1729)" fill="#FF6B00"/>
<rect x="98.3809" y="29.4126" width="7.57083" height="3.2879" rx="1.64395" transform="rotate(0.705826 98.3809 29.4126)" fill="#FF6B00"/>
<path d="M112.312 49.5433L107.1 39.5791L97.9785 45.3919L111.43 50.5351C112.04 50.7685 112.615 50.1224 112.312 49.5433Z" fill="white"/>
</g>
<g filter="url(#filter1_di_5101_229468)">
<circle cx="19.3873" cy="19.3873" r="19.3873" transform="matrix(-0.999924 0.0123187 0.0123187 0.999924 171.397 56.5522)" fill="white"/>
<path d="M157.412 71.5253C157.717 70.4764 158.814 69.8729 159.863 70.1775C160.911 70.4821 161.515 71.5794 161.21 72.6284L158.105 83.3213C157.8 84.3703 156.703 84.9737 155.654 84.6691C154.605 84.3645 154.002 83.2672 154.307 82.2183L157.412 71.5253Z" fill="#4F63D2"/>
<path d="M157.546 82.3147C157.877 83.1859 157.439 84.1604 156.568 84.4915C155.696 84.8225 154.722 84.3846 154.391 83.5135L150.709 73.8244C150.378 72.9532 150.816 71.9787 151.687 71.6477C152.558 71.3166 153.533 71.7545 153.864 72.6256L157.546 82.3147Z" fill="#4F63D2"/>
<path d="M150.682 72.6644C150.992 71.7853 151.955 71.3236 152.834 71.633C153.713 71.9425 154.175 72.906 153.865 73.785L150.424 83.5619C150.114 84.4409 149.151 84.9026 148.272 84.5932C147.393 84.2837 146.931 83.3203 147.24 82.4412L150.682 72.6644Z" fill="#4F63D2"/>
<path d="M150.498 82.2652C150.828 83.3064 150.252 84.4182 149.211 84.7486C148.17 85.0789 147.058 84.5027 146.728 83.4615L143.36 72.8483C143.03 71.8072 143.606 70.6953 144.647 70.365C145.688 70.0347 146.799 70.6109 147.13 71.6521L150.498 82.2652Z" fill="#4F63D2"/>
<rect width="6.901" height="2.99701" rx="1.4985" transform="matrix(-0.999924 0.0123187 0.0123187 0.999924 164.637 74.9419)" fill="#4F63D2"/>
<rect width="6.901" height="2.99701" rx="1.4985" transform="matrix(-0.999924 0.0123187 0.0123187 0.999924 146.893 75.1606)" fill="#4F63D2"/>
<path d="M134.192 93.5121L138.943 84.4287L147.259 89.7277L134.996 94.4163C134.44 94.6291 133.916 94.0401 134.192 93.5121Z" fill="white"/>
</g>
<defs>
<filter id="filter0_di_5101_229468" x="71.2363" y="7.82642" width="47.3506" height="51.6521" filterUnits="userSpaceOnUse" color-interpolation-filters="sRGB">
<feFlood flood-opacity="0" result="BackgroundImageFix"/>
<feColorMatrix in="SourceAlpha" type="matrix" values="0 0 0 0 0 0 0 0 0 0 0 0 0 0 0 0 0 0 127 0" result="hardAlpha"/>
<feOffset dx="2.40884" dy="5.27651"/>
<feGaussianBlur stdDeviation="1.20377"/>
<feComposite in2="hardAlpha" operator="out"/>
<feColorMatrix type="matrix" values="0 0 0 0 0.204167 0 0 0 0 0.204167 0 0 0 0 0.204167 0 0 0 0.76 0"/>
<feBlend mode="overlay" in2="BackgroundImageFix" result="effect1_dropShadow_5101_229468"/>
<feBlend mode="normal" in="SourceGraphic" in2="effect1_dropShadow_5101_229468" result="shape"/>
<feColorMatrix in="SourceAlpha" type="matrix" values="0 0 0 0 0 0 0 0 0 0 0 0 0 0 0 0 0 0 127 0" result="hardAlpha"/>
<feOffset dy="-1.43383"/>
<feGaussianBlur stdDeviation="1.98531"/>
<feComposite in2="hardAlpha" operator="arithmetic" k2="-1" k3="1"/>
<feColorMatrix type="matrix" values="0 0 0 0 0.766667 0 0 0 0 0.766667 0 0 0 0 0.766667 0 0 0 1 0"/>
<feBlend mode="multiply" in2="shape" result="effect2_innerShadow_5101_229468"/>
</filter>
<filter id="filter1_di_5101_229468" x="132.863" y="55.4825" width="43.1651" height="47.0863" filterUnits="userSpaceOnUse" color-interpolation-filters="sRGB">
<feFlood flood-opacity="0" result="BackgroundImageFix"/>
<feColorMatrix in="SourceAlpha" type="matrix" values="0 0 0 0 0 0 0 0 0 0 0 0 0 0 0 0 0 0 127 0" result="hardAlpha"/>
<feOffset dx="2.19591" dy="4.8101"/>
<feGaussianBlur stdDeviation="1.09737"/>
<feComposite in2="hardAlpha" operator="out"/>
<feColorMatrix type="matrix" values="0 0 0 0 0.204167 0 0 0 0 0.204167 0 0 0 0 0.204167 0 0 0 0.76 0"/>
<feBlend mode="overlay" in2="BackgroundImageFix" result="effect1_dropShadow_5101_229468"/>
<feBlend mode="normal" in="SourceGraphic" in2="effect1_dropShadow_5101_229468" result="shape"/>
<feColorMatrix in="SourceAlpha" type="matrix" values="0 0 0 0 0 0 0 0 0 0 0 0 0 0 0 0 0 0 127 0" result="hardAlpha"/>
<feOffset dy="-1.30709"/>
<feGaussianBlur stdDeviation="1.80982"/>
<feComposite in2="hardAlpha" operator="arithmetic" k2="-1" k3="1"/>
<feColorMatrix type="matrix" values="0 0 0 0 0.766667 0 0 0 0 0.766667 0 0 0 0 0.766667 0 0 0 1 0"/>
<feBlend mode="multiply" in2="shape" result="effect2_innerShadow_5101_229468"/>
</filter>
</defs>
</svg>
