<svg width="28" height="28" viewBox="0 0 28 28" fill="none" xmlns="http://www.w3.org/2000/svg">
<path d="M24 14C24 19.5228 19.5228 24 14 24C8.47715 24 4 19.5228 4 14C4 8.47715 8.47715 4 14 4C19.5228 4 24 8.47715 24 14Z" fill="#4F63D2"/>
<path fill-rule="evenodd" clip-rule="evenodd" d="M17.5961 10.1972C18.0395 10.5264 18.1321 11.1527 17.8029 11.5962L13.4241 17.4942C13.0211 18.037 12.2307 18.0966 11.7509 17.6204L9.29557 15.1835C8.90357 14.7945 8.90118 14.1613 9.29023 13.7693C9.67928 13.3773 10.3124 13.3749 10.7044 13.764L12.4306 15.4772L16.1971 10.404C16.5263 9.96053 17.1527 9.86794 17.5961 10.1972Z" fill="white"/>
</svg>
