<svg width="16" height="16" viewBox="0 0 16 16" fill="none" xmlns="http://www.w3.org/2000/svg">
<path d="M13.7137 8.00042C13.7137 11.1563 11.1554 13.7147 7.99944 13.7147C4.84353 13.7147 2.28516 11.1563 2.28516 8.00042C2.28516 4.84451 4.84353 2.28613 7.99944 2.28613C11.1554 2.28613 13.7137 4.84451 13.7137 8.00042Z" fill="white"/>
<path fill-rule="evenodd" clip-rule="evenodd" d="M7.99944 13.7142C11.1554 13.7142 13.7137 11.1558 13.7137 7.99993C13.7137 4.84402 11.1554 2.28564 7.99944 2.28564C4.84353 2.28564 2.28516 4.84402 2.28516 7.99993C2.28516 11.1558 4.84353 13.7142 7.99944 13.7142ZM7.99922 5.06416C8.3582 5.06416 8.64922 5.35518 8.64922 5.71416V8.5713C8.64922 8.93029 8.3582 9.2213 7.99922 9.2213C7.64023 9.2213 7.34922 8.93029 7.34922 8.5713V5.71416C7.34922 5.35518 7.64023 5.06416 7.99922 5.06416ZM7.99944 11.0142C8.35843 11.0142 8.64944 10.7232 8.64944 10.3642C8.64944 10.0052 8.35843 9.71423 7.99944 9.71423C7.64046 9.71423 7.34944 10.0052 7.34944 10.3642C7.34944 10.7232 7.64046 11.0142 7.99944 11.0142Z" fill="#E6492D"/>
</svg>
