<svg width="231" height="37" viewBox="0 0 231 37" fill="none" xmlns="http://www.w3.org/2000/svg">
<path d="M116.887 36.5019C116.465 37.166 115.535 37.166 115.113 36.5019L110.181 28.7375C109.709 27.9946 110.217 27 111.068 27L120.932 27C121.783 27 122.291 27.9946 121.819 28.7375L116.887 36.5019Z" fill="#4D4D4D"/>
<rect width="231" height="29" rx="4" fill="#4D4D4D"/>
<path d="M19.6722 11.172H21.1362V12.468H19.6722V16.044H18.0882V7.98H19.6722V11.172ZM16.5642 8.892V14.22H11.2962V8.892H16.5642ZM15.0042 12.972V10.14H12.8442V12.972H15.0042ZM14.1282 15.252V17.58H20.0682V18.84H12.5442V15.252H14.1282ZM29.4752 16.524H31.8992V17.82H21.8792V16.524H24.4232V14.844H23.0432V11.124H29.2112V9.948H23.0312V8.688H30.7712V12.36H24.6152V13.572H31.0232V14.844H29.4752V16.524ZM25.9832 14.844V16.524H27.9152V14.844H25.9832ZM40.4423 7.98H42.0263V19.056H40.4423V7.98ZM37.2263 13.728V15.528C38.1383 15.48 38.9783 15.42 39.8423 15.336L39.9383 16.488C37.5743 16.872 35.1023 16.884 33.0503 16.884L32.8583 15.588C33.7223 15.588 34.6703 15.6 35.6423 15.564V13.728H33.5663V8.964H39.2663V10.224H35.1503V12.456H39.3383V13.728H37.2263ZM52.3334 15.276L50.7494 15.096C51.1694 13.02 51.1934 11.472 51.1934 10.188H44.7494V8.928H52.7774V9.984C52.7774 11.364 52.7774 12.936 52.3334 15.276ZM48.8534 16.428H53.7374V17.7H43.7414V16.428H47.2694V12.624H48.8534V16.428ZM67.5072 12.06V13.368H65.8992V19.056H64.3152V7.98H65.8992V12.06H67.5072ZM59.2512 10.284V15.084C60.8232 15.072 62.1312 14.976 63.5592 14.736L63.7152 16.044C62.0472 16.332 60.5352 16.404 58.6152 16.404H57.6672V9H62.8272V10.284H59.2512ZM75.7382 7.968H77.3222V19.056H75.7382V7.968ZM72.4502 8.832V10.44C72.4502 12.492 73.3262 14.508 75.1982 15.312L74.2982 16.596C73.0022 16.02 72.1742 14.928 71.6822 13.572C71.1902 15.072 70.3262 16.236 68.9702 16.86L68.0222 15.552C69.9542 14.712 70.8662 12.6 70.8662 10.44V8.832H72.4502ZM89.34 13.464H86.904C86.364 14.028 85.596 14.364 84.732 14.364C83.1 14.364 81.828 13.152 81.828 11.496C81.828 9.852 83.1 8.64 84.732 8.64C85.596 8.64 86.34 8.952 86.88 9.516H89.34V7.98H90.924V16.068H89.34V13.464ZM83.328 11.496C83.328 12.42 83.916 12.984 84.732 12.984C85.548 12.984 86.148 12.42 86.148 11.496C86.148 10.584 85.548 10.02 84.732 10.02C83.916 10.02 83.328 10.584 83.328 11.496ZM89.34 10.776H87.564C87.612 11.004 87.648 11.244 87.648 11.496C87.648 11.796 87.624 12.036 87.564 12.204H89.34V10.776ZM85.224 17.58H91.176V18.84H83.64V15.276H85.224V17.58ZM100.259 10.56H97.9191C97.2471 12.204 95.7711 13.248 93.2631 13.776L92.7351 12.504C95.2431 12.024 96.3711 10.944 96.5631 9.66H93.3711V8.4H98.3031C98.3031 8.736 98.2791 9.06 98.2311 9.372H100.259V7.98H101.843V13.524H100.259V12.696H97.8111V11.508H100.259V10.56ZM96.1551 17.676H102.071V18.924H94.5711V15.804H100.259V15.18H94.5591V13.932H101.843V16.98H96.1551V17.676ZM113.782 12.3V13.608H112.198V19.032H110.614V7.98H112.198V12.3H113.782ZM107.494 8.172V9.612H109.894V10.872H103.462V9.612H105.91V8.172H107.494ZM106.714 11.496C108.31 11.496 109.498 12.588 109.498 14.124C109.498 15.696 108.31 16.776 106.714 16.776C105.106 16.776 103.906 15.696 103.906 14.124C103.906 12.588 105.106 11.496 106.714 11.496ZM106.714 15.48C107.482 15.48 107.998 14.988 107.998 14.124C107.998 13.296 107.482 12.78 106.714 12.78C105.946 12.78 105.418 13.272 105.418 14.136C105.418 15 105.946 15.48 106.714 15.48ZM122.097 7.968H123.693V19.056H122.097V14.592H120.261V13.32H122.097V11.592H120.285V10.32H122.097V7.968ZM116.385 13.176V15.288C117.729 15.276 118.893 15.216 120.285 15.012L120.405 16.308C118.773 16.56 117.381 16.596 115.713 16.596H114.825V11.928H118.173V10.164H114.801V8.904H119.733V13.176H116.385ZM131.024 13.356V14.268H125.816V8.868H131.024V9.72H133.016V7.98H134.6V16.032H133.016V13.356H131.024ZM129.476 13.02V10.104H127.376V13.02H129.476ZM133.016 10.98H131.024V12.096H133.016V10.98ZM128.888 17.58H134.84V18.84H127.304V15.276H128.888V17.58ZM167.08 7.968H168.664V14.28H167.08V11.1H164.404V9.816H167.08V7.968ZM165.796 12.144L165.976 13.452C164.236 13.8 162.592 13.896 160.948 13.896H160.024V8.556H161.596V12.576C163 12.54 164.344 12.432 165.796 12.144ZM161.332 18.9V14.76H168.664V18.9H161.332ZM162.88 15.996V17.664H167.116V15.996H162.88ZM178.347 7.968H179.847V19.02H178.347V7.968ZM176.019 12.204V8.22H177.495V18.54H176.019V13.476H174.291C173.667 14.736 172.695 15.828 171.099 16.74L170.199 15.624C172.407 14.316 173.379 12.72 173.571 10.548H170.811V9.288H175.143C175.143 10.344 175.059 11.292 174.783 12.204H176.019ZM191.517 13.5V11.58H189.585V10.32H191.517V7.968H193.101V13.5H191.517ZM184.629 8.388H189.465C189.465 11.28 187.785 13.02 184.521 13.788L183.993 12.552C186.405 12.012 187.557 10.956 187.761 9.648H184.629V8.388ZM187.413 17.676H193.329V18.924H185.829V15.804H191.517V15.168H185.817V13.92H193.101V16.98H187.413V17.676ZM202.436 7.968H204.032V19.056H202.436V14.592H200.6V13.32H202.436V11.592H200.624V10.32H202.436V7.968ZM196.724 13.176V15.288C198.068 15.276 199.232 15.216 200.624 15.012L200.744 16.308C199.112 16.56 197.72 16.596 196.052 16.596H195.164V11.928H198.512V10.164H195.14V8.904H200.072V13.176H196.724ZM213.487 16.464H215.707V17.748H205.699V16.464H207.907V13.764C207.043 13.248 206.563 12.456 206.575 11.496C206.575 9.684 208.327 8.52 210.691 8.52C213.079 8.52 214.819 9.684 214.819 11.496C214.819 12.456 214.315 13.248 213.487 13.764V16.464ZM210.691 9.768C209.155 9.768 208.135 10.392 208.135 11.496C208.135 12.6 209.155 13.224 210.691 13.224C212.227 13.224 213.259 12.6 213.259 11.496C213.259 10.392 212.227 9.768 210.691 9.768ZM209.479 14.352V16.464H211.915V14.352C211.531 14.424 211.123 14.46 210.691 14.46C210.271 14.46 209.863 14.424 209.479 14.352ZM219.15 10.548L218.898 15.456H217.746L217.494 10.548L217.434 8.88H219.21L219.15 10.548ZM219.21 16.464V18.168H217.458V16.464H219.21Z" fill="white"/>
<path d="M141.842 9.024H143.258V16.668H144.806V18H139.862V16.668H141.614V11.784L141.662 11.004L140.198 12.336L139.25 11.256L141.842 9.024ZM154.631 8.328V12.876H147.179V8.328H148.751V9.456H153.059V8.328H154.631ZM153.059 11.64V10.644H148.751V11.64H153.059ZM145.895 13.644H155.915V14.892H151.835V16.632H150.251V14.892H145.895V13.644ZM148.643 15.804V17.58H154.811V18.84H147.059V15.804H148.643Z" fill="#FF97A5"/>
</svg>
