<svg width="32" height="32" viewBox="0 0 32 32" fill="none" xmlns="http://www.w3.org/2000/svg">
<rect width="32" height="32" fill="white"/>
<path d="M6.06557 29.7368C5.64784 29.7368 5.22896 29.5876 4.89594 29.2857C4.89014 29.2811 4.88433 29.2753 4.87737 29.2695C2.4534 27.0304 0.784808 24.1539 0.0514655 20.9536C-0.162039 20.019 0.423939 19.0891 1.36034 18.8763C2.29791 18.6635 3.23083 19.2476 3.44434 20.181C4.02103 22.6989 5.33455 24.9612 7.24333 26.725L7.25957 26.74C7.94882 27.3877 7.99292 28.468 7.35356 29.1689C7.0101 29.546 6.539 29.7368 6.06557 29.7368Z" fill="#E6492D"/>
<path d="M1.74211 15.8161C1.61447 15.8161 1.48567 15.8022 1.35687 15.7733C0.419309 15.5616 -0.16899 14.6329 0.0433545 13.6983C0.675746 10.9121 2.04496 8.32705 4.00248 6.22088C4.27632 5.9271 4.56293 5.64027 4.8565 5.36731C5.55967 4.71383 6.66084 4.75315 7.31644 5.45405C7.97204 6.15495 7.93259 7.25257 7.22942 7.90605C6.99851 8.12118 6.77108 8.34787 6.55525 8.58035C5.01314 10.2389 3.93518 12.2734 3.43854 14.464C3.25521 15.2701 2.53811 15.8172 1.74211 15.8172V15.8161Z" fill="#FF6B00"/>
<path d="M11.6725 5.12098C10.9287 5.12098 10.2406 4.64214 10.0097 3.89729C9.72656 2.98126 10.2406 2.01087 11.1596 1.7275C12.7284 1.24404 14.3587 1 16.0052 1C17.6518 1 19.2496 1.24057 20.8033 1.71478C21.7223 1.99583 22.2398 2.96507 21.9578 3.8811C21.6759 4.79713 20.7023 5.31297 19.7845 5.03192C18.5615 4.65833 17.2897 4.46981 16.0064 4.46981C14.723 4.46981 13.4246 4.66296 12.1877 5.04348C12.0171 5.09669 11.843 5.12098 11.6736 5.12098H11.6725Z" fill="#FCBB4A"/>
<path d="M30.2543 15.7928C29.4607 15.7928 28.7424 15.2481 28.5591 14.4431C27.9824 11.9228 26.6689 9.6582 24.7589 7.89322C24.0546 7.24205 24.007 6.14097 24.6591 5.43775C25.3112 4.73454 26.4055 4.68596 27.1121 5.33597L27.1342 5.35563C29.5523 7.59019 31.2221 10.469 31.9543 13.6716C32.1678 14.6061 31.5818 15.5361 30.6442 15.7489C30.5143 15.7789 30.3843 15.7928 30.2555 15.7928H30.2543Z" fill="#13C75B"/>
<path d="M25.9552 29.7206C25.4888 29.7206 25.0235 29.5355 24.6812 29.1677C24.0256 28.4668 24.065 27.3692 24.7682 26.7157C25.0014 26.4994 25.23 26.2704 25.447 26.0368C26.988 24.3805 28.0648 22.3484 28.5626 20.1601C28.7749 19.2256 29.7078 18.6403 30.6442 18.852C31.5818 19.0636 32.1689 19.9935 31.9566 20.9269C31.3242 23.7097 29.955 26.2924 27.9986 28.3963C27.7236 28.6923 27.4335 28.9815 27.1388 29.2556C26.8035 29.5667 26.3776 29.7206 25.9529 29.7206H25.9552Z" fill="#3B87F2"/>
<g filter="url(#filter0_di_5201_76138)">
<path d="M15.8966 11.9958V24.0179" stroke="black" stroke-width="3.05325" stroke-linecap="round"/>
<path d="M21.9009 16.429L15.9409 10.4691L9.98097 16.429" stroke="black" stroke-width="3.05325" stroke-linecap="round" stroke-linejoin="round"/>
</g>
<defs>
<filter id="filter0_di_5201_76138" x="7.37934" y="8.94246" width="18.1982" height="20.3646" filterUnits="userSpaceOnUse" color-interpolation-filters="sRGB">
<feFlood flood-opacity="0" result="BackgroundImageFix"/>
<feColorMatrix in="SourceAlpha" type="matrix" values="0 0 0 0 0 0 0 0 0 0 0 0 0 0 0 0 0 0 127 0" result="hardAlpha"/>
<feOffset dx="0.537502" dy="2.15001"/>
<feGaussianBlur stdDeviation="0.806252"/>
<feComposite in2="hardAlpha" operator="out"/>
<feColorMatrix type="matrix" values="0 0 0 0 0 0 0 0 0 0 0 0 0 0 0 0 0 0 0.25 0"/>
<feBlend mode="normal" in2="BackgroundImageFix" result="effect1_dropShadow_5201_76138"/>
<feBlend mode="normal" in="SourceGraphic" in2="effect1_dropShadow_5201_76138" result="shape"/>
<feColorMatrix in="SourceAlpha" type="matrix" values="0 0 0 0 0 0 0 0 0 0 0 0 0 0 0 0 0 0 127 0" result="hardAlpha"/>
<feOffset dy="1.22812"/>
<feGaussianBlur stdDeviation="0.614062"/>
<feComposite in2="hardAlpha" operator="arithmetic" k2="-1" k3="1"/>
<feColorMatrix type="matrix" values="0 0 0 0 1 0 0 0 0 1 0 0 0 0 1 0 0 0 0.25 0"/>
<feBlend mode="screen" in2="shape" result="effect2_innerShadow_5201_76138"/>
</filter>
</defs>
</svg>
